<svg width="577" height="572" viewBox="0 0 577 572" fill="none" xmlns="http://www.w3.org/2000/svg">
<ellipse cx="288.5" cy="286" rx="288.5" ry="286" fill="#05A66B" fill-opacity="0.3"/>
<path d="M408.44 172.274L501.793 142.97C507.049 141.32 511.531 137.292 514.251 131.771C516.972 126.25 517.709 119.69 516.301 113.532C514.892 107.375 511.453 102.126 506.741 98.9383C502.028 95.7509 496.427 94.8878 491.172 96.5376L344.078 142.706C341.476 143.523 338.761 143.732 336.09 143.319C333.419 142.907 330.843 141.883 328.509 140.305C326.176 138.726 324.13 136.625 322.49 134.121C320.85 131.617 319.647 128.759 318.949 125.71C317.541 119.553 318.278 112.993 320.999 107.473C323.72 101.953 328.2 97.9247 333.456 96.2743L400.411 75.252C403.014 74.4354 405.454 73.026 407.592 71.1047C409.73 69.1833 411.524 66.7871 412.871 64.0537C414.219 61.3202 415.093 58.3025 415.445 55.1732C415.797 52.0432 415.619 48.8635 414.922 45.8139C413.513 39.6566 410.074 34.4071 405.362 31.2198C400.649 28.0325 395.049 27.1694 389.793 28.8191L49.6569 135.58C47.0542 136.396 44.6145 137.806 42.4768 139.727C40.3391 141.648 38.5454 144.044 37.1981 146.777C35.8508 149.511 34.9763 152.529 34.6246 155.658C34.2729 158.787 34.4508 161.968 35.1482 165.016C35.8451 168.066 37.048 170.925 38.6882 173.429C40.3285 175.934 42.3738 178.036 44.7076 179.614C47.0413 181.193 49.6176 182.218 52.2894 182.63C54.9613 183.042 57.6762 182.834 60.2794 182.016L113.24 165.393C118.496 163.743 124.096 164.607 128.809 167.795C133.521 170.982 136.96 176.232 138.369 182.389C139.066 185.438 139.244 188.618 138.892 191.747C138.541 194.877 137.666 197.894 136.319 200.628C134.972 203.361 133.178 205.757 131.04 207.678C128.903 209.6 126.463 211.009 123.86 211.826L33.2077 240.281C27.9515 241.93 23.47 245.959 20.7491 251.48C18.0283 257 17.2908 263.561 18.699 269.718C19.3963 272.767 20.5994 275.625 22.2397 278.129C23.88 280.633 25.9252 282.734 28.2587 284.313C30.5922 285.891 33.1682 286.916 35.8396 287.327C38.511 287.74 41.2256 287.531 43.8282 286.714L100.402 268.956C105.658 267.306 111.259 268.17 115.972 271.358C120.684 274.545 124.123 279.794 125.531 285.952C126.229 289.001 126.407 292.18 126.055 295.31C125.703 298.44 124.829 301.457 123.482 304.19C122.134 306.924 120.341 309.32 118.203 311.241C116.065 313.163 113.625 314.572 111.022 315.389L107.009 316.649C104.405 317.466 101.964 318.876 99.826 320.799C97.6878 322.721 95.8938 325.119 94.5468 327.854C93.1998 330.589 92.3259 333.608 91.9751 336.739C91.6249 339.87 91.8043 343.051 92.5031 346.1C93.2003 349.149 94.4037 352.008 96.0438 354.512C97.684 357.016 99.7292 359.117 102.063 360.696C104.396 362.274 106.972 363.298 109.644 363.711C112.315 364.123 115.03 363.914 117.632 363.098L121.439 361.903C124.042 361.086 126.756 360.878 129.428 361.29C132.099 361.702 134.675 362.726 137.008 364.304C139.342 365.883 141.387 367.984 143.027 370.488C144.667 372.992 145.871 375.851 146.568 378.899C147.265 381.948 147.443 385.128 147.091 388.258C146.74 391.387 145.866 394.405 144.518 397.138C143.171 399.872 141.378 402.268 139.24 404.189C137.102 406.111 134.662 407.52 132.06 408.337L75.6941 426.029C70.4382 427.678 65.9567 431.707 63.2361 437.228C60.5154 442.748 59.778 449.309 61.1865 455.466C62.5949 461.623 66.034 466.874 70.7466 470.06C75.4592 473.248 81.0593 474.111 86.3157 472.462L189.31 440.133C191.912 439.316 194.627 439.108 197.298 439.519C199.97 439.931 202.546 440.956 204.879 442.534C207.213 444.112 209.258 446.213 210.898 448.717C212.538 451.222 213.742 454.08 214.439 457.129C215.137 460.178 215.314 463.358 214.963 466.488C214.611 469.618 213.736 472.636 212.389 475.369C211.041 478.103 209.247 480.499 207.11 482.42C204.971 484.342 202.531 485.751 199.929 486.567L183.422 491.748C178.166 493.398 173.685 497.427 170.964 502.947C168.243 508.467 167.506 515.028 168.914 521.186C169.611 524.235 170.815 527.092 172.455 529.597C174.095 532.101 176.14 534.202 178.474 535.78C180.807 537.359 183.383 538.382 186.055 538.794C188.726 539.207 191.441 538.998 194.044 538.181L456.294 455.863C461.55 454.214 466.031 450.185 468.752 444.664C471.473 439.144 472.21 432.583 470.801 426.426C470.104 423.377 468.901 420.518 467.26 418.015C465.62 415.51 463.575 413.409 461.242 411.831C458.908 410.253 456.332 409.228 453.661 408.816C450.989 408.404 448.275 408.613 445.672 409.429L437.958 411.852C432.702 413.501 427.102 412.638 422.389 409.452C417.676 406.265 414.237 401.017 412.828 394.861C412.131 391.812 411.953 388.631 412.305 385.502C412.657 382.373 413.532 379.355 414.88 376.621C416.227 373.888 418.021 371.492 420.159 369.57C422.296 367.65 424.737 366.24 427.34 365.424L478.069 349.498C480.671 348.681 483.111 347.271 485.248 345.35C487.386 343.429 489.18 341.032 490.527 338.299C491.875 335.566 492.749 332.548 493.1 329.419C493.452 326.289 493.274 323.109 492.577 320.06C491.88 317.012 490.677 314.153 489.037 311.649C487.396 309.145 485.351 307.044 483.017 305.465C480.684 303.887 478.108 302.862 475.437 302.451C472.765 302.039 470.051 302.247 467.448 303.064L395.517 325.64C392.914 326.456 390.2 326.665 387.528 326.253C384.857 325.841 382.281 324.817 379.948 323.238C377.614 321.66 375.569 319.559 373.928 317.055C372.288 314.55 371.085 311.693 370.388 308.644C368.981 302.486 369.719 295.927 372.44 290.408C375.161 284.888 379.642 280.861 384.897 279.211L435.829 263.224C438.432 262.408 440.872 260.998 443.009 259.077C445.147 257.155 446.941 254.759 448.288 252.026C449.635 249.292 450.51 246.275 450.861 243.145C451.213 240.015 451.034 236.836 450.337 233.787C449.641 230.737 448.438 227.877 446.798 225.372C445.159 222.867 443.113 220.765 440.78 219.186C438.446 217.606 435.87 216.581 433.198 216.169C430.526 215.756 427.811 215.964 425.208 216.781L419.062 218.71C413.806 220.36 408.205 219.497 403.493 216.309C398.78 213.122 395.341 207.873 393.933 201.715C393.235 198.666 393.057 195.486 393.408 192.356C393.759 189.227 394.634 186.208 395.981 183.475C397.328 180.741 399.122 178.345 401.259 176.423C403.397 174.501 405.837 173.091 408.44 172.274Z" fill="url(#paint0_linear_205_998)" fill-opacity="0.3"/>
<path d="M487.181 188.826L480.847 190.522C468.006 193.96 460.385 207.151 463.826 219.984L463.827 219.988C467.268 232.821 480.468 240.437 493.309 236.998L499.643 235.302C512.485 231.863 520.105 218.673 516.664 205.84L516.663 205.835C513.223 193.003 500.023 185.387 487.181 188.826Z" fill="#05A66B" fill-opacity="0.3"/>
<g style="mix-blend-mode:multiply" opacity="0.33">
<g style="mix-blend-mode:multiply" opacity="0.33">
<path d="M50.5606 391.492L59.3332 379.774C59.4526 379.614 59.6354 379.505 59.8408 379.472C60.0461 379.438 60.2576 379.482 60.4288 379.593L69.3822 385.447C69.5534 385.559 69.67 385.73 69.7062 385.921C69.7423 386.113 69.6953 386.311 69.5759 386.471L60.8033 398.188C59.9397 399.342 58.6204 400.128 57.1367 400.373C55.6523 400.619 54.1249 400.302 52.8902 399.495L51.9591 398.886C50.7244 398.079 49.8833 396.847 49.6213 395.46C49.3587 394.073 49.697 392.646 50.5606 391.492Z" fill="#4E4E4E"/>
<path d="M50.5606 391.492L59.3332 379.774C59.4526 379.614 59.6354 379.505 59.8408 379.472C60.0461 379.438 60.2576 379.482 60.4288 379.593L69.3822 385.447C69.5534 385.559 69.67 385.73 69.7062 385.921C69.7423 386.113 69.6953 386.311 69.5759 386.471L60.8033 398.188C59.9397 399.342 58.6204 400.128 57.1367 400.373C55.6523 400.619 54.1249 400.302 52.8902 399.495L51.9591 398.886C50.7244 398.079 49.8833 396.847 49.6213 395.46C49.3587 394.073 49.697 392.646 50.5606 391.492Z" stroke="#46505C" stroke-width="10.1739" stroke-linecap="round" stroke-linejoin="round"/>
</g>
<g style="mix-blend-mode:multiply" opacity="0.33">
<path d="M50.5606 391.492L59.3332 379.774C59.4526 379.614 59.6354 379.505 59.8408 379.472C60.0461 379.438 60.2576 379.482 60.4288 379.593L69.3822 385.447C69.5534 385.559 69.67 385.73 69.7062 385.921C69.7423 386.113 69.6953 386.311 69.5759 386.471L60.8033 398.188C59.9397 399.342 58.6204 400.128 57.1367 400.373C55.6523 400.619 54.1249 400.302 52.8902 399.495L51.9591 398.886C50.7244 398.079 49.8833 396.847 49.6213 395.46C49.3587 394.073 49.697 392.646 50.5606 391.492Z" fill="#4E4E4E"/>
<path d="M50.5606 391.492L59.3332 379.774C59.4526 379.614 59.6354 379.505 59.8408 379.472C60.0461 379.438 60.2576 379.482 60.4288 379.593L69.3822 385.447C69.5534 385.559 69.67 385.73 69.7062 385.921C69.7423 386.113 69.6953 386.311 69.5759 386.471L60.8033 398.188C59.9397 399.342 58.6204 400.128 57.1367 400.373C55.6523 400.619 54.1249 400.302 52.8902 399.495L51.9591 398.886C50.7244 398.079 49.8833 396.847 49.6213 395.46C49.3587 394.073 49.697 392.646 50.5606 391.492Z" stroke="#46505C" stroke-width="10.1739" stroke-linecap="round" stroke-linejoin="round"/>
</g>
<g style="mix-blend-mode:multiply" opacity="0.33">
<path d="M84.2472 391.688C104.702 391.688 121.284 376.192 121.284 357.077C121.284 337.962 104.702 322.466 84.2472 322.466C63.7919 322.466 47.21 337.962 47.21 357.077C47.21 376.192 63.7919 391.688 84.2472 391.688Z" fill="#4E4E4E"/>
<path d="M84.2472 391.688C104.702 391.688 121.284 376.192 121.284 357.077C121.284 337.962 104.702 322.466 84.2472 322.466C63.7919 322.466 47.21 337.962 47.21 357.077C47.21 376.192 63.7919 391.688 84.2472 391.688Z" stroke="#46505C" stroke-width="10.1739" stroke-linecap="round" stroke-linejoin="round"/>
</g>
<g style="mix-blend-mode:multiply" opacity="0.33">
<path d="M84.2472 391.688C104.702 391.688 121.284 376.192 121.284 357.077C121.284 337.962 104.702 322.466 84.2472 322.466C63.7919 322.466 47.21 337.962 47.21 357.077C47.21 376.192 63.7919 391.688 84.2472 391.688Z" fill="#4E4E4E"/>
<path d="M84.2472 391.688C104.702 391.688 121.284 376.192 121.284 357.077C121.284 337.962 104.702 322.466 84.2472 322.466C63.7919 322.466 47.21 337.962 47.21 357.077C47.21 376.192 63.7919 391.688 84.2472 391.688Z" stroke="#46505C" stroke-width="10.1739" stroke-linecap="round" stroke-linejoin="round"/>
</g>
<g style="mix-blend-mode:multiply" opacity="0.33">
<path d="M84.2474 384.015C100.168 384.015 113.074 371.955 113.074 357.077C113.074 342.199 100.168 330.138 84.2474 330.138C68.3264 330.138 55.4199 342.199 55.4199 357.077C55.4199 371.955 68.3264 384.015 84.2474 384.015Z" fill="#4E4E4E"/>
<path d="M84.2474 384.015C100.168 384.015 113.074 371.955 113.074 357.077C113.074 342.199 100.168 330.138 84.2474 330.138C68.3264 330.138 55.4199 342.199 55.4199 357.077C55.4199 371.955 68.3264 384.015 84.2474 384.015Z" stroke="#46505C" stroke-width="10.1739" stroke-linecap="round" stroke-linejoin="round"/>
</g>
<g style="mix-blend-mode:multiply" opacity="0.33">
<path d="M84.2474 384.015C100.168 384.015 113.074 371.955 113.074 357.077C113.074 342.199 100.168 330.138 84.2474 330.138C68.3264 330.138 55.4199 342.199 55.4199 357.077C55.4199 371.955 68.3264 384.015 84.2474 384.015Z" fill="#4E4E4E"/>
<path d="M84.2474 384.015C100.168 384.015 113.074 371.955 113.074 357.077C113.074 342.199 100.168 330.138 84.2474 330.138C68.3264 330.138 55.4199 342.199 55.4199 357.077C55.4199 371.955 68.3264 384.015 84.2474 384.015Z" stroke="#46505C" stroke-width="10.1739" stroke-linecap="round" stroke-linejoin="round"/>
</g>
<g style="mix-blend-mode:multiply" opacity="0.33">
<path d="M65.4023 351.485C65.7877 350.673 66.2052 349.877 66.6301 349.098C68.5627 345.558 70.8746 341.888 74.5637 339.72C77.6962 337.878 82.0763 337.156 85.4714 338.786C88.4163 340.199 90.1906 343.105 92.8777 344.913C94.6881 345.95 96.5695 346.875 98.5096 347.681C100.469 348.505 102.019 349.994 102.845 351.847C103.755 354.443 102.255 357.215 102.24 359.947C102.235 361.455 102.683 362.933 103.533 364.215C104.07 364.815 104.414 365.544 104.528 366.318C104.446 366.814 104.221 367.279 103.878 367.665C103.534 368.051 103.085 368.341 102.578 368.507C99.5922 369.825 96.105 369.349 92.8217 369.018C89.5385 368.686 85.9026 368.616 83.3069 370.524C82.2441 371.44 81.2598 372.431 80.3634 373.491C79.9848 374.021 79.4848 374.467 78.9002 374.796C78.3156 375.125 77.66 375.33 76.9813 375.394C76.3018 375.459 75.6163 375.382 74.9723 375.17C74.3283 374.958 73.743 374.616 73.2573 374.167C70.9039 372.325 68.8629 370.161 67.2018 367.749C65.4568 365.708 64.2242 363.328 63.5945 360.782C63.0045 357.622 63.9881 354.459 65.4023 351.485Z" fill="#4E4E4E"/>
<path d="M65.4023 351.485C65.7877 350.673 66.2052 349.877 66.6301 349.098C68.5627 345.558 70.8746 341.888 74.5637 339.72C77.6962 337.878 82.0763 337.156 85.4714 338.786C88.4163 340.199 90.1906 343.105 92.8777 344.913C94.6881 345.95 96.5695 346.875 98.5096 347.681C100.469 348.505 102.019 349.994 102.845 351.847C103.755 354.443 102.255 357.215 102.24 359.947C102.235 361.455 102.683 362.933 103.533 364.215C104.07 364.815 104.414 365.544 104.528 366.318C104.446 366.814 104.221 367.279 103.878 367.665C103.534 368.051 103.085 368.341 102.578 368.507C99.5922 369.825 96.105 369.349 92.8217 369.018C89.5385 368.686 85.9026 368.616 83.3069 370.524C82.2441 371.44 81.2598 372.431 80.3634 373.491C79.9848 374.021 79.4848 374.467 78.9002 374.796C78.3156 375.125 77.66 375.33 76.9813 375.394C76.3018 375.459 75.6163 375.382 74.9723 375.17C74.3283 374.958 73.743 374.616 73.2573 374.167C70.9039 372.325 68.8629 370.161 67.2018 367.749C65.4568 365.708 64.2242 363.328 63.5945 360.782C63.0045 357.622 63.9881 354.459 65.4023 351.485Z" stroke="#46505C" stroke-width="10.1739" stroke-linecap="round" stroke-linejoin="round"/>
</g>
<g style="mix-blend-mode:multiply" opacity="0.33">
<path d="M90.0772 377.471C91.0656 377.471 91.8665 376.723 91.8665 375.799C91.8665 374.876 91.0656 374.127 90.0772 374.127C89.0887 374.127 88.2878 374.876 88.2878 375.799C88.2878 376.723 89.0887 377.471 90.0772 377.471Z" fill="#4E4E4E"/>
<path d="M90.0772 377.471C91.0656 377.471 91.8665 376.723 91.8665 375.799C91.8665 374.876 91.0656 374.127 90.0772 374.127C89.0887 374.127 88.2878 374.876 88.2878 375.799C88.2878 376.723 89.0887 377.471 90.0772 377.471Z" stroke="#46505C" stroke-width="10.1739" stroke-linecap="round" stroke-linejoin="round"/>
</g>
<g style="mix-blend-mode:multiply" opacity="0.33">
<path d="M85.4192 377.574C86.1034 377.574 86.6587 377.055 86.6587 376.416C86.6587 375.776 86.1034 375.258 85.4192 375.258C84.735 375.258 84.1804 375.776 84.1804 376.416C84.1804 377.055 84.735 377.574 85.4192 377.574Z" fill="#4E4E4E"/>
<path d="M85.4192 377.574C86.1034 377.574 86.6587 377.055 86.6587 376.416C86.6587 375.776 86.1034 375.258 85.4192 375.258C84.735 375.258 84.1804 375.776 84.1804 376.416C84.1804 377.055 84.735 377.574 85.4192 377.574Z" stroke="#46505C" stroke-width="10.1739" stroke-linecap="round" stroke-linejoin="round"/>
</g>
<g style="mix-blend-mode:multiply" opacity="0.33">
<path d="M94.3056 375.293C94.9257 375.293 95.4292 374.823 95.4292 374.243C95.4292 373.664 94.9257 373.193 94.3056 373.193C93.6856 373.193 93.1821 373.664 93.1821 374.243C93.1821 374.823 93.6856 375.293 94.3056 375.293Z" fill="#4E4E4E"/>
<path d="M94.3056 375.293C94.9257 375.293 95.4292 374.823 95.4292 374.243C95.4292 373.664 94.9257 373.193 94.3056 373.193C93.6856 373.193 93.1821 373.664 93.1821 374.243C93.1821 374.823 93.6856 375.293 94.3056 375.293Z" stroke="#46505C" stroke-width="10.1739" stroke-linecap="round" stroke-linejoin="round"/>
</g>
<g style="mix-blend-mode:multiply" opacity="0.33">
<path d="M81.4995 377.601C81.9436 377.601 82.3045 377.265 82.3045 376.849C82.3045 376.434 81.9436 376.097 81.4995 376.097C81.0548 376.097 80.6946 376.434 80.6946 376.849C80.6946 377.265 81.0548 377.601 81.4995 377.601Z" fill="#4E4E4E"/>
<path d="M81.4995 377.601C81.9436 377.601 82.3045 377.265 82.3045 376.849C82.3045 376.434 81.9436 376.097 81.4995 376.097C81.0548 376.097 80.6946 376.434 80.6946 376.849C80.6946 377.265 81.0548 377.601 81.4995 377.601Z" stroke="#46505C" stroke-width="10.1739" stroke-linecap="round" stroke-linejoin="round"/>
</g>
<g style="mix-blend-mode:multiply" opacity="0.33">
<path d="M97.8537 373.594C98.1252 373.594 98.3449 373.388 98.3449 373.135C98.3449 372.881 98.1252 372.675 97.8537 372.675C97.5829 372.675 97.3625 372.881 97.3625 373.135C97.3625 373.388 97.5829 373.594 97.8537 373.594Z" fill="#4E4E4E"/>
<path d="M97.8537 373.594C98.1252 373.594 98.3449 373.388 98.3449 373.135C98.3449 372.881 98.1252 372.675 97.8537 372.675C97.5829 372.675 97.3625 372.881 97.3625 373.135C97.3625 373.388 97.5829 373.594 97.8537 373.594Z" stroke="#46505C" stroke-width="10.1739" stroke-linecap="round" stroke-linejoin="round"/>
</g>
<g style="mix-blend-mode:multiply" opacity="0.33">
<path d="M61.8777 351.79C62.5148 351.79 63.0306 351.308 63.0306 350.713C63.0306 350.117 62.5148 349.635 61.8777 349.635C61.2413 349.635 60.7249 350.117 60.7249 350.713C60.7249 351.308 61.2413 351.79 61.8777 351.79Z" fill="#4E4E4E"/>
<path d="M61.8777 351.79C62.5148 351.79 63.0306 351.308 63.0306 350.713C63.0306 350.117 62.5148 349.635 61.8777 349.635C61.2413 349.635 60.7249 350.117 60.7249 350.713C60.7249 351.308 61.2413 351.79 61.8777 351.79Z" stroke="#46505C" stroke-width="10.1739" stroke-linecap="round" stroke-linejoin="round"/>
</g>
<g style="mix-blend-mode:multiply" opacity="0.33">
<path d="M93.2629 339.19C93.8618 339.19 94.3475 338.737 94.3475 338.177C94.3475 337.617 93.8618 337.163 93.2629 337.163C92.6639 337.163 92.1782 337.617 92.1782 338.177C92.1782 338.737 92.6639 339.19 93.2629 339.19Z" fill="#4E4E4E"/>
<path d="M93.2629 339.19C93.8618 339.19 94.3475 338.737 94.3475 338.177C94.3475 337.617 93.8618 337.163 93.2629 337.163C92.6639 337.163 92.1782 337.617 92.1782 338.177C92.1782 338.737 92.6639 339.19 93.2629 339.19Z" stroke="#46505C" stroke-width="10.1739" stroke-linecap="round" stroke-linejoin="round"/>
</g>
<g style="mix-blend-mode:multiply" opacity="0.33">
<path d="M100.313 344.088C100.855 344.088 101.295 343.678 101.295 343.17C101.295 342.663 100.855 342.253 100.313 342.253C99.7706 342.253 99.3306 342.663 99.3306 343.17C99.3306 343.678 99.7706 344.088 100.313 344.088Z" fill="#4E4E4E"/>
<path d="M100.313 344.088C100.855 344.088 101.295 343.678 101.295 343.17C101.295 342.663 100.855 342.253 100.313 342.253C99.7706 342.253 99.3306 342.663 99.3306 343.17C99.3306 343.678 99.7706 344.088 100.313 344.088Z" stroke="#46505C" stroke-width="10.1739" stroke-linecap="round" stroke-linejoin="round"/>
</g>
<g style="mix-blend-mode:multiply" opacity="0.33">
<path d="M101.119 346.173C101.356 346.173 101.549 345.993 101.549 345.771C101.549 345.549 101.356 345.369 101.119 345.369C100.882 345.369 100.689 345.549 100.689 345.771C100.689 345.993 100.882 346.173 101.119 346.173Z" fill="#4E4E4E"/>
<path d="M101.119 346.173C101.356 346.173 101.549 345.993 101.549 345.771C101.549 345.549 101.356 345.369 101.119 345.369C100.882 345.369 100.689 345.549 100.689 345.771C100.689 345.993 100.882 346.173 101.119 346.173Z" stroke="#46505C" stroke-width="10.1739" stroke-linecap="round" stroke-linejoin="round"/>
</g>
</g>
<path d="M42.5125 382.958L51.2906 371.237C51.4106 371.077 51.5928 370.969 51.7981 370.934C52.0041 370.901 52.2156 370.945 52.3861 371.056L61.3429 376.915C61.5141 377.026 61.6308 377.197 61.6669 377.389C61.7031 377.581 61.656 377.779 61.5366 377.939L52.7579 389.66C51.8936 390.813 50.5736 391.599 49.0892 391.844C47.6042 392.089 46.0761 391.774 44.8414 390.965L43.9096 390.356C42.6749 389.548 41.8338 388.315 41.5711 386.927C41.3092 385.54 41.6475 384.112 42.5125 382.958Z" fill="white" stroke="#E6F3FF" stroke-width="5.08695" stroke-miterlimit="10"/>
<path opacity="0.18" d="M52.3861 371.059C52.2149 370.948 52.0034 370.904 51.7981 370.938C51.5928 370.972 51.4106 371.081 51.2913 371.241L47.3381 376.517C48.8539 377.867 50.4761 379.107 52.1917 380.229C53.9067 381.35 55.7089 382.35 57.5828 383.22L61.536 377.942C61.5953 377.863 61.6376 377.773 61.6601 377.68C61.6826 377.585 61.6847 377.488 61.6669 377.393C61.6485 377.298 61.611 377.207 61.5551 377.125C61.4998 377.044 61.4275 376.973 61.3429 376.919L52.3861 371.059Z" fill="#4E4E4E" stroke="#46505C" stroke-width="10.1739" stroke-linecap="round" stroke-linejoin="round"/>
<path d="M42.5125 382.958L51.2906 371.237C51.4106 371.077 51.5928 370.969 51.7981 370.934C52.0041 370.901 52.2156 370.945 52.3861 371.056L61.3429 376.915C61.5141 377.026 61.6308 377.197 61.6669 377.389C61.7031 377.581 61.656 377.779 61.5366 377.939L52.7579 389.66C51.8936 390.813 50.5736 391.599 49.0892 391.844C47.6042 392.089 46.0761 391.774 44.8414 390.965L43.9096 390.356C42.6749 389.548 41.8338 388.315 41.5711 386.927C41.3092 385.54 41.6475 384.112 42.5125 382.958Z" stroke="#46505C" stroke-width="10.1739" stroke-linecap="round" stroke-linejoin="round"/>
<path d="M76.0366 383.002C96.4912 383.002 113.073 367.506 113.073 348.391C113.073 329.276 96.4912 313.78 76.0366 313.78C55.5813 313.78 39 329.276 39 348.391C39 367.506 55.5813 383.002 76.0366 383.002Z" fill="white" stroke="#E6F3FF" stroke-width="5.08695" stroke-miterlimit="10"/>
<path d="M76.0366 383.002C96.4912 383.002 113.073 367.506 113.073 348.391C113.073 329.276 96.4912 313.78 76.0366 313.78C55.5813 313.78 39 329.276 39 348.391C39 367.506 55.5813 383.002 76.0366 383.002Z" stroke="#46505C" stroke-width="10.1739" stroke-linecap="round" stroke-linejoin="round"/>
<path d="M76.036 375.33C91.957 375.33 104.863 363.269 104.863 348.391C104.863 333.513 91.957 321.452 76.036 321.452C60.115 321.452 47.2092 333.513 47.2092 348.391C47.2092 363.269 60.115 375.33 76.036 375.33Z" fill="#604242"/>
<path d="M76.036 375.33C91.957 375.33 104.863 363.269 104.863 348.391C104.863 333.513 91.957 321.452 76.036 321.452C60.115 321.452 47.2092 333.513 47.2092 348.391C47.2092 363.269 60.115 375.33 76.036 375.33Z" stroke="white" stroke-width="5.08695" stroke-linecap="round" stroke-linejoin="round"/>
<g style="mix-blend-mode:multiply" opacity="0.33">
<path d="M57.1911 342.798C57.5765 341.988 57.994 341.191 58.419 340.412C60.3522 336.873 62.6647 333.204 66.3525 331.034C69.4864 329.191 73.8658 328.471 77.2603 330.1C80.2052 331.513 81.9801 334.42 84.6665 336.227C86.4776 337.262 88.3597 338.185 90.2998 338.989C92.2576 339.814 93.8074 341.301 94.6349 343.152C95.5449 345.75 94.0448 348.521 94.0292 351.252C94.0244 352.76 94.4719 354.239 95.3218 355.521C95.8587 356.12 96.2039 356.849 96.3178 357.623C96.2366 358.119 96.0115 358.585 95.6684 358.971C95.3246 359.357 94.875 359.648 94.3682 359.813C91.381 361.13 87.8945 360.655 84.6106 360.323C81.3273 359.99 77.6928 359.922 75.0958 361.83C74.0336 362.745 73.0493 363.737 72.1522 364.796C71.7736 365.327 71.2736 365.772 70.689 366.102C70.1044 366.43 69.4495 366.635 68.7701 366.699C68.0913 366.764 67.4051 366.688 66.7618 366.476C66.1178 366.264 65.5319 365.922 65.0462 365.474C62.6934 363.631 60.6517 361.467 58.9913 359.054C57.247 357.015 56.0157 354.637 55.3868 352.093C54.7878 348.936 55.7783 345.772 57.1911 342.798Z" fill="#604242"/>
</g>
<g style="mix-blend-mode:multiply" opacity="0.33">
<path d="M81.8664 368.784C82.8549 368.784 83.6557 368.035 83.6557 367.111C83.6557 366.188 82.8549 365.439 81.8664 365.439C80.878 365.439 80.0764 366.188 80.0764 367.111C80.0764 368.035 80.878 368.784 81.8664 368.784Z" fill="#604242"/>
</g>
<g style="mix-blend-mode:multiply" opacity="0.33">
<path d="M77.2085 368.887C77.8927 368.887 78.448 368.369 78.448 367.729C78.448 367.09 77.8927 366.571 77.2085 366.571C76.5243 366.571 75.969 367.09 75.969 367.729C75.969 368.369 76.5243 368.887 77.2085 368.887Z" fill="#604242"/>
</g>
<g style="mix-blend-mode:multiply" opacity="0.33">
<path d="M86.095 366.607C86.715 366.607 87.2178 366.137 87.2178 365.557C87.2178 364.977 86.715 364.508 86.095 364.508C85.4742 364.508 84.9714 364.977 84.9714 365.557C84.9714 366.137 85.4742 366.607 86.095 366.607Z" fill="#604242"/>
</g>
<g style="mix-blend-mode:multiply" opacity="0.33">
<path d="M73.2883 368.917C73.7331 368.917 74.0933 368.58 74.0933 368.164C74.0933 367.749 73.7331 367.412 73.2883 367.412C72.8436 367.412 72.4834 367.749 72.4834 368.164C72.4834 368.58 72.8436 368.917 73.2883 368.917Z" fill="#604242"/>
</g>
<g style="mix-blend-mode:multiply" opacity="0.33">
<path d="M89.643 364.907C89.9145 364.907 90.1342 364.701 90.1342 364.448C90.1342 364.194 89.9145 363.988 89.643 363.988C89.3715 363.988 89.1519 364.194 89.1519 364.448C89.1519 364.701 89.3715 364.907 89.643 364.907Z" fill="#604242"/>
</g>
<g style="mix-blend-mode:multiply" opacity="0.33">
<path d="M53.667 343.103C54.3035 343.103 54.8199 342.621 54.8199 342.026C54.8199 341.431 54.3035 340.948 53.667 340.948C53.0299 340.948 52.5142 341.431 52.5142 342.026C52.5142 342.621 53.0299 343.103 53.667 343.103Z" fill="#604242"/>
</g>
<g style="mix-blend-mode:multiply" opacity="0.33">
<path d="M85.0519 330.503C85.6509 330.503 86.1366 330.05 86.1366 329.49C86.1366 328.93 85.6509 328.476 85.0519 328.476C84.453 328.476 83.9673 328.93 83.9673 329.49C83.9673 330.05 84.453 330.503 85.0519 330.503Z" fill="#604242"/>
</g>
<g style="mix-blend-mode:multiply" opacity="0.33">
<path d="M92.1022 335.401C92.6445 335.401 93.0845 334.99 93.0845 334.483C93.0845 333.976 92.6445 333.565 92.1022 333.565C91.5599 333.565 91.1199 333.976 91.1199 334.483C91.1199 334.99 91.5599 335.401 92.1022 335.401Z" fill="#604242"/>
</g>
<g style="mix-blend-mode:multiply" opacity="0.33">
<path d="M92.9085 337.486C93.1459 337.486 93.3383 337.306 93.3383 337.084C93.3383 336.862 93.1459 336.682 92.9085 336.682C92.6711 336.682 92.4788 336.862 92.4788 337.084C92.4788 337.306 92.6711 337.486 92.9085 337.486Z" fill="#604242"/>
</g>
<path d="M78.563 352.74C79.8188 352.74 80.8366 351.789 80.8366 350.615C80.8366 349.442 79.8188 348.49 78.563 348.49C77.3071 348.49 76.2893 349.442 76.2893 350.615C76.2893 351.789 77.3071 352.74 78.563 352.74Z" fill="#604242"/>
<path d="M71.1565 346.174C73.3545 346.174 75.1356 344.509 75.1356 342.455C75.1356 340.401 73.3545 338.736 71.1565 338.736C68.9586 338.736 67.1775 340.401 67.1775 342.455C67.1775 344.509 68.9586 346.174 71.1565 346.174Z" fill="#604242"/>
<g style="mix-blend-mode:multiply" opacity="0.33">
<g style="mix-blend-mode:multiply" opacity="0.33">
<path d="M433.135 236.937H169.365C160.574 236.937 153.448 243.597 153.448 251.812V270.382C153.448 278.597 160.574 285.256 169.365 285.256H433.135C441.925 285.256 449.051 278.597 449.051 270.382V251.812C449.051 243.597 441.925 236.937 433.135 236.937Z" fill="#4E4E4E"/>
<path d="M433.135 236.937H169.365C160.574 236.937 153.448 243.597 153.448 251.812V270.382C153.448 278.597 160.574 285.256 169.365 285.256H433.135C441.925 285.256 449.051 278.597 449.051 270.382V251.812C449.051 243.597 441.925 236.937 433.135 236.937Z" stroke="black" stroke-width="2.54348" stroke-linecap="round" stroke-linejoin="round"/>
</g>
<g style="mix-blend-mode:multiply" opacity="0.33">
<path d="M433.135 236.937H169.365C160.574 236.937 153.448 243.597 153.448 251.812V270.382C153.448 278.597 160.574 285.256 169.365 285.256H433.135C441.925 285.256 449.051 278.597 449.051 270.382V251.812C449.051 243.597 441.925 236.937 433.135 236.937Z" fill="#4E4E4E"/>
</g>
<g style="mix-blend-mode:multiply" opacity="0.17">
<path d="M169.364 236.937H433.134C437.355 236.937 441.403 238.504 444.389 241.294C447.374 244.083 449.051 247.867 449.051 251.812V273.526C449.051 275.935 448.027 278.246 446.204 279.949C444.381 281.652 441.909 282.61 439.331 282.61H163.168C160.59 282.61 158.118 281.652 156.296 279.949C154.473 278.246 153.448 275.935 153.448 273.526V251.812C153.448 247.867 155.126 244.083 158.111 241.294C161.095 238.504 165.144 236.937 169.366 236.937H169.364Z" fill="#4E4E4E"/>
</g>
<g style="mix-blend-mode:multiply" opacity="0.33">
<path d="M433.135 236.937H169.365C160.574 236.937 153.448 243.597 153.448 251.812V270.382C153.448 278.597 160.574 285.256 169.365 285.256H433.135C441.925 285.256 449.051 278.597 449.051 270.382V251.812C449.051 243.597 441.925 236.937 433.135 236.937Z" fill="#4E4E4E"/>
<path d="M433.135 236.937H169.365C160.574 236.937 153.448 243.597 153.448 251.812V270.382C153.448 278.597 160.574 285.256 169.365 285.256H433.135C441.925 285.256 449.051 278.597 449.051 270.382V251.812C449.051 243.597 441.925 236.937 433.135 236.937Z" stroke="#46505C" stroke-width="10.1739" stroke-linecap="round" stroke-linejoin="round"/>
</g>
<g style="mix-blend-mode:multiply" opacity="0.33">
<path d="M428.587 279.504V242.381H173.913V279.504H428.587Z" fill="#4E4E4E"/>
</g>
<g style="mix-blend-mode:multiply" opacity="0.33">
<path d="M428.587 279.504V242.381H173.913V279.504H428.587Z" fill="#4E4E4E"/>
<path d="M428.587 279.504V242.381H173.913V279.504H428.587Z" stroke="#46505C" stroke-width="2.54348" stroke-linecap="round" stroke-linejoin="round"/>
</g>
<g style="mix-blend-mode:multiply" opacity="0.33">
<path d="M433.135 285.256H169.367C160.576 285.256 153.449 291.915 153.449 300.13V453.125C153.449 461.34 160.576 468 169.367 468H433.135C441.926 468 449.053 461.34 449.053 453.125V300.13C449.053 291.915 441.926 285.256 433.135 285.256Z" fill="#4E4E4E"/>
</g>
<g style="mix-blend-mode:multiply" opacity="0.33">
<path d="M444.505 453.125V300.13C444.505 294.262 439.415 289.505 433.136 289.505H169.367C163.088 289.505 157.997 294.262 157.997 300.13V453.125C157.997 458.993 163.088 463.75 169.367 463.75H433.136C439.415 463.75 444.505 458.993 444.505 453.125Z" fill="#4E4E4E"/>
<path d="M444.505 453.125V300.13C444.505 294.262 439.415 289.505 433.136 289.505H169.367C163.088 289.505 157.997 294.262 157.997 300.13V453.125C157.997 458.993 163.088 463.75 169.367 463.75H433.136C439.415 463.75 444.505 458.993 444.505 453.125Z" stroke="#E6F3FF" stroke-width="5.08695" stroke-miterlimit="10"/>
</g>
<g style="mix-blend-mode:multiply" opacity="0.33">
<path d="M283.003 459.689H319.498C320.704 459.689 321.861 460.136 322.714 460.933C323.567 461.731 324.046 462.811 324.046 463.938V467.997H278.455V463.938C278.455 462.811 278.934 461.731 279.787 460.933C280.64 460.136 281.797 459.689 283.003 459.689Z" fill="#4E4E4E"/>
</g>
<g style="mix-blend-mode:multiply" opacity="0.33">
<path d="M433.135 285.256H169.367C160.576 285.256 153.449 291.915 153.449 300.13V453.125C153.449 461.34 160.576 468 169.367 468H433.135C441.926 468 449.053 461.34 449.053 453.125V300.13C449.053 291.915 441.926 285.256 433.135 285.256Z" fill="#4E4E4E"/>
<path d="M433.135 285.256H169.367C160.576 285.256 153.449 291.915 153.449 300.13V453.125C153.449 461.34 160.576 468 169.367 468H433.135C441.926 468 449.053 461.34 449.053 453.125V300.13C449.053 291.915 441.926 285.256 433.135 285.256Z" stroke="#46505C" stroke-width="10.1739" stroke-linecap="round" stroke-linejoin="round"/>
</g>
<g style="mix-blend-mode:multiply" opacity="0.33">
<path d="M428.587 299.515H173.913C172.029 299.515 170.503 300.942 170.503 302.702V394.074C170.503 395.834 172.029 397.261 173.913 397.261H428.587C430.47 397.261 431.998 395.834 431.998 394.074V302.702C431.998 300.942 430.47 299.515 428.587 299.515Z" fill="#4E4E4E"/>
</g>
<g style="mix-blend-mode:multiply" opacity="0.33">
<path d="M220.624 373.356H206.981C206.353 373.356 205.844 373.832 205.844 374.419V387.168C205.844 387.755 206.353 388.231 206.981 388.231H220.624C221.252 388.231 221.761 387.755 221.761 387.168V374.419C221.761 373.832 221.252 373.356 220.624 373.356Z" fill="#4E4E4E"/>
<path d="M220.624 373.356H206.981C206.353 373.356 205.844 373.832 205.844 374.419V387.168C205.844 387.755 206.353 388.231 206.981 388.231H220.624C221.252 388.231 221.761 387.755 221.761 387.168V374.419C221.761 373.832 221.252 373.356 220.624 373.356Z" stroke="#434750" stroke-width="2.54348" stroke-linecap="round" stroke-linejoin="round"/>
</g>
<g style="mix-blend-mode:multiply" opacity="0.33">
<path d="M196.021 373.356H182.378C181.751 373.356 181.242 373.832 181.242 374.419V387.168C181.242 387.755 181.751 388.231 182.378 388.231H196.021C196.65 388.231 197.159 387.755 197.159 387.168V374.419C197.159 373.832 196.65 373.356 196.021 373.356Z" fill="#4E4E4E"/>
<path d="M196.021 373.356H182.378C181.751 373.356 181.242 373.832 181.242 374.419V387.168C181.242 387.755 181.751 388.231 182.378 388.231H196.021C196.65 388.231 197.159 387.755 197.159 387.168V374.419C197.159 373.832 196.65 373.356 196.021 373.356Z" stroke="#434750" stroke-width="2.54348" stroke-linecap="round" stroke-linejoin="round"/>
</g>
<g style="mix-blend-mode:multiply" opacity="0.33">
<path d="M343.632 373.356H231.582C230.954 373.356 230.446 373.832 230.446 374.419V387.168C230.446 387.755 230.954 388.231 231.582 388.231H343.632C344.259 388.231 344.769 387.755 344.769 387.168V374.419C344.769 373.832 344.259 373.356 343.632 373.356Z" fill="#4E4E4E"/>
<path d="M343.632 373.356H231.582C230.954 373.356 230.446 373.832 230.446 374.419V387.168C230.446 387.755 230.954 388.231 231.582 388.231H343.632C344.259 388.231 344.769 387.755 344.769 387.168V374.419C344.769 373.832 344.259 373.356 343.632 373.356Z" stroke="#434750" stroke-width="2.54348" stroke-linecap="round" stroke-linejoin="round"/>
</g>
<g style="mix-blend-mode:multiply" opacity="0.33">
<path d="M368.234 373.356H354.591C353.962 373.356 353.453 373.832 353.453 374.419V387.168C353.453 387.755 353.962 388.231 354.591 388.231H368.234C368.861 388.231 369.371 387.755 369.371 387.168V374.419C369.371 373.832 368.861 373.356 368.234 373.356Z" fill="#4E4E4E"/>
<path d="M368.234 373.356H354.591C353.962 373.356 353.453 373.832 353.453 374.419V387.168C353.453 387.755 353.962 388.231 354.591 388.231H368.234C368.861 388.231 369.371 387.755 369.371 387.168V374.419C369.371 373.832 368.861 373.356 368.234 373.356Z" stroke="#434750" stroke-width="2.54348" stroke-linecap="round" stroke-linejoin="round"/>
</g>
<g style="mix-blend-mode:multiply" opacity="0.33">
<path d="M404.206 381.723H395.11C394.482 381.723 393.973 382.199 393.973 382.786V387.168C393.973 387.755 394.482 388.231 395.11 388.231H404.206C404.833 388.231 405.342 387.755 405.342 387.168V382.786C405.342 382.199 404.833 381.723 404.206 381.723Z" fill="#4E4E4E"/>
<path d="M404.206 381.723H395.11C394.482 381.723 393.973 382.199 393.973 382.786V387.168C393.973 387.755 394.482 388.231 395.11 388.231H404.206C404.833 388.231 405.342 387.755 405.342 387.168V382.786C405.342 382.199 404.833 381.723 404.206 381.723Z" stroke="#434750" stroke-width="2.54348" stroke-linecap="round" stroke-linejoin="round"/>
</g>
<g style="mix-blend-mode:multiply" opacity="0.33">
<path d="M404.206 373.356H395.11C394.482 373.356 393.973 373.832 393.973 374.419V378.801C393.973 379.388 394.482 379.864 395.11 379.864H404.206C404.833 379.864 405.342 379.388 405.342 378.801V374.419C405.342 373.832 404.833 373.356 404.206 373.356Z" fill="#4E4E4E"/>
<path d="M404.206 373.356H395.11C394.482 373.356 393.973 373.832 393.973 374.419V378.801C393.973 379.388 394.482 379.864 395.11 379.864H404.206C404.833 379.864 405.342 379.388 405.342 378.801V374.419C405.342 373.832 404.833 373.356 404.206 373.356Z" stroke="#434750" stroke-width="2.54348" stroke-linecap="round" stroke-linejoin="round"/>
</g>
<g style="mix-blend-mode:multiply" opacity="0.33">
<path d="M420.123 381.723H411.027C410.399 381.723 409.89 382.199 409.89 382.786V387.168C409.89 387.755 410.399 388.231 411.027 388.231H420.123C420.751 388.231 421.26 387.755 421.26 387.168V382.786C421.26 382.199 420.751 381.723 420.123 381.723Z" fill="#4E4E4E"/>
<path d="M420.123 381.723H411.027C410.399 381.723 409.89 382.199 409.89 382.786V387.168C409.89 387.755 410.399 388.231 411.027 388.231H420.123C420.751 388.231 421.26 387.755 421.26 387.168V382.786C421.26 382.199 420.751 381.723 420.123 381.723Z" stroke="#434750" stroke-width="2.54348" stroke-linecap="round" stroke-linejoin="round"/>
</g>
<g style="mix-blend-mode:multiply" opacity="0.33">
<path d="M388.289 381.723H379.193C378.565 381.723 378.056 382.199 378.056 382.786V387.168C378.056 387.755 378.565 388.231 379.193 388.231H388.289C388.916 388.231 389.425 387.755 389.425 387.168V382.786C389.425 382.199 388.916 381.723 388.289 381.723Z" fill="#4E4E4E"/>
<path d="M388.289 381.723H379.193C378.565 381.723 378.056 382.199 378.056 382.786V387.168C378.056 387.755 378.565 388.231 379.193 388.231H388.289C388.916 388.231 389.425 387.755 389.425 387.168V382.786C389.425 382.199 388.916 381.723 388.289 381.723Z" stroke="#434750" stroke-width="2.54348" stroke-linecap="round" stroke-linejoin="round"/>
</g>
<g style="mix-blend-mode:multiply" opacity="0.33">
<path d="M218.35 352.191H182.378C181.751 352.191 181.242 352.667 181.242 353.254V366.003C181.242 366.59 181.751 367.066 182.378 367.066H218.35C218.978 367.066 219.487 366.59 219.487 366.003V353.254C219.487 352.667 218.978 352.191 218.35 352.191Z" fill="#4E4E4E"/>
<path d="M218.35 352.191H182.378C181.751 352.191 181.242 352.667 181.242 353.254V366.003C181.242 366.59 181.751 367.066 182.378 367.066H218.35C218.978 367.066 219.487 366.59 219.487 366.003V353.254C219.487 352.667 218.978 352.191 218.35 352.191Z" stroke="#434750" stroke-width="2.54348" stroke-linecap="round" stroke-linejoin="round"/>
</g>
<g style="mix-blend-mode:multiply" opacity="0.33">
<path d="M243.157 352.191H229.514C228.885 352.191 228.376 352.667 228.376 353.254V366.003C228.376 366.59 228.885 367.066 229.514 367.066H243.157C243.784 367.066 244.294 366.59 244.294 366.003V353.254C244.294 352.667 243.784 352.191 243.157 352.191Z" fill="#4E4E4E"/>
<path d="M243.157 352.191H229.514C228.885 352.191 228.376 352.667 228.376 353.254V366.003C228.376 366.59 228.885 367.066 229.514 367.066H243.157C243.784 367.066 244.294 366.59 244.294 366.003V353.254C244.294 352.667 243.784 352.191 243.157 352.191Z" stroke="#434750" stroke-width="2.54348" stroke-linecap="round" stroke-linejoin="round"/>
</g>
<g style="mix-blend-mode:multiply" opacity="0.33">
<path d="M267.759 352.191H254.116C253.488 352.191 252.979 352.667 252.979 353.254V366.003C252.979 366.59 253.488 367.066 254.116 367.066H267.759C268.387 367.066 268.896 366.59 268.896 366.003V353.254C268.896 352.667 268.387 352.191 267.759 352.191Z" fill="#4E4E4E"/>
<path d="M267.759 352.191H254.116C253.488 352.191 252.979 352.667 252.979 353.254V366.003C252.979 366.59 253.488 367.066 254.116 367.066H267.759C268.387 367.066 268.896 366.59 268.896 366.003V353.254C268.896 352.667 268.387 352.191 267.759 352.191Z" stroke="#434750" stroke-width="2.54348" stroke-linecap="round" stroke-linejoin="round"/>
</g>
<g style="mix-blend-mode:multiply" opacity="0.33">
<path d="M292.36 352.191H278.717C278.09 352.191 277.58 352.667 277.58 353.254V366.003C277.58 366.59 278.09 367.066 278.717 367.066H292.36C292.988 367.066 293.498 366.59 293.498 366.003V353.254C293.498 352.667 292.988 352.191 292.36 352.191Z" fill="#4E4E4E"/>
<path d="M292.36 352.191H278.717C278.09 352.191 277.58 352.667 277.58 353.254V366.003C277.58 366.59 278.09 367.066 278.717 367.066H292.36C292.988 367.066 293.498 366.59 293.498 366.003V353.254C293.498 352.667 292.988 352.191 292.36 352.191Z" stroke="#434750" stroke-width="2.54348" stroke-linecap="round" stroke-linejoin="round"/>
</g>
<g style="mix-blend-mode:multiply" opacity="0.33">
<path d="M316.962 352.191H303.319C302.691 352.191 302.182 352.667 302.182 353.254V366.003C302.182 366.59 302.691 367.066 303.319 367.066H316.962C317.59 367.066 318.099 366.59 318.099 366.003V353.254C318.099 352.667 317.59 352.191 316.962 352.191Z" fill="#4E4E4E"/>
<path d="M316.962 352.191H303.319C302.691 352.191 302.182 352.667 302.182 353.254V366.003C302.182 366.59 302.691 367.066 303.319 367.066H316.962C317.59 367.066 318.099 366.59 318.099 366.003V353.254C318.099 352.667 317.59 352.191 316.962 352.191Z" stroke="#434750" stroke-width="2.54348" stroke-linecap="round" stroke-linejoin="round"/>
</g>
<g style="mix-blend-mode:multiply" opacity="0.33">
<path d="M341.564 352.191H327.92C327.293 352.191 326.783 352.667 326.783 353.254V366.003C326.783 366.59 327.293 367.066 327.92 367.066H341.564C342.192 367.066 342.701 366.59 342.701 366.003V353.254C342.701 352.667 342.192 352.191 341.564 352.191Z" fill="#4E4E4E"/>
<path d="M341.564 352.191H327.92C327.293 352.191 326.783 352.667 326.783 353.254V366.003C326.783 366.59 327.293 367.066 327.92 367.066H341.564C342.192 367.066 342.701 366.59 342.701 366.003V353.254C342.701 352.667 342.192 352.191 341.564 352.191Z" stroke="#434750" stroke-width="2.54348" stroke-linecap="round" stroke-linejoin="round"/>
</g>
<g style="mix-blend-mode:multiply" opacity="0.33">
<path d="M366.165 352.191H352.522C351.895 352.191 351.386 352.667 351.386 353.254V366.003C351.386 366.59 351.895 367.066 352.522 367.066H366.165C366.794 367.066 367.303 366.59 367.303 366.003V353.254C367.303 352.667 366.794 352.191 366.165 352.191Z" fill="#4E4E4E"/>
<path d="M366.165 352.191H352.522C351.895 352.191 351.386 352.667 351.386 353.254V366.003C351.386 366.59 351.895 367.066 352.522 367.066H366.165C366.794 367.066 367.303 366.59 367.303 366.003V353.254C367.303 352.667 366.794 352.191 366.165 352.191Z" stroke="#434750" stroke-width="2.54348" stroke-linecap="round" stroke-linejoin="round"/>
</g>
<g style="mix-blend-mode:multiply" opacity="0.33">
<path d="M420.122 352.191H379.193C378.565 352.191 378.056 352.667 378.056 353.254V366.003C378.056 366.59 378.565 367.066 379.193 367.066H420.122C420.751 367.066 421.259 366.59 421.259 366.003V353.254C421.259 352.667 420.751 352.191 420.122 352.191Z" fill="#4E4E4E"/>
<path d="M420.122 352.191H379.193C378.565 352.191 378.056 352.667 378.056 353.254V366.003C378.056 366.59 378.565 367.066 379.193 367.066H420.122C420.751 367.066 421.259 366.59 421.259 366.003V353.254C421.259 352.667 420.751 352.191 420.122 352.191Z" stroke="#434750" stroke-width="2.54348" stroke-linecap="round" stroke-linejoin="round"/>
</g>
<g style="mix-blend-mode:multiply" opacity="0.33">
<path d="M234.267 330.432H220.624C219.996 330.432 219.487 330.908 219.487 331.495V344.244C219.487 344.831 219.996 345.307 220.624 345.307H234.267C234.895 345.307 235.404 344.831 235.404 344.244V331.495C235.404 330.908 234.895 330.432 234.267 330.432Z" fill="#4E4E4E"/>
<path d="M234.267 330.432H220.624C219.996 330.432 219.487 330.908 219.487 331.495V344.244C219.487 344.831 219.996 345.307 220.624 345.307H234.267C234.895 345.307 235.404 344.831 235.404 344.244V331.495C235.404 330.908 234.895 330.432 234.267 330.432Z" stroke="#434750" stroke-width="2.54348" stroke-linecap="round" stroke-linejoin="round"/>
</g>
<g style="mix-blend-mode:multiply" opacity="0.33">
<path d="M209.665 330.432H182.378C181.751 330.432 181.242 330.908 181.242 331.495V344.244C181.242 344.831 181.751 345.307 182.378 345.307H209.665C210.293 345.307 210.802 344.831 210.802 344.244V331.495C210.802 330.908 210.293 330.432 209.665 330.432Z" fill="#4E4E4E"/>
<path d="M209.665 330.432H182.378C181.751 330.432 181.242 330.908 181.242 331.495V344.244C181.242 344.831 181.751 345.307 182.378 345.307H209.665C210.293 345.307 210.802 344.831 210.802 344.244V331.495C210.802 330.908 210.293 330.432 209.665 330.432Z" stroke="#434750" stroke-width="2.54348" stroke-linecap="round" stroke-linejoin="round"/>
</g>
<g style="mix-blend-mode:multiply" opacity="0.33">
<path d="M258.869 330.432H245.225C244.598 330.432 244.089 330.908 244.089 331.495V344.244C244.089 344.831 244.598 345.307 245.225 345.307H258.869C259.497 345.307 260.006 344.831 260.006 344.244V331.495C260.006 330.908 259.497 330.432 258.869 330.432Z" fill="#4E4E4E"/>
<path d="M258.869 330.432H245.225C244.598 330.432 244.089 330.908 244.089 331.495V344.244C244.089 344.831 244.598 345.307 245.225 345.307H258.869C259.497 345.307 260.006 344.831 260.006 344.244V331.495C260.006 330.908 259.497 330.432 258.869 330.432Z" stroke="#434750" stroke-width="2.54348" stroke-linecap="round" stroke-linejoin="round"/>
</g>
<g style="mix-blend-mode:multiply" opacity="0.33">
<path d="M283.471 330.432H269.828C269.199 330.432 268.69 330.908 268.69 331.495V344.244C268.69 344.831 269.199 345.307 269.828 345.307H283.471C284.098 345.307 284.607 344.831 284.607 344.244V331.495C284.607 330.908 284.098 330.432 283.471 330.432Z" fill="#4E4E4E"/>
<path d="M283.471 330.432H269.828C269.199 330.432 268.69 330.908 268.69 331.495V344.244C268.69 344.831 269.199 345.307 269.828 345.307H283.471C284.098 345.307 284.607 344.831 284.607 344.244V331.495C284.607 330.908 284.098 330.432 283.471 330.432Z" stroke="#434750" stroke-width="2.54348" stroke-linecap="round" stroke-linejoin="round"/>
</g>
<g style="mix-blend-mode:multiply" opacity="0.33">
<path d="M308.071 330.432H294.428C293.801 330.432 293.292 330.908 293.292 331.495V344.244C293.292 344.831 293.801 345.307 294.428 345.307H308.071C308.7 345.307 309.209 344.831 309.209 344.244V331.495C309.209 330.908 308.7 330.432 308.071 330.432Z" fill="#4E4E4E"/>
<path d="M308.071 330.432H294.428C293.801 330.432 293.292 330.908 293.292 331.495V344.244C293.292 344.831 293.801 345.307 294.428 345.307H308.071C308.7 345.307 309.209 344.831 309.209 344.244V331.495C309.209 330.908 308.7 330.432 308.071 330.432Z" stroke="#434750" stroke-width="2.54348" stroke-linecap="round" stroke-linejoin="round"/>
</g>
<g style="mix-blend-mode:multiply" opacity="0.33">
<path d="M332.674 330.432H319.031C318.403 330.432 317.894 330.908 317.894 331.495V344.244C317.894 344.831 318.403 345.307 319.031 345.307H332.674C333.302 345.307 333.811 344.831 333.811 344.244V331.495C333.811 330.908 333.302 330.432 332.674 330.432Z" fill="#4E4E4E"/>
<path d="M332.674 330.432H319.031C318.403 330.432 317.894 330.908 317.894 331.495V344.244C317.894 344.831 318.403 345.307 319.031 345.307H332.674C333.302 345.307 333.811 344.831 333.811 344.244V331.495C333.811 330.908 333.302 330.432 332.674 330.432Z" stroke="#434750" stroke-width="2.54348" stroke-linecap="round" stroke-linejoin="round"/>
</g>
<g style="mix-blend-mode:multiply" opacity="0.33">
<path d="M357.275 330.432H343.632C343.005 330.432 342.495 330.908 342.495 331.495V344.244C342.495 344.831 343.005 345.307 343.632 345.307H357.275C357.904 345.307 358.413 344.831 358.413 344.244V331.495C358.413 330.908 357.904 330.432 357.275 330.432Z" fill="#4E4E4E"/>
<path d="M357.275 330.432H343.632C343.005 330.432 342.495 330.908 342.495 331.495V344.244C342.495 344.831 343.005 345.307 343.632 345.307H357.275C357.904 345.307 358.413 344.831 358.413 344.244V331.495C358.413 330.908 357.904 330.432 357.275 330.432Z" stroke="#434750" stroke-width="2.54348" stroke-linecap="round" stroke-linejoin="round"/>
</g>
<g style="mix-blend-mode:multiply" opacity="0.33">
<path d="M381.877 330.432H368.234C367.606 330.432 367.097 330.908 367.097 331.495V344.244C367.097 344.831 367.606 345.307 368.234 345.307H381.877C382.505 345.307 383.014 344.831 383.014 344.244V331.495C383.014 330.908 382.505 330.432 381.877 330.432Z" fill="#4E4E4E"/>
<path d="M381.877 330.432H368.234C367.606 330.432 367.097 330.908 367.097 331.495V344.244C367.097 344.831 367.606 345.307 368.234 345.307H381.877C382.505 345.307 383.014 344.831 383.014 344.244V331.495C383.014 330.908 382.505 330.432 381.877 330.432Z" stroke="#434750" stroke-width="2.54348" stroke-linecap="round" stroke-linejoin="round"/>
</g>
<g style="mix-blend-mode:multiply" opacity="0.33">
<path d="M420.122 330.432H392.836C392.208 330.432 391.699 330.908 391.699 331.495V344.244C391.699 344.831 392.208 345.307 392.836 345.307H420.122C420.751 345.307 421.26 344.831 421.26 344.244V331.495C421.26 330.908 420.751 330.432 420.122 330.432Z" fill="#4E4E4E"/>
<path d="M420.122 330.432H392.836C392.208 330.432 391.699 330.908 391.699 331.495V344.244C391.699 344.831 392.208 345.307 392.836 345.307H420.122C420.751 345.307 421.26 344.831 421.26 344.244V331.495C421.26 330.908 420.751 330.432 420.122 330.432Z" stroke="#434750" stroke-width="2.54348" stroke-linecap="round" stroke-linejoin="round"/>
</g>
<g style="mix-blend-mode:multiply" opacity="0.33">
<path d="M220.922 309.608H207.279C206.651 309.608 206.142 310.083 206.142 310.67V323.42C206.142 324.007 206.651 324.482 207.279 324.482H220.922C221.55 324.482 222.059 324.007 222.059 323.42V310.67C222.059 310.083 221.55 309.608 220.922 309.608Z" fill="#4E4E4E"/>
<path d="M220.922 309.608H207.279C206.651 309.608 206.142 310.083 206.142 310.67V323.42C206.142 324.007 206.651 324.482 207.279 324.482H220.922C221.55 324.482 222.059 324.007 222.059 323.42V310.67C222.059 310.083 221.55 309.608 220.922 309.608Z" stroke="#434750" stroke-width="2.54348" stroke-linecap="round" stroke-linejoin="round"/>
</g>
<g style="mix-blend-mode:multiply" opacity="0.33">
<path d="M196.021 309.608H182.378C181.751 309.608 181.242 310.083 181.242 310.67V323.42C181.242 324.007 181.751 324.482 182.378 324.482H196.021C196.65 324.482 197.159 324.007 197.159 323.42V310.67C197.159 310.083 196.65 309.608 196.021 309.608Z" fill="#4E4E4E"/>
<path d="M196.021 309.608H182.378C181.751 309.608 181.242 310.083 181.242 310.67V323.42C181.242 324.007 181.751 324.482 182.378 324.482H196.021C196.65 324.482 197.159 324.007 197.159 323.42V310.67C197.159 310.083 196.65 309.608 196.021 309.608Z" stroke="#434750" stroke-width="2.54348" stroke-linecap="round" stroke-linejoin="round"/>
</g>
<g style="mix-blend-mode:multiply" opacity="0.33">
<path d="M245.822 309.608H232.179C231.551 309.608 231.042 310.083 231.042 310.67V323.42C231.042 324.007 231.551 324.482 232.179 324.482H245.822C246.45 324.482 246.959 324.007 246.959 323.42V310.67C246.959 310.083 246.45 309.608 245.822 309.608Z" fill="#4E4E4E"/>
<path d="M245.822 309.608H232.179C231.551 309.608 231.042 310.083 231.042 310.67V323.42C231.042 324.007 231.551 324.482 232.179 324.482H245.822C246.45 324.482 246.959 324.007 246.959 323.42V310.67C246.959 310.083 246.45 309.608 245.822 309.608Z" stroke="#434750" stroke-width="2.54348" stroke-linecap="round" stroke-linejoin="round"/>
</g>
<g style="mix-blend-mode:multiply" opacity="0.33">
<path d="M270.722 309.608H257.079C256.451 309.608 255.942 310.083 255.942 310.67V323.42C255.942 324.007 256.451 324.482 257.079 324.482H270.722C271.35 324.482 271.859 324.007 271.859 323.42V310.67C271.859 310.083 271.35 309.608 270.722 309.608Z" fill="#4E4E4E"/>
<path d="M270.722 309.608H257.079C256.451 309.608 255.942 310.083 255.942 310.67V323.42C255.942 324.007 256.451 324.482 257.079 324.482H270.722C271.35 324.482 271.859 324.007 271.859 323.42V310.67C271.859 310.083 271.35 309.608 270.722 309.608Z" stroke="#434750" stroke-width="2.54348" stroke-linecap="round" stroke-linejoin="round"/>
</g>
<g style="mix-blend-mode:multiply" opacity="0.33">
<path d="M295.622 309.608H281.979C281.351 309.608 280.842 310.083 280.842 310.67V323.42C280.842 324.007 281.351 324.482 281.979 324.482H295.622C296.25 324.482 296.759 324.007 296.759 323.42V310.67C296.759 310.083 296.25 309.608 295.622 309.608Z" fill="#4E4E4E"/>
<path d="M295.622 309.608H281.979C281.351 309.608 280.842 310.083 280.842 310.67V323.42C280.842 324.007 281.351 324.482 281.979 324.482H295.622C296.25 324.482 296.759 324.007 296.759 323.42V310.67C296.759 310.083 296.25 309.608 295.622 309.608Z" stroke="#434750" stroke-width="2.54348" stroke-linecap="round" stroke-linejoin="round"/>
</g>
<g style="mix-blend-mode:multiply" opacity="0.33">
<path d="M320.522 309.608H306.879C306.251 309.608 305.742 310.083 305.742 310.67V323.42C305.742 324.007 306.251 324.482 306.879 324.482H320.522C321.15 324.482 321.659 324.007 321.659 323.42V310.67C321.659 310.083 321.15 309.608 320.522 309.608Z" fill="#4E4E4E"/>
<path d="M320.522 309.608H306.879C306.251 309.608 305.742 310.083 305.742 310.67V323.42C305.742 324.007 306.251 324.482 306.879 324.482H320.522C321.15 324.482 321.659 324.007 321.659 323.42V310.67C321.659 310.083 321.15 309.608 320.522 309.608Z" stroke="#434750" stroke-width="2.54348" stroke-linecap="round" stroke-linejoin="round"/>
</g>
<g style="mix-blend-mode:multiply" opacity="0.33">
<path d="M345.422 309.608H331.779C331.151 309.608 330.642 310.083 330.642 310.67V323.42C330.642 324.007 331.151 324.482 331.779 324.482H345.422C346.05 324.482 346.559 324.007 346.559 323.42V310.67C346.559 310.083 346.05 309.608 345.422 309.608Z" fill="#4E4E4E"/>
<path d="M345.422 309.608H331.779C331.151 309.608 330.642 310.083 330.642 310.67V323.42C330.642 324.007 331.151 324.482 331.779 324.482H345.422C346.05 324.482 346.559 324.007 346.559 323.42V310.67C346.559 310.083 346.05 309.608 345.422 309.608Z" stroke="#434750" stroke-width="2.54348" stroke-linecap="round" stroke-linejoin="round"/>
</g>
<g style="mix-blend-mode:multiply" opacity="0.33">
<path d="M370.322 309.608H356.679C356.051 309.608 355.542 310.083 355.542 310.67V323.42C355.542 324.007 356.051 324.482 356.679 324.482H370.322C370.95 324.482 371.459 324.007 371.459 323.42V310.67C371.459 310.083 370.95 309.608 370.322 309.608Z" fill="#4E4E4E"/>
<path d="M370.322 309.608H356.679C356.051 309.608 355.542 310.083 355.542 310.67V323.42C355.542 324.007 356.051 324.482 356.679 324.482H370.322C370.95 324.482 371.459 324.007 371.459 323.42V310.67C371.459 310.083 370.95 309.608 370.322 309.608Z" stroke="#434750" stroke-width="2.54348" stroke-linecap="round" stroke-linejoin="round"/>
</g>
<g style="mix-blend-mode:multiply" opacity="0.33">
<path d="M395.222 309.608H381.579C380.951 309.608 380.442 310.083 380.442 310.67V323.42C380.442 324.007 380.951 324.482 381.579 324.482H395.222C395.85 324.482 396.359 324.007 396.359 323.42V310.67C396.359 310.083 395.85 309.608 395.222 309.608Z" fill="#4E4E4E"/>
<path d="M395.222 309.608H381.579C380.951 309.608 380.442 310.083 380.442 310.67V323.42C380.442 324.007 380.951 324.482 381.579 324.482H395.222C395.85 324.482 396.359 324.007 396.359 323.42V310.67C396.359 310.083 395.85 309.608 395.222 309.608Z" stroke="#434750" stroke-width="2.54348" stroke-linecap="round" stroke-linejoin="round"/>
</g>
<g style="mix-blend-mode:multiply" opacity="0.33">
<path d="M420.123 309.608H406.479C405.852 309.608 405.342 310.083 405.342 310.67V323.42C405.342 324.007 405.852 324.482 406.479 324.482H420.123C420.751 324.482 421.26 324.007 421.26 323.42V310.67C421.26 310.083 420.751 309.608 420.123 309.608Z" fill="#4E4E4E"/>
<path d="M420.123 309.608H406.479C405.852 309.608 405.342 310.083 405.342 310.67V323.42C405.342 324.007 405.852 324.482 406.479 324.482H420.123C420.751 324.482 421.26 324.007 421.26 323.42V310.67C421.26 310.083 420.751 309.608 420.123 309.608Z" stroke="#434750" stroke-width="2.54348" stroke-linecap="round" stroke-linejoin="round"/>
</g>
<g style="mix-blend-mode:multiply" opacity="0.33">
<path d="M220.624 373.356H206.981C206.353 373.356 205.844 373.832 205.844 374.419V387.168C205.844 387.755 206.353 388.231 206.981 388.231H220.624C221.252 388.231 221.761 387.755 221.761 387.168V374.419C221.761 373.832 221.252 373.356 220.624 373.356Z" fill="#4E4E4E"/>
</g>
<g style="mix-blend-mode:multiply" opacity="0.33">
<path d="M196.021 373.356H182.378C181.751 373.356 181.242 373.832 181.242 374.419V387.168C181.242 387.755 181.751 388.231 182.378 388.231H196.021C196.65 388.231 197.159 387.755 197.159 387.168V374.419C197.159 373.832 196.65 373.356 196.021 373.356Z" fill="#4E4E4E"/>
</g>
<g style="mix-blend-mode:multiply" opacity="0.33">
<path d="M343.632 373.356H231.582C230.954 373.356 230.446 373.832 230.446 374.419V387.168C230.446 387.755 230.954 388.231 231.582 388.231H343.632C344.259 388.231 344.769 387.755 344.769 387.168V374.419C344.769 373.832 344.259 373.356 343.632 373.356Z" fill="#4E4E4E"/>
</g>
<g style="mix-blend-mode:multiply" opacity="0.33">
<path d="M368.234 373.356H354.591C353.962 373.356 353.453 373.832 353.453 374.419V387.168C353.453 387.755 353.962 388.231 354.591 388.231H368.234C368.861 388.231 369.371 387.755 369.371 387.168V374.419C369.371 373.832 368.861 373.356 368.234 373.356Z" fill="#4E4E4E"/>
</g>
<g style="mix-blend-mode:multiply" opacity="0.33">
<path d="M404.206 381.723H395.11C394.482 381.723 393.973 382.199 393.973 382.786V387.168C393.973 387.755 394.482 388.231 395.11 388.231H404.206C404.833 388.231 405.342 387.755 405.342 387.168V382.786C405.342 382.199 404.833 381.723 404.206 381.723Z" fill="#4E4E4E"/>
</g>
<g style="mix-blend-mode:multiply" opacity="0.33">
<path d="M404.206 373.356H395.11C394.482 373.356 393.973 373.832 393.973 374.419V378.801C393.973 379.388 394.482 379.864 395.11 379.864H404.206C404.833 379.864 405.342 379.388 405.342 378.801V374.419C405.342 373.832 404.833 373.356 404.206 373.356Z" fill="#4E4E4E"/>
</g>
<g style="mix-blend-mode:multiply" opacity="0.33">
<path d="M420.123 381.723H411.027C410.399 381.723 409.89 382.199 409.89 382.786V387.168C409.89 387.755 410.399 388.231 411.027 388.231H420.123C420.751 388.231 421.26 387.755 421.26 387.168V382.786C421.26 382.199 420.751 381.723 420.123 381.723Z" fill="#4E4E4E"/>
</g>
<g style="mix-blend-mode:multiply" opacity="0.33">
<path d="M388.289 381.723H379.193C378.565 381.723 378.056 382.199 378.056 382.786V387.168C378.056 387.755 378.565 388.231 379.193 388.231H388.289C388.916 388.231 389.425 387.755 389.425 387.168V382.786C389.425 382.199 388.916 381.723 388.289 381.723Z" fill="#4E4E4E"/>
</g>
<g style="mix-blend-mode:multiply" opacity="0.33">
<path d="M218.35 352.191H182.378C181.751 352.191 181.242 352.667 181.242 353.254V366.003C181.242 366.59 181.751 367.066 182.378 367.066H218.35C218.978 367.066 219.487 366.59 219.487 366.003V353.254C219.487 352.667 218.978 352.191 218.35 352.191Z" fill="#4E4E4E"/>
</g>
<g style="mix-blend-mode:multiply" opacity="0.33">
<path d="M243.157 352.191H229.514C228.885 352.191 228.376 352.667 228.376 353.254V366.003C228.376 366.59 228.885 367.066 229.514 367.066H243.157C243.784 367.066 244.294 366.59 244.294 366.003V353.254C244.294 352.667 243.784 352.191 243.157 352.191Z" fill="#4E4E4E"/>
</g>
<g style="mix-blend-mode:multiply" opacity="0.33">
<path d="M267.759 352.191H254.116C253.488 352.191 252.979 352.667 252.979 353.254V366.003C252.979 366.59 253.488 367.066 254.116 367.066H267.759C268.387 367.066 268.896 366.59 268.896 366.003V353.254C268.896 352.667 268.387 352.191 267.759 352.191Z" fill="#4E4E4E"/>
</g>
<g style="mix-blend-mode:multiply" opacity="0.33">
<path d="M292.36 352.191H278.717C278.09 352.191 277.58 352.667 277.58 353.254V366.003C277.58 366.59 278.09 367.066 278.717 367.066H292.36C292.988 367.066 293.498 366.59 293.498 366.003V353.254C293.498 352.667 292.988 352.191 292.36 352.191Z" fill="#4E4E4E"/>
</g>
<g style="mix-blend-mode:multiply" opacity="0.33">
<path d="M316.962 352.191H303.319C302.691 352.191 302.182 352.667 302.182 353.254V366.003C302.182 366.59 302.691 367.066 303.319 367.066H316.962C317.59 367.066 318.099 366.59 318.099 366.003V353.254C318.099 352.667 317.59 352.191 316.962 352.191Z" fill="#4E4E4E"/>
</g>
<g style="mix-blend-mode:multiply" opacity="0.33">
<path d="M341.564 352.191H327.92C327.293 352.191 326.783 352.667 326.783 353.254V366.003C326.783 366.59 327.293 367.066 327.92 367.066H341.564C342.192 367.066 342.701 366.59 342.701 366.003V353.254C342.701 352.667 342.192 352.191 341.564 352.191Z" fill="#4E4E4E"/>
</g>
<g style="mix-blend-mode:multiply" opacity="0.33">
<path d="M366.165 352.191H352.522C351.895 352.191 351.386 352.667 351.386 353.254V366.003C351.386 366.59 351.895 367.066 352.522 367.066H366.165C366.794 367.066 367.303 366.59 367.303 366.003V353.254C367.303 352.667 366.794 352.191 366.165 352.191Z" fill="#4E4E4E"/>
</g>
<g style="mix-blend-mode:multiply" opacity="0.33">
<path d="M420.122 352.191H379.193C378.565 352.191 378.056 352.667 378.056 353.254V366.003C378.056 366.59 378.565 367.066 379.193 367.066H420.122C420.751 367.066 421.259 366.59 421.259 366.003V353.254C421.259 352.667 420.751 352.191 420.122 352.191Z" fill="#4E4E4E"/>
</g>
<g style="mix-blend-mode:multiply" opacity="0.33">
<path d="M234.267 330.432H220.624C219.996 330.432 219.487 330.908 219.487 331.495V344.244C219.487 344.831 219.996 345.307 220.624 345.307H234.267C234.895 345.307 235.404 344.831 235.404 344.244V331.495C235.404 330.908 234.895 330.432 234.267 330.432Z" fill="#4E4E4E"/>
</g>
<g style="mix-blend-mode:multiply" opacity="0.33">
<path d="M209.665 330.432H182.378C181.751 330.432 181.242 330.908 181.242 331.495V344.244C181.242 344.831 181.751 345.307 182.378 345.307H209.665C210.293 345.307 210.802 344.831 210.802 344.244V331.495C210.802 330.908 210.293 330.432 209.665 330.432Z" fill="#4E4E4E"/>
</g>
<g style="mix-blend-mode:multiply" opacity="0.33">
<path d="M258.869 330.432H245.225C244.598 330.432 244.089 330.908 244.089 331.495V344.244C244.089 344.831 244.598 345.307 245.225 345.307H258.869C259.497 345.307 260.006 344.831 260.006 344.244V331.495C260.006 330.908 259.497 330.432 258.869 330.432Z" fill="#4E4E4E"/>
</g>
<g style="mix-blend-mode:multiply" opacity="0.33">
<path d="M283.471 330.432H269.828C269.199 330.432 268.69 330.908 268.69 331.495V344.244C268.69 344.831 269.199 345.307 269.828 345.307H283.471C284.098 345.307 284.607 344.831 284.607 344.244V331.495C284.607 330.908 284.098 330.432 283.471 330.432Z" fill="#4E4E4E"/>
</g>
<g style="mix-blend-mode:multiply" opacity="0.33">
<path d="M308.071 330.432H294.428C293.801 330.432 293.292 330.908 293.292 331.495V344.244C293.292 344.831 293.801 345.307 294.428 345.307H308.071C308.7 345.307 309.209 344.831 309.209 344.244V331.495C309.209 330.908 308.7 330.432 308.071 330.432Z" fill="#4E4E4E"/>
</g>
<g style="mix-blend-mode:multiply" opacity="0.33">
<path d="M332.674 330.432H319.031C318.403 330.432 317.894 330.908 317.894 331.495V344.244C317.894 344.831 318.403 345.307 319.031 345.307H332.674C333.302 345.307 333.811 344.831 333.811 344.244V331.495C333.811 330.908 333.302 330.432 332.674 330.432Z" fill="#4E4E4E"/>
</g>
<g style="mix-blend-mode:multiply" opacity="0.33">
<path d="M357.275 330.432H343.632C343.005 330.432 342.495 330.908 342.495 331.495V344.244C342.495 344.831 343.005 345.307 343.632 345.307H357.275C357.904 345.307 358.413 344.831 358.413 344.244V331.495C358.413 330.908 357.904 330.432 357.275 330.432Z" fill="#4E4E4E"/>
</g>
<g style="mix-blend-mode:multiply" opacity="0.33">
<path d="M381.877 330.432H368.234C367.606 330.432 367.097 330.908 367.097 331.495V344.244C367.097 344.831 367.606 345.307 368.234 345.307H381.877C382.505 345.307 383.014 344.831 383.014 344.244V331.495C383.014 330.908 382.505 330.432 381.877 330.432Z" fill="#4E4E4E"/>
</g>
<g style="mix-blend-mode:multiply" opacity="0.33">
<path d="M420.122 330.432H392.836C392.208 330.432 391.699 330.908 391.699 331.495V344.244C391.699 344.831 392.208 345.307 392.836 345.307H420.122C420.751 345.307 421.26 344.831 421.26 344.244V331.495C421.26 330.908 420.751 330.432 420.122 330.432Z" fill="#4E4E4E"/>
</g>
<g style="mix-blend-mode:multiply" opacity="0.33">
<path d="M220.922 309.608H207.279C206.651 309.608 206.142 310.083 206.142 310.67V323.42C206.142 324.007 206.651 324.482 207.279 324.482H220.922C221.55 324.482 222.059 324.007 222.059 323.42V310.67C222.059 310.083 221.55 309.608 220.922 309.608Z" fill="#4E4E4E"/>
</g>
<g style="mix-blend-mode:multiply" opacity="0.33">
<path d="M196.021 309.608H182.378C181.751 309.608 181.242 310.083 181.242 310.67V323.42C181.242 324.007 181.751 324.482 182.378 324.482H196.021C196.65 324.482 197.159 324.007 197.159 323.42V310.67C197.159 310.083 196.65 309.608 196.021 309.608Z" fill="#4E4E4E"/>
</g>
<g style="mix-blend-mode:multiply" opacity="0.33">
<path d="M245.822 309.608H232.179C231.551 309.608 231.042 310.083 231.042 310.67V323.42C231.042 324.007 231.551 324.482 232.179 324.482H245.822C246.45 324.482 246.959 324.007 246.959 323.42V310.67C246.959 310.083 246.45 309.608 245.822 309.608Z" fill="#4E4E4E"/>
</g>
<g style="mix-blend-mode:multiply" opacity="0.33">
<path d="M270.722 309.608H257.079C256.451 309.608 255.942 310.083 255.942 310.67V323.42C255.942 324.007 256.451 324.482 257.079 324.482H270.722C271.35 324.482 271.859 324.007 271.859 323.42V310.67C271.859 310.083 271.35 309.608 270.722 309.608Z" fill="#4E4E4E"/>
</g>
<g style="mix-blend-mode:multiply" opacity="0.33">
<path d="M295.622 309.608H281.979C281.351 309.608 280.842 310.083 280.842 310.67V323.42C280.842 324.007 281.351 324.482 281.979 324.482H295.622C296.25 324.482 296.759 324.007 296.759 323.42V310.67C296.759 310.083 296.25 309.608 295.622 309.608Z" fill="#4E4E4E"/>
</g>
<g style="mix-blend-mode:multiply" opacity="0.33">
<path d="M320.522 309.608H306.879C306.251 309.608 305.742 310.083 305.742 310.67V323.42C305.742 324.007 306.251 324.482 306.879 324.482H320.522C321.15 324.482 321.659 324.007 321.659 323.42V310.67C321.659 310.083 321.15 309.608 320.522 309.608Z" fill="#4E4E4E"/>
</g>
<g style="mix-blend-mode:multiply" opacity="0.33">
<path d="M345.422 309.608H331.779C331.151 309.608 330.642 310.083 330.642 310.67V323.42C330.642 324.007 331.151 324.482 331.779 324.482H345.422C346.05 324.482 346.559 324.007 346.559 323.42V310.67C346.559 310.083 346.05 309.608 345.422 309.608Z" fill="#4E4E4E"/>
</g>
<g style="mix-blend-mode:multiply" opacity="0.33">
<path d="M370.322 309.608H356.679C356.051 309.608 355.542 310.083 355.542 310.67V323.42C355.542 324.007 356.051 324.482 356.679 324.482H370.322C370.95 324.482 371.459 324.007 371.459 323.42V310.67C371.459 310.083 370.95 309.608 370.322 309.608Z" fill="#4E4E4E"/>
</g>
<g style="mix-blend-mode:multiply" opacity="0.33">
<path d="M395.222 309.608H381.579C380.951 309.608 380.442 310.083 380.442 310.67V323.42C380.442 324.007 380.951 324.482 381.579 324.482H395.222C395.85 324.482 396.359 324.007 396.359 323.42V310.67C396.359 310.083 395.85 309.608 395.222 309.608Z" fill="#4E4E4E"/>
</g>
<g style="mix-blend-mode:multiply" opacity="0.33">
<path d="M420.123 309.608H406.479C405.852 309.608 405.342 310.083 405.342 310.67V323.42C405.342 324.007 405.852 324.482 406.479 324.482H420.123C420.751 324.482 421.26 324.007 421.26 323.42V310.67C421.26 310.083 420.751 309.608 420.123 309.608Z" fill="#4E4E4E"/>
</g>
<g style="mix-blend-mode:multiply" opacity="0.33">
<path d="M204.61 275.71H397.89V289.997C397.89 291.124 397.41 292.205 396.557 293.002C395.705 293.799 394.548 294.247 393.342 294.247H209.158C207.952 294.247 206.795 293.799 205.942 293.002C205.09 292.205 204.61 291.124 204.61 289.997V275.71Z" fill="#4E4E4E"/>
</g>
<g style="mix-blend-mode:multiply" opacity="0.25">
<path d="M393.342 289.996H209.158C207.952 289.996 206.795 289.548 205.942 288.751C205.09 287.954 204.61 286.873 204.61 285.746V289.996C204.61 291.122 205.09 292.204 205.942 293C206.795 293.798 207.952 294.246 209.158 294.246H393.342C394.548 294.246 395.705 293.798 396.557 293C397.41 292.204 397.89 291.122 397.89 289.996V285.746C397.89 286.873 397.41 287.954 396.557 288.751C395.705 289.548 394.548 289.996 393.342 289.996Z" fill="#4E4E4E"/>
</g>
<g style="mix-blend-mode:multiply" opacity="0.33">
<path d="M204.61 275.71H397.89V289.997C397.89 291.124 397.41 292.205 396.557 293.002C395.705 293.799 394.548 294.247 393.342 294.247H209.158C207.952 294.247 206.795 293.799 205.942 293.002C205.09 292.205 204.61 291.124 204.61 289.997V275.71Z" fill="#4E4E4E"/>
<path d="M204.61 275.71H397.89V289.997C397.89 291.124 397.41 292.205 396.557 293.002C395.705 293.799 394.548 294.247 393.342 294.247H209.158C207.952 294.247 206.795 293.799 205.942 293.002C205.09 292.205 204.61 291.124 204.61 289.997V275.71Z" stroke="#46505C" stroke-width="5.08695" stroke-linecap="round" stroke-linejoin="round"/>
</g>
<g style="mix-blend-mode:multiply" opacity="0.33">
<path d="M341.044 402.573H261.459C260.203 402.573 259.184 403.525 259.184 404.699V454.634C259.184 455.808 260.203 456.759 261.459 456.759H341.044C342.3 456.759 343.318 455.808 343.318 454.634V404.699C343.318 403.525 342.3 402.573 341.044 402.573Z" fill="#4E4E4E"/>
</g>
<g style="mix-blend-mode:multiply" opacity="0.33">
<path d="M341.044 402.573H261.459C260.203 402.573 259.184 403.525 259.184 404.699V454.634C259.184 455.808 260.203 456.759 261.459 456.759H341.044C342.3 456.759 343.318 455.808 343.318 454.634V404.699C343.318 403.525 342.3 402.573 341.044 402.573Z" fill="#4E4E4E"/>
<path d="M341.044 402.573H261.459C260.203 402.573 259.184 403.525 259.184 404.699V454.634C259.184 455.808 260.203 456.759 261.459 456.759H341.044C342.3 456.759 343.318 455.808 343.318 454.634V404.699C343.318 403.525 342.3 402.573 341.044 402.573Z" stroke="#434750" stroke-width="2.54348" stroke-linecap="round" stroke-linejoin="round"/>
</g>
</g>
<path d="M424.096 101.005H160.326C151.535 101.005 144.409 107.664 144.409 115.879V260.375C144.409 268.59 151.535 275.25 160.326 275.25H424.096C432.886 275.25 440.013 268.59 440.013 260.375V115.879C440.013 107.664 432.886 101.005 424.096 101.005Z" stroke="black" stroke-width="2.54348" stroke-linecap="round" stroke-linejoin="round"/>
<path d="M424.096 101.005H160.326C151.535 101.005 144.409 107.664 144.409 115.879V260.375C144.409 268.59 151.535 275.25 160.326 275.25H424.096C432.886 275.25 440.013 268.59 440.013 260.375V115.879C440.013 107.664 432.886 101.005 424.096 101.005Z" fill="#434750"/>
<path d="M424.096 101.005H160.326C151.535 101.005 144.409 107.664 144.409 115.879V260.375C144.409 268.59 151.535 275.25 160.326 275.25H424.096C432.886 275.25 440.013 268.59 440.013 260.375V115.879C440.013 107.664 432.886 101.005 424.096 101.005Z" fill="#434750"/>
<g style="mix-blend-mode:multiply" opacity="0.17">
<path d="M424.096 101.005H160.326C151.535 101.005 144.409 107.664 144.409 115.879V250.83C144.409 259.045 151.535 265.705 160.326 265.705H424.096C432.886 265.705 440.013 259.045 440.013 250.83V115.879C440.013 107.664 432.886 101.005 424.096 101.005Z" fill="#434750"/>
</g>
<path opacity="0.1" d="M160.326 105.25H424.096C428.317 105.25 432.366 106.816 435.351 109.606C438.336 112.396 440.013 116.179 440.013 120.124V260.37V115.874C440.013 111.929 438.336 108.146 435.351 105.356C432.366 102.567 428.317 101 424.096 101H160.326C156.105 101 152.057 102.567 149.072 105.356C146.086 108.146 144.409 111.929 144.409 115.874V120.124C144.409 116.179 146.086 112.396 149.072 109.606C152.057 106.816 156.105 105.25 160.326 105.25Z" fill="white"/>
<g opacity="0.1">
<path opacity="0.1" d="M234.485 275.249H252.755L388.224 101.004H369.955L234.485 275.249Z" fill="white"/>
<path opacity="0.1" d="M263.294 275.249H268.915L404.386 101.004H398.763L263.294 275.249Z" fill="white"/>
</g>
<path d="M424.096 101.005H160.326C151.535 101.005 144.409 107.664 144.409 115.879V260.375C144.409 268.59 151.535 275.25 160.326 275.25H424.096C432.886 275.25 440.013 268.59 440.013 260.375V115.879C440.013 107.664 432.886 101.005 424.096 101.005Z" stroke="#46505C" stroke-width="10.1739" stroke-linecap="round" stroke-linejoin="round"/>
<g filter="url(#filter0_biii_205_998)">
<path d="M419.548 254.509V120.638H164.875V254.509H419.548Z" fill="#9747FF" fill-opacity="0.72"/>
</g>
<g opacity="0.06">
<path opacity="0.06" d="M251.747 254.509H270.016L374.096 120.638H355.826L251.747 254.509Z" fill="white"/>
<path opacity="0.06" d="M280.555 254.508H286.177L390.257 120.638H384.636L280.555 254.508Z" fill="white"/>
</g>
<path d="M419.548 254.509V120.638H164.875V254.509H419.548Z" stroke="#46505C" stroke-width="2.54348" stroke-linecap="round" stroke-linejoin="round"/>
<path d="M424.096 275.249H160.326C151.535 275.249 144.409 281.908 144.409 290.123V443.118C144.409 451.333 151.535 457.993 160.326 457.993H424.096C432.886 457.993 440.013 451.333 440.013 443.118V290.123C440.013 281.908 432.886 275.249 424.096 275.249Z" fill="#E6F3FF"/>
<path d="M435.465 443.119V290.123C435.465 284.256 430.375 279.499 424.095 279.499H160.327C154.047 279.499 148.957 284.256 148.957 290.123V443.119C148.957 448.987 154.047 453.744 160.327 453.744H424.095C430.375 453.744 435.465 448.987 435.465 443.119Z" fill="white" stroke="#E6F3FF" stroke-width="5.08695" stroke-miterlimit="10"/>
<path d="M273.963 449.684H310.458C311.664 449.684 312.82 450.132 313.674 450.929C314.527 451.726 315.005 452.807 315.005 453.934V457.993H269.415V453.934C269.415 452.807 269.893 451.726 270.747 450.929C271.6 450.132 272.756 449.684 273.963 449.684Z" fill="#E6F3FF"/>
<path d="M424.096 275.249H160.326C151.535 275.249 144.409 281.908 144.409 290.123V443.118C144.409 451.333 151.535 457.993 160.326 457.993H424.096C432.886 457.993 440.013 451.333 440.013 443.118V290.123C440.013 281.908 432.886 275.249 424.096 275.249Z" stroke="#46505C" stroke-width="10.1739" stroke-linecap="round" stroke-linejoin="round"/>
<path d="M419.548 289.506H164.874C162.99 289.506 161.463 290.933 161.463 292.693V384.066C161.463 385.826 162.99 387.253 164.874 387.253H419.548C421.431 387.253 422.958 385.826 422.958 384.066V292.693C422.958 290.933 421.431 289.506 419.548 289.506Z" fill="#E6F3FF"/>
<path d="M211.584 363.347H197.941C197.313 363.347 196.804 363.823 196.804 364.41V377.159C196.804 377.746 197.313 378.222 197.941 378.222H211.584C212.212 378.222 212.721 377.746 212.721 377.159V364.41C212.721 363.823 212.212 363.347 211.584 363.347Z" stroke="#434750" stroke-width="2.54348" stroke-linecap="round" stroke-linejoin="round"/>
<path d="M186.983 363.347H173.339C172.711 363.347 172.202 363.823 172.202 364.41V377.159C172.202 377.746 172.711 378.222 173.339 378.222H186.983C187.61 378.222 188.12 377.746 188.12 377.159V364.41C188.12 363.823 187.61 363.347 186.983 363.347Z" stroke="#434750" stroke-width="2.54348" stroke-linecap="round" stroke-linejoin="round"/>
<path d="M334.593 363.347H222.543C221.916 363.347 221.407 363.823 221.407 364.41V377.159C221.407 377.746 221.916 378.222 222.543 378.222H334.593C335.221 378.222 335.73 377.746 335.73 377.159V364.41C335.73 363.823 335.221 363.347 334.593 363.347Z" stroke="#434750" stroke-width="2.54348" stroke-linecap="round" stroke-linejoin="round"/>
<path d="M359.194 363.347H345.551C344.923 363.347 344.414 363.823 344.414 364.41V377.159C344.414 377.746 344.923 378.222 345.551 378.222H359.194C359.822 378.222 360.331 377.746 360.331 377.159V364.41C360.331 363.823 359.822 363.347 359.194 363.347Z" stroke="#434750" stroke-width="2.54348" stroke-linecap="round" stroke-linejoin="round"/>
<path d="M395.165 371.715H386.069C385.442 371.715 384.933 372.19 384.933 372.777V377.16C384.933 377.747 385.442 378.222 386.069 378.222H395.165C395.793 378.222 396.302 377.747 396.302 377.16V372.777C396.302 372.19 395.793 371.715 395.165 371.715Z" stroke="#434750" stroke-width="2.54348" stroke-linecap="round" stroke-linejoin="round"/>
<path d="M395.165 363.347H386.069C385.442 363.347 384.933 363.823 384.933 364.41V368.792C384.933 369.379 385.442 369.855 386.069 369.855H395.165C395.793 369.855 396.302 369.379 396.302 368.792V364.41C396.302 363.823 395.793 363.347 395.165 363.347Z" stroke="#434750" stroke-width="2.54348" stroke-linecap="round" stroke-linejoin="round"/>
<path d="M411.082 371.715H401.987C401.358 371.715 400.85 372.19 400.85 372.777V377.16C400.85 377.747 401.358 378.222 401.987 378.222H411.082C411.71 378.222 412.219 377.747 412.219 377.16V372.777C412.219 372.19 411.71 371.715 411.082 371.715Z" stroke="#434750" stroke-width="2.54348" stroke-linecap="round" stroke-linejoin="round"/>
<path d="M379.248 371.715H370.153C369.525 371.715 369.015 372.19 369.015 372.777V377.16C369.015 377.747 369.525 378.222 370.153 378.222H379.248C379.876 378.222 380.385 377.747 380.385 377.16V372.777C380.385 372.19 379.876 371.715 379.248 371.715Z" stroke="#434750" stroke-width="2.54348" stroke-linecap="round" stroke-linejoin="round"/>
<path d="M209.311 342.184H173.339C172.711 342.184 172.202 342.66 172.202 343.247V355.997C172.202 356.584 172.711 357.059 173.339 357.059H209.311C209.939 357.059 210.448 356.584 210.448 355.997V343.247C210.448 342.66 209.939 342.184 209.311 342.184Z" stroke="#434750" stroke-width="2.54348" stroke-linecap="round" stroke-linejoin="round"/>
<path d="M234.118 342.184H220.475C219.847 342.184 219.338 342.66 219.338 343.247V355.997C219.338 356.584 219.847 357.059 220.475 357.059H234.118C234.746 357.059 235.255 356.584 235.255 355.997V343.247C235.255 342.66 234.746 342.184 234.118 342.184Z" stroke="#434750" stroke-width="2.54348" stroke-linecap="round" stroke-linejoin="round"/>
<path d="M258.719 342.184H245.075C244.448 342.184 243.938 342.66 243.938 343.247V355.997C243.938 356.584 244.448 357.059 245.075 357.059H258.719C259.346 357.059 259.856 356.584 259.856 355.997V343.247C259.856 342.66 259.346 342.184 258.719 342.184Z" stroke="#434750" stroke-width="2.54348" stroke-linecap="round" stroke-linejoin="round"/>
<path d="M283.321 342.184H269.678C269.05 342.184 268.541 342.66 268.541 343.247V355.997C268.541 356.584 269.05 357.059 269.678 357.059H283.321C283.949 357.059 284.458 356.584 284.458 355.997V343.247C284.458 342.66 283.949 342.184 283.321 342.184Z" stroke="#434750" stroke-width="2.54348" stroke-linecap="round" stroke-linejoin="round"/>
<path d="M307.922 342.184H294.279C293.651 342.184 293.142 342.66 293.142 343.247V355.997C293.142 356.584 293.651 357.059 294.279 357.059H307.922C308.55 357.059 309.059 356.584 309.059 355.997V343.247C309.059 342.66 308.55 342.184 307.922 342.184Z" stroke="#434750" stroke-width="2.54348" stroke-linecap="round" stroke-linejoin="round"/>
<path d="M332.524 342.184H318.881C318.253 342.184 317.744 342.66 317.744 343.247V355.997C317.744 356.584 318.253 357.059 318.881 357.059H332.524C333.152 357.059 333.661 356.584 333.661 355.997V343.247C333.661 342.66 333.152 342.184 332.524 342.184Z" stroke="#434750" stroke-width="2.54348" stroke-linecap="round" stroke-linejoin="round"/>
<path d="M357.126 342.184H343.482C342.855 342.184 342.346 342.66 342.346 343.247V355.997C342.346 356.584 342.855 357.059 343.482 357.059H357.126C357.754 357.059 358.263 356.584 358.263 355.997V343.247C358.263 342.66 357.754 342.184 357.126 342.184Z" stroke="#434750" stroke-width="2.54348" stroke-linecap="round" stroke-linejoin="round"/>
<path d="M411.082 342.184H370.153C369.525 342.184 369.015 342.66 369.015 343.247V355.997C369.015 356.584 369.525 357.059 370.153 357.059H411.082C411.71 357.059 412.219 356.584 412.219 355.997V343.247C412.219 342.66 411.71 342.184 411.082 342.184Z" stroke="#434750" stroke-width="2.54348" stroke-linecap="round" stroke-linejoin="round"/>
<path d="M225.227 320.424H211.584C210.956 320.424 210.447 320.9 210.447 321.487V334.236C210.447 334.823 210.956 335.299 211.584 335.299H225.227C225.855 335.299 226.364 334.823 226.364 334.236V321.487C226.364 320.9 225.855 320.424 225.227 320.424Z" stroke="#434750" stroke-width="2.54348" stroke-linecap="round" stroke-linejoin="round"/>
<path d="M200.626 320.424H173.339C172.711 320.424 172.202 320.9 172.202 321.487V334.236C172.202 334.823 172.711 335.299 173.339 335.299H200.626C201.253 335.299 201.763 334.823 201.763 334.236V321.487C201.763 320.9 201.253 320.424 200.626 320.424Z" stroke="#434750" stroke-width="2.54348" stroke-linecap="round" stroke-linejoin="round"/>
<path d="M249.83 320.424H236.187C235.559 320.424 235.05 320.9 235.05 321.487V334.236C235.05 334.823 235.559 335.299 236.187 335.299H249.83C250.458 335.299 250.967 334.823 250.967 334.236V321.487C250.967 320.9 250.458 320.424 249.83 320.424Z" stroke="#434750" stroke-width="2.54348" stroke-linecap="round" stroke-linejoin="round"/>
<path d="M274.43 320.424H260.786C260.159 320.424 259.65 320.9 259.65 321.487V334.236C259.65 334.823 260.159 335.299 260.786 335.299H274.43C275.058 335.299 275.567 334.823 275.567 334.236V321.487C275.567 320.9 275.058 320.424 274.43 320.424Z" stroke="#434750" stroke-width="2.54348" stroke-linecap="round" stroke-linejoin="round"/>
<path d="M299.033 320.424H285.389C284.761 320.424 284.252 320.9 284.252 321.487V334.236C284.252 334.823 284.761 335.299 285.389 335.299H299.033C299.66 335.299 300.169 334.823 300.169 334.236V321.487C300.169 320.9 299.66 320.424 299.033 320.424Z" stroke="#434750" stroke-width="2.54348" stroke-linecap="round" stroke-linejoin="round"/>
<path d="M323.634 320.424H309.991C309.364 320.424 308.854 320.9 308.854 321.487V334.236C308.854 334.823 309.364 335.299 309.991 335.299H323.634C324.263 335.299 324.772 334.823 324.772 334.236V321.487C324.772 320.9 324.263 320.424 323.634 320.424Z" stroke="#434750" stroke-width="2.54348" stroke-linecap="round" stroke-linejoin="round"/>
<path d="M348.235 320.424H334.592C333.965 320.424 333.455 320.9 333.455 321.487V334.236C333.455 334.823 333.965 335.299 334.592 335.299H348.235C348.864 335.299 349.373 334.823 349.373 334.236V321.487C349.373 320.9 348.864 320.424 348.235 320.424Z" stroke="#434750" stroke-width="2.54348" stroke-linecap="round" stroke-linejoin="round"/>
<path d="M372.838 320.424H359.194C358.567 320.424 358.057 320.9 358.057 321.487V334.236C358.057 334.823 358.567 335.299 359.194 335.299H372.838C373.465 335.299 373.975 334.823 373.975 334.236V321.487C373.975 320.9 373.465 320.424 372.838 320.424Z" stroke="#434750" stroke-width="2.54348" stroke-linecap="round" stroke-linejoin="round"/>
<path d="M411.082 320.424H383.796C383.168 320.424 382.659 320.9 382.659 321.487V334.236C382.659 334.823 383.168 335.299 383.796 335.299H411.082C411.71 335.299 412.219 334.823 412.219 334.236V321.487C412.219 320.9 411.71 320.424 411.082 320.424Z" stroke="#434750" stroke-width="2.54348" stroke-linecap="round" stroke-linejoin="round"/>
<path d="M211.883 299.599H198.24C197.612 299.599 197.103 300.075 197.103 300.662V313.411C197.103 313.998 197.612 314.474 198.24 314.474H211.883C212.511 314.474 213.02 313.998 213.02 313.411V300.662C213.02 300.075 212.511 299.599 211.883 299.599Z" stroke="#434750" stroke-width="2.54348" stroke-linecap="round" stroke-linejoin="round"/>
<path d="M186.983 299.599H173.339C172.711 299.599 172.202 300.075 172.202 300.662V313.411C172.202 313.998 172.711 314.474 173.339 314.474H186.983C187.61 314.474 188.12 313.998 188.12 313.411V300.662C188.12 300.075 187.61 299.599 186.983 299.599Z" stroke="#434750" stroke-width="2.54348" stroke-linecap="round" stroke-linejoin="round"/>
<path d="M236.783 299.599H223.14C222.512 299.599 222.003 300.075 222.003 300.662V313.411C222.003 313.998 222.512 314.474 223.14 314.474H236.783C237.411 314.474 237.92 313.998 237.92 313.411V300.662C237.92 300.075 237.411 299.599 236.783 299.599Z" stroke="#434750" stroke-width="2.54348" stroke-linecap="round" stroke-linejoin="round"/>
<path d="M261.683 299.599H248.04C247.412 299.599 246.903 300.075 246.903 300.662V313.411C246.903 313.998 247.412 314.474 248.04 314.474H261.683C262.311 314.474 262.82 313.998 262.82 313.411V300.662C262.82 300.075 262.311 299.599 261.683 299.599Z" stroke="#434750" stroke-width="2.54348" stroke-linecap="round" stroke-linejoin="round"/>
<path d="M286.583 299.599H272.94C272.312 299.599 271.803 300.075 271.803 300.662V313.411C271.803 313.998 272.312 314.474 272.94 314.474H286.583C287.211 314.474 287.72 313.998 287.72 313.411V300.662C287.72 300.075 287.211 299.599 286.583 299.599Z" stroke="#434750" stroke-width="2.54348" stroke-linecap="round" stroke-linejoin="round"/>
<path d="M311.482 299.599H297.839C297.211 299.599 296.702 300.075 296.702 300.662V313.411C296.702 313.998 297.211 314.474 297.839 314.474H311.482C312.11 314.474 312.619 313.998 312.619 313.411V300.662C312.619 300.075 312.11 299.599 311.482 299.599Z" stroke="#434750" stroke-width="2.54348" stroke-linecap="round" stroke-linejoin="round"/>
<path d="M336.382 299.599H322.739C322.111 299.599 321.602 300.075 321.602 300.662V313.411C321.602 313.998 322.111 314.474 322.739 314.474H336.382C337.01 314.474 337.519 313.998 337.519 313.411V300.662C337.519 300.075 337.01 299.599 336.382 299.599Z" stroke="#434750" stroke-width="2.54348" stroke-linecap="round" stroke-linejoin="round"/>
<path d="M361.282 299.599H347.639C347.011 299.599 346.501 300.075 346.501 300.662V313.411C346.501 313.998 347.011 314.474 347.639 314.474H361.282C361.91 314.474 362.419 313.998 362.419 313.411V300.662C362.419 300.075 361.91 299.599 361.282 299.599Z" stroke="#434750" stroke-width="2.54348" stroke-linecap="round" stroke-linejoin="round"/>
<path d="M386.182 299.599H372.539C371.91 299.599 371.402 300.075 371.402 300.662V313.411C371.402 313.998 371.91 314.474 372.539 314.474H386.182C386.81 314.474 387.318 313.998 387.318 313.411V300.662C387.318 300.075 386.81 299.599 386.182 299.599Z" stroke="#434750" stroke-width="2.54348" stroke-linecap="round" stroke-linejoin="round"/>
<path d="M411.082 299.599H397.439C396.811 299.599 396.302 300.075 396.302 300.662V313.411C396.302 313.998 396.811 314.474 397.439 314.474H411.082C411.71 314.474 412.219 313.998 412.219 313.411V300.662C412.219 300.075 411.71 299.599 411.082 299.599Z" stroke="#434750" stroke-width="2.54348" stroke-linecap="round" stroke-linejoin="round"/>
<path d="M211.584 363.347H197.941C197.313 363.347 196.804 363.823 196.804 364.41V377.159C196.804 377.746 197.313 378.222 197.941 378.222H211.584C212.212 378.222 212.721 377.746 212.721 377.159V364.41C212.721 363.823 212.212 363.347 211.584 363.347Z" fill="#434750"/>
<path d="M186.983 363.347H173.339C172.711 363.347 172.202 363.823 172.202 364.41V377.159C172.202 377.746 172.711 378.222 173.339 378.222H186.983C187.61 378.222 188.12 377.746 188.12 377.159V364.41C188.12 363.823 187.61 363.347 186.983 363.347Z" fill="#434750"/>
<path d="M334.593 363.347H222.543C221.916 363.347 221.407 363.823 221.407 364.41V377.159C221.407 377.746 221.916 378.222 222.543 378.222H334.593C335.221 378.222 335.73 377.746 335.73 377.159V364.41C335.73 363.823 335.221 363.347 334.593 363.347Z" fill="#434750"/>
<path d="M359.194 363.347H345.551C344.923 363.347 344.414 363.823 344.414 364.41V377.159C344.414 377.746 344.923 378.222 345.551 378.222H359.194C359.822 378.222 360.331 377.746 360.331 377.159V364.41C360.331 363.823 359.822 363.347 359.194 363.347Z" fill="#434750"/>
<path d="M395.165 371.715H386.069C385.442 371.715 384.933 372.19 384.933 372.777V377.16C384.933 377.747 385.442 378.222 386.069 378.222H395.165C395.793 378.222 396.302 377.747 396.302 377.16V372.777C396.302 372.19 395.793 371.715 395.165 371.715Z" fill="#434750"/>
<path d="M395.165 363.347H386.069C385.442 363.347 384.933 363.823 384.933 364.41V368.792C384.933 369.379 385.442 369.855 386.069 369.855H395.165C395.793 369.855 396.302 369.379 396.302 368.792V364.41C396.302 363.823 395.793 363.347 395.165 363.347Z" fill="#434750"/>
<path d="M411.082 371.715H401.987C401.358 371.715 400.85 372.19 400.85 372.777V377.16C400.85 377.747 401.358 378.222 401.987 378.222H411.082C411.71 378.222 412.219 377.747 412.219 377.16V372.777C412.219 372.19 411.71 371.715 411.082 371.715Z" fill="#434750"/>
<path d="M379.248 371.715H370.153C369.525 371.715 369.015 372.19 369.015 372.777V377.16C369.015 377.747 369.525 378.222 370.153 378.222H379.248C379.876 378.222 380.385 377.747 380.385 377.16V372.777C380.385 372.19 379.876 371.715 379.248 371.715Z" fill="#434750"/>
<path d="M209.311 342.184H173.339C172.711 342.184 172.202 342.66 172.202 343.247V355.997C172.202 356.584 172.711 357.059 173.339 357.059H209.311C209.939 357.059 210.448 356.584 210.448 355.997V343.247C210.448 342.66 209.939 342.184 209.311 342.184Z" fill="#434750"/>
<path d="M234.118 342.184H220.475C219.847 342.184 219.338 342.66 219.338 343.247V355.997C219.338 356.584 219.847 357.059 220.475 357.059H234.118C234.746 357.059 235.255 356.584 235.255 355.997V343.247C235.255 342.66 234.746 342.184 234.118 342.184Z" fill="#434750"/>
<path d="M258.719 342.184H245.075C244.448 342.184 243.938 342.66 243.938 343.247V355.997C243.938 356.584 244.448 357.059 245.075 357.059H258.719C259.346 357.059 259.856 356.584 259.856 355.997V343.247C259.856 342.66 259.346 342.184 258.719 342.184Z" fill="#434750"/>
<path d="M283.321 342.184H269.678C269.05 342.184 268.541 342.66 268.541 343.247V355.997C268.541 356.584 269.05 357.059 269.678 357.059H283.321C283.949 357.059 284.458 356.584 284.458 355.997V343.247C284.458 342.66 283.949 342.184 283.321 342.184Z" fill="#434750"/>
<path d="M307.922 342.184H294.279C293.651 342.184 293.142 342.66 293.142 343.247V355.997C293.142 356.584 293.651 357.059 294.279 357.059H307.922C308.55 357.059 309.059 356.584 309.059 355.997V343.247C309.059 342.66 308.55 342.184 307.922 342.184Z" fill="#434750"/>
<path d="M332.524 342.184H318.881C318.253 342.184 317.744 342.66 317.744 343.247V355.997C317.744 356.584 318.253 357.059 318.881 357.059H332.524C333.152 357.059 333.661 356.584 333.661 355.997V343.247C333.661 342.66 333.152 342.184 332.524 342.184Z" fill="#434750"/>
<path d="M357.126 342.184H343.482C342.855 342.184 342.346 342.66 342.346 343.247V355.997C342.346 356.584 342.855 357.059 343.482 357.059H357.126C357.754 357.059 358.263 356.584 358.263 355.997V343.247C358.263 342.66 357.754 342.184 357.126 342.184Z" fill="#434750"/>
<path d="M411.082 342.184H370.153C369.525 342.184 369.015 342.66 369.015 343.247V355.997C369.015 356.584 369.525 357.059 370.153 357.059H411.082C411.71 357.059 412.219 356.584 412.219 355.997V343.247C412.219 342.66 411.71 342.184 411.082 342.184Z" fill="#434750"/>
<path d="M225.227 320.424H211.584C210.956 320.424 210.447 320.9 210.447 321.487V334.236C210.447 334.823 210.956 335.299 211.584 335.299H225.227C225.855 335.299 226.364 334.823 226.364 334.236V321.487C226.364 320.9 225.855 320.424 225.227 320.424Z" fill="#434750"/>
<path d="M200.626 320.424H173.339C172.711 320.424 172.202 320.9 172.202 321.487V334.236C172.202 334.823 172.711 335.299 173.339 335.299H200.626C201.253 335.299 201.763 334.823 201.763 334.236V321.487C201.763 320.9 201.253 320.424 200.626 320.424Z" fill="#434750"/>
<path d="M249.83 320.424H236.187C235.559 320.424 235.05 320.9 235.05 321.487V334.236C235.05 334.823 235.559 335.299 236.187 335.299H249.83C250.458 335.299 250.967 334.823 250.967 334.236V321.487C250.967 320.9 250.458 320.424 249.83 320.424Z" fill="#434750"/>
<path d="M274.43 320.424H260.786C260.159 320.424 259.65 320.9 259.65 321.487V334.236C259.65 334.823 260.159 335.299 260.786 335.299H274.43C275.058 335.299 275.567 334.823 275.567 334.236V321.487C275.567 320.9 275.058 320.424 274.43 320.424Z" fill="#434750"/>
<path d="M299.033 320.424H285.389C284.761 320.424 284.252 320.9 284.252 321.487V334.236C284.252 334.823 284.761 335.299 285.389 335.299H299.033C299.66 335.299 300.169 334.823 300.169 334.236V321.487C300.169 320.9 299.66 320.424 299.033 320.424Z" fill="#434750"/>
<path d="M323.634 320.424H309.991C309.364 320.424 308.854 320.9 308.854 321.487V334.236C308.854 334.823 309.364 335.299 309.991 335.299H323.634C324.263 335.299 324.772 334.823 324.772 334.236V321.487C324.772 320.9 324.263 320.424 323.634 320.424Z" fill="#434750"/>
<path d="M348.235 320.424H334.592C333.965 320.424 333.455 320.9 333.455 321.487V334.236C333.455 334.823 333.965 335.299 334.592 335.299H348.235C348.864 335.299 349.373 334.823 349.373 334.236V321.487C349.373 320.9 348.864 320.424 348.235 320.424Z" fill="#434750"/>
<path d="M372.838 320.424H359.194C358.567 320.424 358.057 320.9 358.057 321.487V334.236C358.057 334.823 358.567 335.299 359.194 335.299H372.838C373.465 335.299 373.975 334.823 373.975 334.236V321.487C373.975 320.9 373.465 320.424 372.838 320.424Z" fill="#434750"/>
<path d="M411.082 320.424H383.796C383.168 320.424 382.659 320.9 382.659 321.487V334.236C382.659 334.823 383.168 335.299 383.796 335.299H411.082C411.71 335.299 412.219 334.823 412.219 334.236V321.487C412.219 320.9 411.71 320.424 411.082 320.424Z" fill="#434750"/>
<path d="M211.883 299.599H198.24C197.612 299.599 197.103 300.075 197.103 300.662V313.411C197.103 313.998 197.612 314.474 198.24 314.474H211.883C212.511 314.474 213.02 313.998 213.02 313.411V300.662C213.02 300.075 212.511 299.599 211.883 299.599Z" fill="#434750"/>
<path d="M186.983 299.599H173.339C172.711 299.599 172.202 300.075 172.202 300.662V313.411C172.202 313.998 172.711 314.474 173.339 314.474H186.983C187.61 314.474 188.12 313.998 188.12 313.411V300.662C188.12 300.075 187.61 299.599 186.983 299.599Z" fill="#434750"/>
<path d="M236.783 299.599H223.14C222.512 299.599 222.003 300.075 222.003 300.662V313.411C222.003 313.998 222.512 314.474 223.14 314.474H236.783C237.411 314.474 237.92 313.998 237.92 313.411V300.662C237.92 300.075 237.411 299.599 236.783 299.599Z" fill="#434750"/>
<path d="M261.683 299.599H248.04C247.412 299.599 246.903 300.075 246.903 300.662V313.411C246.903 313.998 247.412 314.474 248.04 314.474H261.683C262.311 314.474 262.82 313.998 262.82 313.411V300.662C262.82 300.075 262.311 299.599 261.683 299.599Z" fill="#434750"/>
<path d="M286.583 299.599H272.94C272.312 299.599 271.803 300.075 271.803 300.662V313.411C271.803 313.998 272.312 314.474 272.94 314.474H286.583C287.211 314.474 287.72 313.998 287.72 313.411V300.662C287.72 300.075 287.211 299.599 286.583 299.599Z" fill="#434750"/>
<path d="M311.482 299.599H297.839C297.211 299.599 296.702 300.075 296.702 300.662V313.411C296.702 313.998 297.211 314.474 297.839 314.474H311.482C312.11 314.474 312.619 313.998 312.619 313.411V300.662C312.619 300.075 312.11 299.599 311.482 299.599Z" fill="#434750"/>
<path d="M336.382 299.599H322.739C322.111 299.599 321.602 300.075 321.602 300.662V313.411C321.602 313.998 322.111 314.474 322.739 314.474H336.382C337.01 314.474 337.519 313.998 337.519 313.411V300.662C337.519 300.075 337.01 299.599 336.382 299.599Z" fill="#434750"/>
<path d="M361.282 299.599H347.639C347.011 299.599 346.501 300.075 346.501 300.662V313.411C346.501 313.998 347.011 314.474 347.639 314.474H361.282C361.91 314.474 362.419 313.998 362.419 313.411V300.662C362.419 300.075 361.91 299.599 361.282 299.599Z" fill="#434750"/>
<path d="M386.182 299.599H372.539C371.91 299.599 371.402 300.075 371.402 300.662V313.411C371.402 313.998 371.91 314.474 372.539 314.474H386.182C386.81 314.474 387.318 313.998 387.318 313.411V300.662C387.318 300.075 386.81 299.599 386.182 299.599Z" fill="#434750"/>
<path d="M411.082 299.599H397.439C396.811 299.599 396.302 300.075 396.302 300.662V313.411C396.302 313.998 396.811 314.474 397.439 314.474H411.082C411.71 314.474 412.219 313.998 412.219 313.411V300.662C412.219 300.075 411.71 299.599 411.082 299.599Z" fill="#434750"/>
<path d="M195.571 265.704H388.851V279.99C388.851 281.117 388.371 282.197 387.518 282.995C386.666 283.792 385.509 284.239 384.303 284.239H200.119C198.913 284.239 197.756 283.792 196.904 282.995C196.051 282.197 195.571 281.117 195.571 279.99V265.704Z" fill="#434750"/>
<path opacity="0.12" d="M388.851 265.704H195.571V267.829H388.851V265.704Z" fill="white"/>
<g style="mix-blend-mode:multiply" opacity="0.25">
<path d="M384.303 279.989H200.119C198.913 279.989 197.756 279.541 196.904 278.744C196.051 277.947 195.571 276.866 195.571 275.739V279.989C195.571 281.116 196.051 282.197 196.904 282.994C197.756 283.791 198.913 284.239 200.119 284.239H384.303C385.509 284.239 386.666 283.791 387.518 282.994C388.371 282.197 388.851 281.116 388.851 279.989V275.739C388.851 276.866 388.371 277.947 387.518 278.744C386.666 279.541 385.509 279.989 384.303 279.989Z" fill="#434750"/>
</g>
<path d="M195.571 265.704H388.851V279.99C388.851 281.117 388.371 282.197 387.518 282.995C386.666 283.792 385.509 284.239 384.303 284.239H200.119C198.913 284.239 197.756 283.792 196.904 282.995C196.051 282.197 195.571 281.117 195.571 279.99V265.704Z" stroke="#3B0087" stroke-opacity="0.11" stroke-width="5.08695" stroke-linecap="round" stroke-linejoin="round"/>
<path d="M332.003 392.566H252.417C251.162 392.566 250.144 393.517 250.144 394.691V444.626C250.144 445.8 251.162 446.751 252.417 446.751H332.003C333.259 446.751 334.277 445.8 334.277 444.626V394.691C334.277 393.517 333.259 392.566 332.003 392.566Z" fill="#E6F3FF"/>
<path d="M332.003 392.566H252.417C251.162 392.566 250.144 393.517 250.144 394.691V444.626C250.144 445.8 251.162 446.751 252.417 446.751H332.003C333.259 446.751 334.277 445.8 334.277 444.626V394.691C334.277 393.517 333.259 392.566 332.003 392.566Z" stroke="#434750" stroke-width="2.54348" stroke-linecap="round" stroke-linejoin="round"/>
<path opacity="0.52" d="M292.211 114.973C294.094 114.973 295.622 113.546 295.622 111.785C295.622 110.025 294.094 108.598 292.211 108.598C290.327 108.598 288.8 110.025 288.8 111.785C288.8 113.546 290.327 114.973 292.211 114.973Z" fill="white"/>
<path d="M292.211 114.973C294.094 114.973 295.622 113.546 295.622 111.785C295.622 110.025 294.094 108.598 292.211 108.598C290.327 108.598 288.8 110.025 288.8 111.785C288.8 113.546 290.327 114.973 292.211 114.973Z" stroke="#46505C" stroke-width="2.54348" stroke-linecap="round" stroke-linejoin="round"/>
<path d="M363.11 134.179H349.467C348.839 134.179 348.33 134.654 348.33 135.241C348.33 135.828 348.839 136.303 349.467 136.303H363.11C363.738 136.303 364.247 135.828 364.247 135.241C364.247 134.654 363.738 134.179 363.11 134.179Z" fill="url(#paint1_linear_205_998)"/>
<path d="M392.641 134.179H378.998C378.37 134.179 377.861 134.654 377.861 135.241C377.861 135.828 378.37 136.303 378.998 136.303H392.641C393.269 136.303 393.778 135.828 393.778 135.241C393.778 134.654 393.269 134.179 392.641 134.179Z" fill="url(#paint2_linear_205_998)"/>
<path d="M333.581 134.179H319.938C319.31 134.179 318.801 134.654 318.801 135.241C318.801 135.828 319.31 136.303 319.938 136.303H333.581C334.209 136.303 334.718 135.828 334.718 135.241C334.718 134.654 334.209 134.179 333.581 134.179Z" fill="url(#paint3_linear_205_998)"/>
<path d="M186.741 140.935C189.778 140.935 192.24 138.634 192.24 135.796C192.24 132.958 189.778 130.657 186.741 130.657C183.704 130.657 181.242 132.958 181.242 135.796C181.242 138.634 183.704 140.935 186.741 140.935Z" fill="url(#paint4_linear_205_998)"/>
<g opacity="0.72">
<path opacity="0.72" d="M349.692 192.063H234.595V195.936H349.692V192.063Z" fill="white"/>
<path opacity="0.72" d="M335.137 179.21H249.152V183.139H335.137V179.21Z" fill="white"/>
</g>
<path d="M311.999 222.169H279.243C275.802 222.169 273.011 224.776 273.011 227.993C273.011 231.208 275.802 233.816 279.243 233.816H311.999C315.441 233.816 318.231 231.208 318.231 227.993C318.231 224.776 315.441 222.169 311.999 222.169Z" fill="url(#paint5_linear_205_998)"/>
<defs>
<filter id="filter0_biii_205_998" x="1.72752" y="-42.5091" width="580.967" height="460.165" filterUnits="userSpaceOnUse" color-interpolation-filters="sRGB">
<feFlood flood-opacity="0" result="BackgroundImageFix"/>
<feGaussianBlur in="BackgroundImageFix" stdDeviation="81.5735"/>
<feComposite in2="SourceAlpha" operator="in" result="effect1_backgroundBlur_205_998"/>
<feBlend mode="normal" in="SourceGraphic" in2="effect1_backgroundBlur_205_998" result="shape"/>
<feColorMatrix in="SourceAlpha" type="matrix" values="0 0 0 0 0 0 0 0 0 0 0 0 0 0 0 0 0 0 127 0" result="hardAlpha"/>
<feOffset dy="159.884"/>
<feGaussianBlur stdDeviation="81.5735"/>
<feComposite in2="hardAlpha" operator="arithmetic" k2="-1" k3="1"/>
<feColorMatrix type="matrix" values="0 0 0 0 0.0196078 0 0 0 0 0.65098 0 0 0 0 0.419608 0 0 0 0.3 0"/>
<feBlend mode="normal" in2="shape" result="effect2_innerShadow_205_998"/>
<feColorMatrix in="SourceAlpha" type="matrix" values="0 0 0 0 0 0 0 0 0 0 0 0 0 0 0 0 0 0 127 0" result="hardAlpha"/>
<feOffset dy="6.52588"/>
<feGaussianBlur stdDeviation="8.15735"/>
<feComposite in2="hardAlpha" operator="arithmetic" k2="-1" k3="1"/>
<feColorMatrix type="matrix" values="0 0 0 0 0.211765 0 0 0 0 1 0 0 0 0 0.709804 0 0 0 0.3 0"/>
<feBlend mode="normal" in2="effect2_innerShadow_205_998" result="effect3_innerShadow_205_998"/>
<feColorMatrix in="SourceAlpha" type="matrix" values="0 0 0 0 0 0 0 0 0 0 0 0 0 0 0 0 0 0 127 0" result="hardAlpha"/>
<feOffset dy="1.63147"/>
<feGaussianBlur stdDeviation="32.6294"/>
<feComposite in2="hardAlpha" operator="arithmetic" k2="-1" k3="1"/>
<feColorMatrix type="matrix" values="0 0 0 0 0.211765 0 0 0 0 1 0 0 0 0 0.709804 0 0 0 0.2 0"/>
<feBlend mode="normal" in2="effect3_innerShadow_205_998" result="effect4_innerShadow_205_998"/>
</filter>
<linearGradient id="paint0_linear_205_998" x1="267.5" y1="28" x2="267.5" y2="539" gradientUnits="userSpaceOnUse">
<stop stop-color="#05A66B"/>
<stop offset="1" stop-color="#05A66B" stop-opacity="0.38"/>
</linearGradient>
<linearGradient id="paint1_linear_205_998" x1="356.289" y1="134.179" x2="356.289" y2="136.303" gradientUnits="userSpaceOnUse">
<stop stop-color="#00CE83"/>
<stop offset="1" stop-color="#008253"/>
</linearGradient>
<linearGradient id="paint2_linear_205_998" x1="385.82" y1="134.179" x2="385.82" y2="136.303" gradientUnits="userSpaceOnUse">
<stop stop-color="#00CE83"/>
<stop offset="1" stop-color="#008253"/>
</linearGradient>
<linearGradient id="paint3_linear_205_998" x1="326.759" y1="134.179" x2="326.759" y2="136.303" gradientUnits="userSpaceOnUse">
<stop stop-color="#00CE83"/>
<stop offset="1" stop-color="#008253"/>
</linearGradient>
<linearGradient id="paint4_linear_205_998" x1="186.741" y1="130.657" x2="186.741" y2="140.935" gradientUnits="userSpaceOnUse">
<stop stop-color="#00CE83"/>
<stop offset="1" stop-color="#008253"/>
</linearGradient>
<linearGradient id="paint5_linear_205_998" x1="295.621" y1="222.169" x2="295.621" y2="233.816" gradientUnits="userSpaceOnUse">
<stop stop-color="#00CE83"/>
<stop offset="1" stop-color="#008253"/>
</linearGradient>
</defs>
</svg>
