<svg width="365" height="114" viewBox="0 0 365 114" fill="none" xmlns="http://www.w3.org/2000/svg">
<g clip-path="url(#clip0_372_10)">
<g filter="url(#filter0_i_372_10)">
<rect width="114" height="114" rx="55.8824" fill="#8324FF"/>
<path d="M53.4707 29.9016H34.7727C31.9564 29.9016 29.6733 32.0619 29.6733 34.7269V68.5038H84.0673V50.8112" stroke="white" stroke-width="5.35167" stroke-linecap="round" stroke-linejoin="round"/>
<g filter="url(#filter1_d_372_10)">
<path d="M26.1639 68.5038H89.3312V72.0131C89.3312 77.8275 85.089 82.541 79.8561 82.541H35.639C30.4061 82.541 26.1639 77.8275 26.1639 72.0131V68.5038Z" stroke="white" stroke-width="5.35167" stroke-linejoin="round" shape-rendering="crispEdges"/>
</g>
<path d="M71.4404 34.1222C71.7176 33.8458 72.0466 33.6267 72.4084 33.4775C72.7703 33.3283 73.158 33.2519 73.5495 33.2526C73.9409 33.2532 74.3283 33.331 74.6897 33.4815C75.0511 33.632 75.3792 33.8522 75.6555 34.1295C76.8172 35.2913 76.8264 37.1791 75.6628 38.3445C75.3856 38.6209 75.0567 38.8399 74.6948 38.9892C74.3329 39.1384 73.9452 39.2148 73.5538 39.2141C73.1623 39.2134 72.7749 39.1356 72.4135 38.9852C72.0522 38.8347 71.724 38.6145 71.4478 38.3372C71.1704 38.061 70.9503 37.7328 70.7998 37.3714C70.6493 37.0101 70.5715 36.6226 70.5708 36.2312C70.5702 35.8398 70.6466 35.452 70.7958 35.0902C70.945 34.7283 71.1641 34.3994 71.4404 34.1222ZM74.354 35.4273C74.1407 35.2126 73.8508 35.0914 73.5482 35.0904C73.2455 35.0894 72.9548 35.2086 72.74 35.4218C72.5271 35.6368 72.4082 35.9276 72.4096 36.2303C72.411 36.5329 72.5325 36.8226 72.7474 37.0357C72.9605 37.2507 73.2502 37.3722 73.5529 37.3735C73.8555 37.3749 74.1463 37.2561 74.3613 37.0431C74.5743 36.828 74.6932 36.5372 74.6918 36.2346C74.6904 35.9319 74.5689 35.6404 74.354 35.4273ZM69.854 44.5228L70.161 44.8279C70.8779 45.5467 71.8945 45.7856 72.8117 45.5448L74.3742 47.1073C74.5466 47.2796 74.7803 47.3764 75.024 47.3764C75.2677 47.3764 75.5015 47.2796 75.6738 47.1073L77.6481 45.1331C78.22 44.561 78.5838 43.8139 78.6814 43.0109C78.779 42.2079 78.6048 41.3954 78.1867 40.703L79.1977 39.6919C80.3481 38.5414 81.161 37.0975 81.548 35.5172C81.935 33.9369 81.8812 32.2807 81.3925 30.7288C81.2196 30.1798 80.9167 29.6805 80.5096 29.2735C80.1026 28.8664 79.6034 28.5636 79.0543 28.3906C77.5024 27.9019 75.8463 27.8481 74.2659 28.2351C72.6856 28.6221 71.2417 29.435 70.0912 30.5854L69.0802 31.5964C68.3871 31.1779 67.5737 31.0037 66.77 31.1017C65.9663 31.1996 65.2186 31.5641 64.6464 32.1369L62.6758 34.1093C62.5902 34.1947 62.5223 34.2961 62.476 34.4078C62.4296 34.5194 62.4058 34.6391 62.4058 34.76C62.4058 34.8809 62.4296 35.0006 62.476 35.1123C62.5223 35.2239 62.5902 35.3254 62.6758 35.4107L64.2383 36.9732C64.1161 37.4389 64.118 37.9285 64.2438 38.3932C64.3696 38.8579 64.6149 39.2816 64.9552 39.6221L65.2622 39.9291L63.8412 40.7783C63.7212 40.8501 63.619 40.9482 63.5426 41.0654C63.4662 41.1826 63.4176 41.3156 63.4004 41.4544C63.3832 41.5932 63.3979 41.7341 63.4434 41.8664C63.4889 41.9987 63.564 42.1188 63.6629 42.2177L67.5655 46.1202C67.6643 46.2191 67.7845 46.2942 67.9167 46.3397C68.049 46.3852 68.1899 46.3999 68.3287 46.3827C68.4675 46.3655 68.6006 46.3169 68.7177 46.2405C68.8349 46.1641 68.9331 46.062 69.0048 45.9419L69.854 44.5228ZM79.6389 31.2803C80.0261 32.5111 80.0686 33.8244 79.7616 35.0777C79.4547 36.3309 78.8102 37.4761 77.8981 38.3887L72.7603 43.5265C72.5879 43.6988 72.3542 43.7956 72.1105 43.7956C71.8667 43.7956 71.633 43.6988 71.4606 43.5265L70.3283 42.3941L70.321 42.3868L67.3945 39.4622L67.3872 39.4548L66.2548 38.3206C66.0825 38.1483 65.9857 37.9145 65.9857 37.6708C65.9857 37.4271 66.0825 37.1934 66.2548 37.021L71.3926 31.8869C72.3054 30.9744 73.4509 30.3297 74.7045 30.0228C75.958 29.7159 77.2718 29.7585 78.5029 30.1461C78.7698 30.2303 79.0125 30.3777 79.2103 30.5758C79.408 30.7739 79.5551 31.0169 79.6389 31.2839V31.2803ZM64.9791 46.1036C65.1517 45.9313 65.2487 45.6975 65.2489 45.4536C65.2491 45.2097 65.1524 44.9757 64.98 44.8031C64.8077 44.6305 64.5738 44.5335 64.3299 44.5333C64.086 44.5331 63.8521 44.6298 63.6795 44.8022L61.253 47.2286C61.1676 47.314 61.0998 47.4153 61.0535 47.5268C61.0072 47.6384 60.9833 47.7579 60.9832 47.8787C60.9831 48.1226 61.0798 48.3566 61.2521 48.5292C61.4245 48.7018 61.6583 48.7988 61.9022 48.799C62.023 48.7991 62.1426 48.7754 62.2542 48.7292C62.3658 48.6831 62.4672 48.6154 62.5527 48.5301L64.9791 46.1036ZM63.0269 42.8518C63.1992 43.0242 63.296 43.2579 63.296 43.5016C63.296 43.7454 63.1992 43.9791 63.0269 44.1515L62.0527 45.1257C61.9677 45.2134 61.8662 45.2832 61.754 45.3312C61.6418 45.3792 61.5212 45.4044 61.3992 45.4053C61.2771 45.4062 61.1561 45.3828 61.0432 45.3364C60.9304 45.29 60.8278 45.2216 60.7417 45.1352C60.6555 45.0488 60.5874 44.9461 60.5413 44.8331C60.4953 44.7201 60.4722 44.599 60.4734 44.477C60.4747 44.3549 60.5002 44.2344 60.5485 44.1223C60.5968 44.0102 60.667 43.9089 60.7549 43.8243L61.7291 42.8518C61.9014 42.6801 62.1348 42.5837 62.378 42.5837C62.6213 42.5837 62.8546 42.6801 63.0269 42.8518ZM66.9294 48.054C67.0172 47.9692 67.0872 47.8678 67.1354 47.7557C67.1836 47.6435 67.2089 47.5229 67.21 47.4009C67.2111 47.2788 67.1878 47.1578 67.1416 47.0449C67.0954 46.9319 67.0271 46.8293 66.9408 46.743C66.8545 46.6567 66.7519 46.5884 66.639 46.5422C66.526 46.496 66.405 46.4728 66.2829 46.4738C66.1609 46.4749 66.0403 46.5002 65.9282 46.5484C65.816 46.5966 65.7146 46.6666 65.6298 46.7544L64.6556 47.7286C64.5702 47.8141 64.5026 47.9155 64.4564 48.0271C64.4103 48.1387 64.3866 48.2583 64.3867 48.3791C64.3869 48.623 64.4839 48.8568 64.6565 49.0292C64.8291 49.2015 65.0631 49.2982 65.307 49.2981C65.5508 49.2979 65.7847 49.2008 65.957 49.0282L66.9294 48.054Z" fill="white"/>
</g>
<path d="M146.593 46.5036C146.319 46.7279 145.945 46.9148 145.471 47.0643C145.023 47.2138 144.5 47.2885 143.902 47.2885C143.129 47.2885 142.481 47.1889 141.958 46.9895C141.435 46.7902 141.098 46.4538 140.949 45.9803C140.102 43.6131 139.379 41.6446 138.781 40.0748C138.208 38.5049 137.759 37.1469 137.435 36.0007H137.249C137.174 37.5705 137.111 39.0033 137.062 40.299C137.012 41.5948 136.974 42.8656 136.949 44.1115C136.925 45.3325 136.887 46.5784 136.837 47.8492C136.788 49.12 136.713 50.5154 136.613 52.0354C136.339 52.1102 135.965 52.1974 135.492 52.2971C135.043 52.3967 134.595 52.4466 134.146 52.4466C133.199 52.4466 132.452 52.2846 131.904 51.9607C131.38 51.6367 131.119 51.0761 131.119 50.2787C131.119 49.7305 131.144 48.9207 131.193 47.8492C131.268 46.7528 131.343 45.5069 131.418 44.1115C131.517 42.6912 131.605 41.1961 131.679 39.6262C131.779 38.0564 131.879 36.5115 131.978 34.9915C132.103 33.4466 132.215 32.0262 132.315 30.7305C132.514 30.4315 132.913 30.1325 133.511 29.8335C134.109 29.5095 134.931 29.3476 135.978 29.3476C137.099 29.3476 137.996 29.5344 138.669 29.9082C139.367 30.2571 139.865 30.8426 140.164 31.6649C140.538 32.562 140.936 33.6085 141.36 34.8046C141.784 35.9757 142.195 37.1718 142.593 38.3928C143.017 39.5889 143.403 40.6728 143.752 41.6446H143.939C144.637 39.4518 145.347 37.3089 146.069 35.2157C146.817 33.1226 147.452 31.3784 147.976 29.983C148.325 29.7836 148.761 29.6341 149.284 29.5344C149.832 29.4098 150.405 29.3476 151.003 29.3476C152.075 29.3476 152.934 29.5095 153.582 29.8335C154.255 30.1325 154.654 30.5935 154.778 31.2164C154.878 31.6898 154.978 32.4374 155.077 33.459C155.202 34.4807 155.327 35.6643 155.451 37.0098C155.576 38.3305 155.7 39.7259 155.825 41.1961C155.949 42.6413 156.062 44.0617 156.161 45.4571C156.286 46.8276 156.386 48.061 156.46 49.1574C156.535 50.2538 156.585 51.1259 156.61 51.7738C156.236 51.998 155.837 52.16 155.414 52.2597C155.015 52.3843 154.504 52.4466 153.881 52.4466C153.084 52.4466 152.399 52.2971 151.826 51.998C151.277 51.699 150.978 51.1259 150.929 50.2787C150.804 48.3351 150.704 46.4912 150.629 44.7469C150.555 42.9777 150.492 41.3705 150.443 39.9253C150.418 38.4551 150.38 37.1967 150.33 36.1502H150.144C149.82 37.2217 149.359 38.5797 148.761 40.2243C148.188 41.8439 147.465 43.9371 146.593 46.5036ZM166.999 48.5967C167.573 48.5967 168.133 48.5469 168.681 48.4472C169.255 48.3226 169.666 48.1856 169.915 48.0361V44.4479L166.775 44.7469C165.928 44.7967 165.255 44.9712 164.757 45.2702C164.258 45.5692 164.009 46.0177 164.009 46.6157C164.009 47.2138 164.246 47.6997 164.719 48.0735C165.193 48.4223 165.953 48.5967 166.999 48.5967ZM166.775 33.6459C169.367 33.6459 171.435 34.1941 172.98 35.2905C174.525 36.362 175.297 38.0315 175.297 40.299V48.7836C175.297 49.4066 175.135 49.9174 174.811 50.3161C174.487 50.6898 174.076 51.0138 173.578 51.2879C172.83 51.7364 171.896 52.0853 170.775 52.3344C169.678 52.6085 168.42 52.7456 166.999 52.7456C164.458 52.7456 162.427 52.2472 160.907 51.2505C159.412 50.2538 158.664 48.7712 158.664 46.8026C158.664 45.1082 159.188 43.8125 160.234 42.9154C161.281 41.9935 162.838 41.4328 164.906 41.2335L169.878 40.7102V40.2617C169.878 39.4144 169.541 38.8039 168.868 38.4302C168.22 38.0564 167.286 37.8695 166.065 37.8695C165.118 37.8695 164.184 37.9817 163.262 38.2059C162.365 38.4302 161.555 38.6918 160.832 38.9908C160.533 38.7915 160.272 38.4925 160.047 38.0938C159.848 37.6702 159.748 37.2341 159.748 36.7856C159.748 35.739 160.321 34.979 161.468 34.5056C162.19 34.2066 163.025 33.9948 163.972 33.8702C164.944 33.7207 165.878 33.6459 166.775 33.6459ZM183.976 39.0282V43.7003H178.444V38.3554C178.444 37.6577 178.606 37.0721 178.93 36.5987C179.279 36.1003 179.753 35.6643 180.351 35.2905C181.173 34.7921 182.157 34.4059 183.303 34.1318C184.475 33.8328 185.696 33.6833 186.966 33.6833C189.508 33.6833 190.779 34.5305 190.779 36.2249C190.779 36.6236 190.717 36.9974 190.592 37.3462C190.492 37.6951 190.368 37.9941 190.218 38.2433C189.969 38.1935 189.658 38.1561 189.284 38.1312C188.935 38.0813 188.549 38.0564 188.125 38.0564C187.378 38.0564 186.63 38.1436 185.882 38.318C185.135 38.4925 184.5 38.7292 183.976 39.0282ZM178.444 42.28L183.976 42.3921V52.1102C183.727 52.1849 183.378 52.2472 182.93 52.2971C182.481 52.3718 181.995 52.4092 181.472 52.4092C180.425 52.4092 179.653 52.2223 179.155 51.8485C178.681 51.4748 178.444 50.802 178.444 49.8302V42.28ZM199.397 51.4374C197.927 51.4374 196.557 51.1633 195.286 50.6151C194.04 50.042 193.031 49.1076 192.258 47.8118C191.511 46.4912 191.137 44.7718 191.137 42.6538C191.137 40.6853 191.523 39.0407 192.296 37.72C193.093 36.3744 194.202 35.3653 195.622 34.6925C197.042 33.9948 198.687 33.6459 200.556 33.6459C201.901 33.6459 203.147 33.8328 204.294 34.2066C205.465 34.5554 206.374 34.9417 207.022 35.3653C207.471 35.6643 207.832 36.0256 208.106 36.4492C208.38 36.8479 208.517 37.3587 208.517 37.9817V49.718H203.172V38.6171C202.898 38.4676 202.562 38.3305 202.163 38.2059C201.789 38.0813 201.316 38.019 200.743 38.019C199.547 38.019 198.562 38.3928 197.79 39.1403C197.042 39.8879 196.669 41.059 196.669 42.6538C196.669 44.398 197.018 45.6066 197.715 46.2794C198.438 46.9272 199.335 47.2512 200.406 47.2512C201.229 47.2512 201.914 47.1141 202.462 46.84C203.01 46.541 203.484 46.2171 203.882 45.8682L204.032 50.2787C203.509 50.6026 202.873 50.8767 202.126 51.101C201.378 51.3253 200.469 51.4374 199.397 51.4374ZM203.284 51.9607V48.4846H208.517V52.1102C208.517 53.8544 208.106 55.2748 207.284 56.3712C206.486 57.4676 205.39 58.2774 203.995 58.8007C202.624 59.3239 201.079 59.5856 199.36 59.5856C198.064 59.5856 196.905 59.4735 195.884 59.2492C194.887 59.0249 194.127 58.7384 193.604 58.3895C192.757 57.8413 192.333 57.0689 192.333 56.0721C192.333 55.5489 192.433 55.0754 192.632 54.6518C192.856 54.2531 193.118 53.9541 193.417 53.7548C194.09 54.1535 194.887 54.4898 195.809 54.7639C196.731 55.063 197.703 55.2125 198.724 55.2125C200.12 55.2125 201.229 54.9508 202.051 54.4276C202.873 53.9292 203.284 53.1069 203.284 51.9607ZM229.845 43.1771C229.845 45.1207 229.446 46.8151 228.649 48.2603C227.877 49.6807 226.78 50.7771 225.36 51.5495C223.94 52.322 222.27 52.7082 220.351 52.7082C218.458 52.7082 216.788 52.3344 215.343 51.5869C213.923 50.8144 212.814 49.718 212.016 48.2977C211.244 46.8525 210.858 45.1456 210.858 43.1771C210.858 41.2085 211.256 39.5266 212.054 38.1312C212.851 36.7108 213.96 35.6144 215.38 34.842C216.826 34.0446 218.483 33.6459 220.351 33.6459C222.245 33.6459 223.902 34.0446 225.323 34.842C226.743 35.6144 227.852 36.7233 228.649 38.1685C229.446 39.5889 229.845 41.2584 229.845 43.1771ZM220.351 38.019C219.18 38.019 218.246 38.4676 217.548 39.3646C216.875 40.2617 216.539 41.5325 216.539 43.1771C216.539 44.8466 216.875 46.1298 217.548 47.0269C218.221 47.899 219.155 48.3351 220.351 48.3351C221.547 48.3351 222.482 47.8866 223.155 46.9895C223.827 46.0925 224.164 44.8217 224.164 43.1771C224.164 41.5574 223.827 40.299 223.155 39.402C222.482 38.48 221.547 38.019 220.351 38.019ZM239.052 36.4118H244.733V51.9233L242.079 52.2223C241.157 52.2223 240.422 51.9482 239.874 51.4C239.326 50.8518 239.052 50.1167 239.052 49.1948V36.4118ZM242.079 52.2223V47.5876H253.816C253.99 47.8367 254.14 48.1607 254.264 48.5594C254.389 48.9331 254.451 49.3567 254.451 49.8302C254.451 50.6276 254.277 51.2256 253.928 51.6243C253.579 52.023 253.093 52.2223 252.47 52.2223H242.079ZM244.733 43.5135H239.052V29.4223C239.301 29.3725 239.675 29.3102 240.173 29.2354C240.697 29.1607 241.195 29.1233 241.668 29.1233C242.765 29.1233 243.55 29.3102 244.023 29.6839C244.497 30.0577 244.733 30.7679 244.733 31.8144V43.5135ZM258.712 45.7935L258.488 42.0557L267.757 40.598C267.708 39.9003 267.409 39.2525 266.86 38.6544C266.312 38.0564 265.502 37.7574 264.431 37.7574C263.31 37.7574 262.375 38.1436 261.628 38.9161C260.88 39.6636 260.481 40.7351 260.432 42.1305L260.618 44.7095C260.843 46.08 261.428 47.0643 262.375 47.6623C263.322 48.2354 264.443 48.522 265.739 48.522C266.786 48.522 267.77 48.3725 268.692 48.0735C269.614 47.7744 270.361 47.463 270.935 47.139C271.308 47.3633 271.607 47.6748 271.832 48.0735C272.081 48.4721 272.205 48.8957 272.205 49.3443C272.205 50.0918 271.906 50.7148 271.308 51.2131C270.735 51.7115 269.925 52.0853 268.879 52.3344C267.857 52.5836 266.686 52.7082 265.365 52.7082C263.447 52.7082 261.715 52.3469 260.17 51.6243C258.65 50.9017 257.454 49.8177 256.582 48.3725C255.71 46.9272 255.274 45.1207 255.274 42.9528C255.274 41.358 255.523 39.9751 256.021 38.8039C256.544 37.6328 257.23 36.6735 258.077 35.9259C258.949 35.1535 259.921 34.5803 260.992 34.2066C262.089 33.8328 263.222 33.6459 264.394 33.6459C266.113 33.6459 267.608 33.9948 268.879 34.6925C270.175 35.3653 271.184 36.2872 271.906 37.4584C272.629 38.6295 272.99 39.9876 272.99 41.5325C272.99 42.3049 272.778 42.8905 272.355 43.2892C271.931 43.6879 271.346 43.9371 270.598 44.0367L258.712 45.7935ZM289.846 46.9148C289.846 48.7338 289.161 50.1666 287.79 51.2131C286.42 52.2348 284.426 52.7456 281.81 52.7456C279.767 52.7456 278.085 52.4466 276.764 51.8485C275.444 51.2505 274.783 50.3659 274.783 49.1948C274.783 48.6715 274.895 48.223 275.12 47.8492C275.344 47.4505 275.63 47.139 275.979 46.9148C276.677 47.3135 277.487 47.6872 278.409 48.0361C279.356 48.36 280.427 48.522 281.623 48.522C283.442 48.522 284.352 47.9987 284.352 46.9521C284.352 46.5036 284.19 46.1548 283.866 45.9056C283.542 45.6315 283.006 45.4321 282.259 45.3076L280.689 44.9338C278.695 44.5102 277.2 43.8623 276.204 42.9902C275.232 42.0931 274.746 40.8721 274.746 39.3272C274.746 37.583 275.444 36.2 276.839 35.1784C278.259 34.1318 280.165 33.6085 282.558 33.6085C283.754 33.6085 284.838 33.7331 285.809 33.9823C286.806 34.2066 287.591 34.5679 288.164 35.0662C288.737 35.5397 289.024 36.1377 289.024 36.8603C289.024 37.3587 288.924 37.7948 288.725 38.1685C288.525 38.5423 288.264 38.8538 287.94 39.103C287.666 38.9285 287.242 38.7417 286.669 38.5423C286.121 38.343 285.51 38.181 284.838 38.0564C284.19 37.9318 283.579 37.8695 283.006 37.8695C282.109 37.8695 281.411 37.9941 280.913 38.2433C280.415 38.4676 280.165 38.8289 280.165 39.3272C280.165 39.6512 280.303 39.9377 280.577 40.1869C280.876 40.4112 281.386 40.598 282.109 40.7476L283.604 41.1213C285.822 41.6197 287.417 42.3423 288.388 43.2892C289.36 44.2112 289.846 45.4197 289.846 46.9148ZM309.336 40.5233V44.0367H303.767V40.7102C303.767 39.7882 303.493 39.1154 302.945 38.6918C302.421 38.2433 301.724 38.019 300.852 38.019C300.229 38.019 299.656 38.1062 299.132 38.2807C298.609 38.4302 298.136 38.6171 297.712 38.8413V44.0367H292.18V38.2059C292.18 37.583 292.305 37.0721 292.554 36.6735C292.828 36.2498 293.214 35.8761 293.713 35.5521C294.51 35.0039 295.532 34.5554 296.778 34.2066C298.023 33.8328 299.394 33.6459 300.889 33.6459C303.58 33.6459 305.661 34.2439 307.131 35.44C308.601 36.6112 309.336 38.3056 309.336 40.5233ZM292.18 42.3174H297.712V52.1102C297.463 52.1849 297.114 52.2472 296.665 52.2971C296.217 52.3718 295.731 52.4092 295.208 52.4092C294.161 52.4092 293.389 52.2223 292.89 51.8485C292.417 51.4748 292.18 50.802 292.18 49.8302V42.3174ZM303.767 42.3174H309.336V52.1102C309.087 52.1849 308.738 52.2472 308.29 52.2971C307.841 52.3718 307.355 52.4092 306.832 52.4092C305.785 52.4092 305.013 52.2223 304.515 51.8485C304.016 51.4748 303.767 50.802 303.767 49.8302V42.3174ZM312.371 29.0485C312.371 28.2013 312.658 27.4912 313.231 26.918C313.829 26.3449 314.576 26.0584 315.473 26.0584C316.395 26.0584 317.143 26.3449 317.716 26.918C318.289 27.4912 318.576 28.2013 318.576 29.0485C318.576 29.8708 318.289 30.581 317.716 31.179C317.143 31.7771 316.395 32.0761 315.473 32.0761C314.576 32.0761 313.829 31.7771 313.231 31.179C312.658 30.581 312.371 29.8708 312.371 29.0485ZM312.707 42.28H318.239V52.1102C318.015 52.1849 317.679 52.2472 317.23 52.2971C316.782 52.3718 316.296 52.4092 315.772 52.4092C314.701 52.4092 313.916 52.2223 313.418 51.8485C312.944 51.4748 312.707 50.802 312.707 49.8302V42.28ZM318.239 45.158H312.707V34.4308C312.932 34.3561 313.268 34.2813 313.717 34.2066C314.19 34.1318 314.688 34.0944 315.212 34.0944C316.283 34.0944 317.056 34.2813 317.529 34.6551C318.003 35.0039 318.239 35.6892 318.239 36.7108V45.158ZM328.984 48.5967C329.557 48.5967 330.117 48.5469 330.666 48.4472C331.239 48.3226 331.65 48.1856 331.899 48.0361V44.4479L328.759 44.7469C327.912 44.7967 327.239 44.9712 326.741 45.2702C326.243 45.5692 325.994 46.0177 325.994 46.6157C325.994 47.2138 326.23 47.6997 326.704 48.0735C327.177 48.4223 327.937 48.5967 328.984 48.5967ZM328.759 33.6459C331.351 33.6459 333.419 34.1941 334.964 35.2905C336.509 36.362 337.281 38.0315 337.281 40.299V48.7836C337.281 49.4066 337.119 49.9174 336.796 50.3161C336.472 50.6898 336.06 51.0138 335.562 51.2879C334.815 51.7364 333.88 52.0853 332.759 52.3344C331.662 52.6085 330.404 52.7456 328.984 52.7456C326.442 52.7456 324.411 52.2472 322.891 51.2505C321.396 50.2538 320.649 48.7712 320.649 46.8026C320.649 45.1082 321.172 43.8125 322.218 42.9154C323.265 41.9935 324.822 41.4328 326.891 41.2335L331.862 40.7102V40.2617C331.862 39.4144 331.525 38.8039 330.853 38.4302C330.205 38.0564 329.27 37.8695 328.049 37.8695C327.102 37.8695 326.168 37.9817 325.246 38.2059C324.349 38.4302 323.539 38.6918 322.817 38.9908C322.517 38.7915 322.256 38.4925 322.032 38.0938C321.832 37.6702 321.733 37.2341 321.733 36.7856C321.733 35.739 322.306 34.979 323.452 34.5056C324.175 34.2066 325.009 33.9948 325.956 33.8702C326.928 33.7207 327.862 33.6459 328.759 33.6459ZM348.427 44.9712L344.428 42.4295L352.875 33.9076C353.997 33.9325 354.894 34.1941 355.566 34.6925C356.264 35.1908 356.613 35.8138 356.613 36.5613C356.613 37.2092 356.389 37.7948 355.94 38.318C355.492 38.8164 354.806 39.4643 353.884 40.2617L348.427 44.9712ZM344.652 43.2144L349.063 41.2708L357.323 49.2695C357.223 50.2662 356.924 51.0512 356.426 51.6243C355.928 52.1725 355.218 52.4466 354.296 52.4466C353.623 52.4466 353 52.2846 352.427 51.9607C351.879 51.6118 351.293 51.0512 350.67 50.2787L344.652 43.2144ZM340.503 42.2426L346.035 42.3548V52.1102C345.786 52.1849 345.437 52.2472 344.989 52.2971C344.54 52.3718 344.054 52.4092 343.531 52.4092C342.484 52.4092 341.712 52.2223 341.214 51.8485C340.74 51.4748 340.503 50.802 340.503 49.8302V42.2426ZM346.035 45.2328L340.503 45.1207V27.8151C340.728 27.7403 341.064 27.6656 341.513 27.5908C341.961 27.5161 342.447 27.4787 342.97 27.4787C344.042 27.4787 344.814 27.6656 345.288 28.0394C345.786 28.4131 346.035 29.0984 346.035 30.0951V45.2328Z" fill="white"/>
<path d="M191.226 82.6997V75.9744H195.145V83.2563C195.145 83.6428 195.06 83.9752 194.89 84.2535C194.736 84.5318 194.48 84.7791 194.125 84.9956C193.676 85.2893 193.097 85.5444 192.386 85.7609C191.674 85.9928 190.863 86.1088 189.95 86.1088C188.605 86.1088 187.454 85.8846 186.495 85.4362C185.537 84.9879 184.802 84.3231 184.292 83.4418C183.782 82.5451 183.527 81.4474 183.527 80.1487C183.527 78.7882 183.789 77.6673 184.315 76.7861C184.841 75.8894 185.552 75.2246 186.449 74.7917C187.361 74.3433 188.374 74.1191 189.487 74.1191C190.028 74.1191 190.499 74.1732 190.901 74.2815C191.303 74.3897 191.636 74.5134 191.899 74.6525V77.8528C191.698 77.6982 191.435 77.5514 191.11 77.4122C190.801 77.2731 190.445 77.2035 190.043 77.2035C189.518 77.2035 189.062 77.3117 188.675 77.5282C188.304 77.7446 188.018 78.0693 187.817 78.5022C187.616 78.9351 187.515 79.4839 187.515 80.1487C187.515 81.1227 187.724 81.8417 188.142 82.3055C188.575 82.7693 189.17 83.0012 189.927 83.0012C190.206 83.0012 190.461 82.9703 190.693 82.9084C190.925 82.8311 191.102 82.7616 191.226 82.6997ZM195.145 76.7165H191.203V70.6173C191.373 70.5709 191.612 70.5246 191.922 70.4782C192.246 70.4318 192.594 70.4086 192.965 70.4086C193.738 70.4086 194.295 70.54 194.635 70.8028C194.975 71.0502 195.145 71.5372 195.145 72.2639V76.7165ZM199.504 81.8648L199.364 79.2675L204.722 78.3862C204.691 78.077 204.536 77.7678 204.258 77.4586C203.979 77.1494 203.547 76.9948 202.959 76.9948C202.341 76.9948 201.823 77.1958 201.405 77.5977C201.003 77.9997 200.787 78.5718 200.756 79.3139L200.895 81.2619C201.05 81.9731 201.398 82.4678 201.939 82.7461C202.495 83.0244 203.114 83.1635 203.794 83.1635C204.443 83.1635 205.062 83.0785 205.649 82.9084C206.237 82.7384 206.708 82.5528 207.064 82.3518C207.311 82.5065 207.52 82.7229 207.69 83.0012C207.86 83.2795 207.945 83.5732 207.945 83.8824C207.945 84.3926 207.752 84.8178 207.365 85.1579C206.994 85.4826 206.476 85.7222 205.812 85.8768C205.147 86.0315 204.381 86.1088 203.516 86.1088C202.31 86.1088 201.22 85.8846 200.246 85.4362C199.287 84.9724 198.522 84.2844 197.95 83.3722C197.393 82.4601 197.115 81.316 197.115 79.94C197.115 78.9196 197.277 78.0384 197.602 77.2963C197.942 76.5542 198.39 75.9512 198.947 75.4874C199.504 75.0236 200.122 74.6834 200.802 74.467C201.498 74.2351 202.209 74.1191 202.936 74.1191C204.034 74.1191 204.992 74.3356 205.812 74.7685C206.631 75.1859 207.273 75.7657 207.736 76.5078C208.2 77.2344 208.432 78.077 208.432 79.0356C208.432 79.5612 208.285 79.9632 207.991 80.2415C207.698 80.5198 207.288 80.6976 206.762 80.7749L199.504 81.8648ZM219.191 74.2351C219.732 74.2351 220.188 74.351 220.559 74.5829C220.93 74.8149 221.116 75.2168 221.116 75.7889C221.116 76.0826 221.038 76.531 220.884 77.1339C220.729 77.7369 220.528 78.4249 220.281 79.1979C220.033 79.9555 219.755 80.7362 219.446 81.5402C219.152 82.3287 218.858 83.063 218.565 83.7433C218.271 84.4236 218.008 84.9724 217.776 85.3898C217.575 85.5444 217.258 85.6759 216.825 85.7841C216.408 85.9078 215.936 85.9696 215.411 85.9696C214.808 85.9696 214.282 85.8923 213.834 85.7377C213.401 85.5831 213.099 85.3357 212.929 84.9956C212.759 84.6709 212.55 84.2148 212.303 83.6273C212.071 83.0398 211.816 82.375 211.538 81.6329C211.275 80.8754 211.012 80.1023 210.749 79.3139C210.487 78.5099 210.239 77.7369 210.007 76.9948C209.791 76.2527 209.621 75.6033 209.497 75.0468C209.713 74.8303 210 74.6448 210.355 74.4902C210.726 74.3201 211.128 74.2351 211.561 74.2351C212.102 74.2351 212.55 74.351 212.906 74.5829C213.262 74.7994 213.517 75.2168 213.671 75.8352L214.576 79.3834C214.7 79.8318 214.815 80.2647 214.924 80.6821C215.032 81.0841 215.125 81.4474 215.202 81.7721C215.295 82.0968 215.364 82.3673 215.411 82.5838H215.527C215.82 81.4397 216.13 80.1719 216.454 78.7805C216.779 77.3736 217.073 76.0053 217.336 74.6757C217.892 74.382 218.511 74.2351 219.191 74.2351ZM234.178 83.0476L232.671 84.3463C232.022 84.9956 231.249 85.4517 230.352 85.7145C229.455 85.9773 228.605 86.1088 227.801 86.1088C226.595 86.1088 225.575 85.9078 224.74 85.5058C223.905 85.0884 223.263 84.5318 222.815 83.8361C222.382 83.1249 222.166 82.3287 222.166 81.4474C222.166 80.6744 222.32 80.0096 222.629 79.453C222.939 78.881 223.341 78.4017 223.835 78.0152C224.33 77.6287 224.856 77.3349 225.412 77.1339L227.244 79.453C226.981 79.5303 226.742 79.6617 226.525 79.8472C226.324 80.0173 226.162 80.2183 226.038 80.4502C225.93 80.6667 225.876 80.914 225.876 81.1923C225.876 81.718 226.054 82.1663 226.409 82.5374C226.781 82.9084 227.322 83.094 228.033 83.094C228.28 83.094 228.651 83.0398 229.146 82.9316C229.641 82.8079 230.12 82.5219 230.584 82.0736L231.79 80.2415C231.96 79.7313 232.06 79.1747 232.091 78.5718C232.138 77.9533 232.161 77.4199 232.161 76.9716C232.455 76.8479 232.733 76.7629 232.996 76.7165C233.258 76.6547 233.514 76.6237 233.761 76.6237C234.488 76.6237 234.967 76.8247 235.199 77.2267C235.431 77.6287 235.547 78.1466 235.547 78.7805C235.547 79.4144 235.438 80.1023 235.222 80.8445C235.021 81.5866 234.673 82.3209 234.178 83.0476ZM234.457 86.0624C233.838 86.0624 233.235 85.7686 232.648 85.1811L226.131 78.6645L225.505 77.6673C224.918 77.018 224.554 76.4769 224.415 76.044C224.276 75.5956 224.206 75.1936 224.206 74.838C224.206 74.1887 224.376 73.5935 224.717 73.0524C225.057 72.5112 225.544 72.0861 226.178 71.7769C226.827 71.4522 227.615 71.2899 228.543 71.2899C229.517 71.2899 230.205 71.4677 230.607 71.8232C231.009 72.1634 231.21 72.604 231.21 73.1451C231.21 73.3925 231.156 73.6476 231.048 73.9104C230.955 74.1578 230.808 74.382 230.607 74.5829C230.437 74.5056 230.236 74.4438 230.004 74.3974C229.788 74.351 229.556 74.3278 229.308 74.3278C228.906 74.3278 228.574 74.4206 228.311 74.6061C228.048 74.7762 227.917 75.039 227.917 75.3946C227.917 75.6265 228.002 75.8507 228.172 76.0672C228.342 76.2836 228.605 76.5619 228.96 76.902L236.381 84.068C236.351 84.64 236.15 85.1193 235.779 85.5058C235.407 85.8768 234.967 86.0624 234.457 86.0624ZM245.353 82.6997V75.9744H249.272V83.2563C249.272 83.6428 249.187 83.9752 249.017 84.2535C248.862 84.5318 248.607 84.7791 248.252 84.9956C247.803 85.2893 247.224 85.5444 246.512 85.7609C245.801 85.9928 244.99 86.1088 244.077 86.1088C242.732 86.1088 241.58 85.8846 240.622 85.4362C239.663 84.9879 238.929 84.3231 238.419 83.4418C237.909 82.5451 237.654 81.4474 237.654 80.1487C237.654 78.7882 237.916 77.6673 238.442 76.7861C238.968 75.8894 239.679 75.2246 240.576 74.7917C241.488 74.3433 242.5 74.1191 243.614 74.1191C244.155 74.1191 244.626 74.1732 245.028 74.2815C245.43 74.3897 245.763 74.5134 246.025 74.6525V77.8528C245.824 77.6982 245.562 77.5514 245.237 77.4122C244.928 77.2731 244.572 77.2035 244.17 77.2035C243.644 77.2035 243.188 77.3117 242.802 77.5282C242.431 77.7446 242.145 78.0693 241.944 78.5022C241.743 78.9351 241.642 79.4839 241.642 80.1487C241.642 81.1227 241.851 81.8417 242.268 82.3055C242.701 82.7693 243.297 83.0012 244.054 83.0012C244.332 83.0012 244.588 82.9703 244.819 82.9084C245.051 82.8311 245.229 82.7616 245.353 82.6997ZM249.272 76.7165H245.33V70.6173C245.5 70.5709 245.739 70.5246 246.049 70.4782C246.373 70.4318 246.721 70.4086 247.092 70.4086C247.865 70.4086 248.422 70.54 248.762 70.8028C249.102 71.0502 249.272 71.5372 249.272 72.2639V76.7165ZM253.631 81.8648L253.491 79.2675L258.848 78.3862C258.818 78.077 258.663 77.7678 258.385 77.4586C258.106 77.1494 257.673 76.9948 257.086 76.9948C256.468 76.9948 255.95 77.1958 255.532 77.5977C255.13 77.9997 254.914 78.5718 254.883 79.3139L255.022 81.2619C255.177 81.9731 255.524 82.4678 256.066 82.7461C256.622 83.0244 257.241 83.1635 257.921 83.1635C258.57 83.1635 259.189 83.0785 259.776 82.9084C260.364 82.7384 260.835 82.5528 261.191 82.3518C261.438 82.5065 261.647 82.7229 261.817 83.0012C261.987 83.2795 262.072 83.5732 262.072 83.8824C262.072 84.3926 261.879 84.8178 261.492 85.1579C261.121 85.4826 260.603 85.7222 259.938 85.8768C259.274 86.0315 258.508 86.1088 257.643 86.1088C256.437 86.1088 255.347 85.8846 254.373 85.4362C253.414 84.9724 252.649 84.2844 252.077 83.3722C251.52 82.4601 251.242 81.316 251.242 79.94C251.242 78.9196 251.404 78.0384 251.729 77.2963C252.069 76.5542 252.517 75.9512 253.074 75.4874C253.631 75.0236 254.249 74.6834 254.929 74.467C255.625 74.2351 256.336 74.1191 257.063 74.1191C258.16 74.1191 259.119 74.3356 259.938 74.7685C260.758 75.1859 261.399 75.7657 261.863 76.5078C262.327 77.2344 262.559 78.077 262.559 79.0356C262.559 79.5612 262.412 79.9632 262.118 80.2415C261.825 80.5198 261.415 80.6976 260.889 80.7749L253.631 81.8648ZM273.965 82.375C273.965 83.55 273.516 84.4699 272.62 85.1347C271.739 85.7995 270.448 86.1319 268.747 86.1319C267.433 86.1319 266.351 85.9464 265.5 85.5754C264.665 85.1889 264.248 84.5936 264.248 83.7897C264.248 83.4186 264.325 83.1017 264.48 82.8389C264.634 82.576 264.82 82.3673 265.036 82.2127C265.485 82.4601 265.995 82.6843 266.567 82.8852C267.154 83.0708 267.827 83.1635 268.585 83.1635C269.574 83.1635 270.069 82.9084 270.069 82.3982C270.069 82.1818 269.976 82.0117 269.79 81.888C269.605 81.7644 269.296 81.6639 268.863 81.5866L268.167 81.4474C266.838 81.1846 265.84 80.7671 265.176 80.1951C264.511 79.6231 264.178 78.8191 264.178 77.7833C264.178 76.6237 264.65 75.7193 265.593 75.07C266.536 74.4206 267.765 74.0959 269.28 74.0959C270.038 74.0959 270.726 74.1732 271.344 74.3278C271.978 74.467 272.481 74.6989 272.852 75.0236C273.223 75.3328 273.408 75.7348 273.408 76.2295C273.408 76.5696 273.339 76.8711 273.2 77.1339C273.076 77.3968 272.914 77.6132 272.713 77.7833C272.542 77.675 272.272 77.5668 271.901 77.4586C271.545 77.3504 271.159 77.2576 270.741 77.1803C270.324 77.103 269.953 77.0644 269.628 77.0644C269.118 77.0644 268.724 77.1262 268.445 77.2499C268.167 77.3581 268.028 77.5359 268.028 77.7833C268.028 77.9533 268.105 78.0925 268.26 78.2007C268.415 78.3089 268.708 78.4094 269.141 78.5022L269.86 78.6645C271.344 79.0046 272.396 79.4762 273.014 80.0792C273.648 80.6667 273.965 81.4319 273.965 82.375ZM275.778 71.3362C275.778 70.7487 275.979 70.254 276.381 69.852C276.783 69.4501 277.301 69.2491 277.935 69.2491C278.569 69.2491 279.087 69.4501 279.489 69.852C279.891 70.254 280.092 70.7487 280.092 71.3362C280.092 71.9083 279.891 72.403 279.489 72.8204C279.087 73.2224 278.569 73.4234 277.935 73.4234C277.301 73.4234 276.783 73.2224 276.381 72.8204C275.979 72.403 275.778 71.9083 275.778 71.3362ZM275.964 79.6153H279.906V85.7145C279.736 85.7609 279.489 85.8073 279.164 85.8537C278.855 85.9 278.515 85.9232 278.144 85.9232C277.386 85.9232 276.829 85.7918 276.474 85.529C276.134 85.2662 275.964 84.7791 275.964 84.068V79.6153ZM279.906 81.6793H275.964V74.6293C276.134 74.5829 276.373 74.5366 276.682 74.4902C277.007 74.4438 277.355 74.4206 277.726 74.4206C278.499 74.4206 279.056 74.552 279.396 74.8149C279.736 75.0622 279.906 75.5492 279.906 76.2759V81.6793ZM287.077 85.2739C286.15 85.2739 285.292 85.0961 284.503 84.7405C283.715 84.3849 283.081 83.8051 282.601 83.0012C282.138 82.1818 281.906 81.1073 281.906 79.7777C281.906 78.5408 282.153 77.505 282.648 76.6701C283.143 75.8198 283.838 75.1859 284.735 74.7685C285.647 74.3356 286.706 74.1191 287.912 74.1191C288.793 74.1191 289.605 74.2351 290.347 74.467C291.105 74.6989 291.684 74.9463 292.086 75.2091C292.396 75.4101 292.635 75.6497 292.805 75.928C292.991 76.2063 293.084 76.5542 293.084 76.9716V84.2767H289.304V77.4818C289.149 77.4045 288.979 77.3426 288.793 77.2963C288.608 77.2344 288.368 77.2035 288.074 77.2035C287.41 77.2035 286.868 77.4122 286.451 77.8297C286.034 78.2316 285.825 78.8887 285.825 79.8009C285.825 80.7749 286.01 81.4397 286.381 81.7953C286.768 82.1509 287.247 82.3287 287.819 82.3287C288.283 82.3287 288.67 82.2514 288.979 82.0968C289.288 81.9267 289.566 81.7412 289.814 81.5402L289.93 84.6245C289.574 84.8101 289.164 84.9647 288.701 85.0884C288.252 85.212 287.711 85.2739 287.077 85.2739ZM289.373 85.4826V83.3954H293.084V85.5754C293.084 86.6576 292.821 87.5466 292.295 88.2423C291.769 88.9535 291.058 89.4791 290.162 89.8193C289.28 90.1594 288.291 90.3295 287.193 90.3295C286.374 90.3295 285.639 90.2599 284.99 90.1208C284.356 89.9971 283.854 89.8115 283.483 89.5642C282.926 89.1931 282.648 88.6675 282.648 87.9872C282.648 87.6316 282.717 87.3069 282.856 87.0132C283.011 86.7194 283.181 86.503 283.367 86.3639C283.815 86.6112 284.318 86.8199 284.874 86.99C285.446 87.1601 286.041 87.2451 286.66 87.2451C287.479 87.2451 288.136 87.106 288.631 86.8277C289.126 86.5494 289.373 86.101 289.373 85.4826ZM306.614 78.479V80.6125H302.671V78.5949C302.671 78.1157 302.524 77.7678 302.231 77.5514C301.952 77.3195 301.581 77.2035 301.118 77.2035C300.808 77.2035 300.515 77.2422 300.236 77.3195C299.974 77.3968 299.718 77.4973 299.471 77.6209V80.6125H295.529V77.0875C295.529 76.6701 295.614 76.33 295.784 76.0672C295.969 75.8043 296.217 75.5647 296.526 75.3482C297.051 74.9772 297.716 74.6834 298.52 74.467C299.324 74.2351 300.205 74.1191 301.164 74.1191C302.911 74.1191 304.256 74.5056 305.199 75.2787C306.142 76.0362 306.614 77.103 306.614 78.479ZM295.529 79.6153H299.471V85.7145C299.301 85.7609 299.054 85.8073 298.729 85.8537C298.42 85.9 298.08 85.9232 297.709 85.9232C296.951 85.9232 296.394 85.7918 296.039 85.529C295.699 85.2662 295.529 84.7791 295.529 84.068V79.6153ZM302.671 79.6153H306.614V85.7145C306.444 85.7609 306.196 85.8073 305.872 85.8537C305.562 85.9 305.222 85.9232 304.851 85.9232C304.094 85.9232 303.537 85.7918 303.182 85.529C302.841 85.2662 302.671 84.7791 302.671 84.068V79.6153Z" fill="white"/>
</g>
<defs>
<filter id="filter0_i_372_10" x="0" y="0" width="117.738" height="117.738" filterUnits="userSpaceOnUse" color-interpolation-filters="sRGB">
<feFlood flood-opacity="0" result="BackgroundImageFix"/>
<feBlend mode="normal" in="SourceGraphic" in2="BackgroundImageFix" result="shape"/>
<feColorMatrix in="SourceAlpha" type="matrix" values="0 0 0 0 0 0 0 0 0 0 0 0 0 0 0 0 0 0 127 0" result="hardAlpha"/>
<feOffset dx="3.7377" dy="3.7377"/>
<feGaussianBlur stdDeviation="19.1557"/>
<feComposite in2="hardAlpha" operator="arithmetic" k2="-1" k3="1"/>
<feColorMatrix type="matrix" values="0 0 0 0 0 0 0 0 0 0 0 0 0 0 0 0 0 0 0.77 0"/>
<feBlend mode="normal" in2="shape" result="effect1_innerShadow_372_10"/>
</filter>
<filter id="filter1_d_372_10" x="21.7335" y="65.828" width="72.0281" height="22.8981" filterUnits="userSpaceOnUse" color-interpolation-filters="sRGB">
<feFlood flood-opacity="0" result="BackgroundImageFix"/>
<feColorMatrix in="SourceAlpha" type="matrix" values="0 0 0 0 0 0 0 0 0 0 0 0 0 0 0 0 0 0 127 0" result="hardAlpha"/>
<feOffset dy="1.75464"/>
<feGaussianBlur stdDeviation="0.877322"/>
<feComposite in2="hardAlpha" operator="out"/>
<feColorMatrix type="matrix" values="0 0 0 0 0 0 0 0 0 0 0 0 0 0 0 0 0 0 0.25 0"/>
<feBlend mode="normal" in2="BackgroundImageFix" result="effect1_dropShadow_372_10"/>
<feBlend mode="normal" in="SourceGraphic" in2="effect1_dropShadow_372_10" result="shape"/>
</filter>
<clipPath id="clip0_372_10">
<rect width="364.426" height="114" fill="white"/>
</clipPath>
</defs>
</svg>
