<svg width="61" height="61" viewBox="0 0 61 61" fill="none" xmlns="http://www.w3.org/2000/svg">
<g filter="url(#filter0_i_3_18)">
<rect width="61" height="61" rx="29.902" fill="#FB00FF"/>
<path d="M28.6115 16H18.6064C17.0994 16 15.8778 17.1559 15.8778 18.5819V36.6556H44.9833V27.1884" stroke="white" stroke-width="2.86361" stroke-linecap="round" stroke-linejoin="round"/>
<g filter="url(#filter1_d_3_18)">
<path d="M14 36.6555H47.8V38.5333C47.8 41.6445 45.5301 44.1667 42.73 44.1667H19.07C16.2699 44.1667 14 41.6445 14 38.5333V36.6555Z" stroke="white" stroke-width="2.86361" stroke-linejoin="round" shape-rendering="crispEdges"/>
</g>
<path d="M38.2269 18.2584C38.3752 18.1105 38.5512 17.9933 38.7449 17.9134C38.9385 17.8336 39.146 17.7927 39.3554 17.7931C39.5649 17.7934 39.7722 17.835 39.9655 17.9156C40.1589 17.9961 40.3345 18.1139 40.4823 18.2623C41.1039 18.8839 41.1089 19.8941 40.4862 20.5177C40.3379 20.6656 40.1619 20.7828 39.9683 20.8626C39.7746 20.9425 39.5672 20.9834 39.3577 20.983C39.1483 20.9826 38.9409 20.941 38.7476 20.8605C38.5542 20.78 38.3786 20.6622 38.2308 20.5138C38.0824 20.366 37.9646 20.1904 37.8841 19.997C37.8036 19.8036 37.7619 19.5963 37.7616 19.3869C37.7612 19.1774 37.8021 18.97 37.882 18.7763C37.9618 18.5827 38.079 18.4067 38.2269 18.2584ZM39.7859 18.9567C39.6718 18.8418 39.5167 18.777 39.3547 18.7764C39.1928 18.7759 39.0372 18.8397 38.9223 18.9538C38.8083 19.0688 38.7447 19.2244 38.7455 19.3864C38.7462 19.5483 38.8112 19.7034 38.9262 19.8174C39.0403 19.9324 39.1953 19.9974 39.3572 19.9981C39.5192 19.9989 39.6748 19.9353 39.7898 19.8213C39.9038 19.7062 39.9674 19.5506 39.9667 19.3887C39.9659 19.2267 39.9009 19.0707 39.7859 18.9567ZM37.378 23.8236L37.5423 23.9869C37.9259 24.3715 38.4698 24.4993 38.9607 24.3705L39.7967 25.2066C39.889 25.2988 40.014 25.3505 40.1444 25.3505C40.2748 25.3505 40.3999 25.2988 40.4921 25.2066L41.5485 24.1502C41.8545 23.8441 42.0492 23.4443 42.1014 23.0146C42.1537 22.585 42.0605 22.1502 41.8367 21.7797L42.3777 21.2387C42.9933 20.6231 43.4283 19.8504 43.6353 19.0048C43.8424 18.1592 43.8136 17.273 43.5521 16.4426C43.4596 16.1488 43.2975 15.8817 43.0797 15.6639C42.8619 15.4461 42.5948 15.284 42.301 15.1915C41.4706 14.93 40.5844 14.9012 39.7388 15.1083C38.8932 15.3153 38.1205 15.7503 37.5049 16.3659L36.9639 16.9069C36.5931 16.6829 36.1579 16.5897 35.7278 16.6421C35.2978 16.6946 34.8977 16.8896 34.5915 17.1961L33.5371 18.2515C33.4913 18.2972 33.4549 18.3514 33.4301 18.4112C33.4053 18.4709 33.3926 18.535 33.3926 18.5997C33.3926 18.6644 33.4053 18.7284 33.4301 18.7882C33.4549 18.8479 33.4913 18.9022 33.5371 18.9479L34.3731 19.7839C34.3078 20.0331 34.3088 20.2951 34.3761 20.5437C34.4434 20.7924 34.5746 21.0191 34.7567 21.2013L34.921 21.3656L34.1607 21.82C34.0964 21.8584 34.0418 21.9109 34.0009 21.9736C33.96 22.0363 33.934 22.1075 33.9248 22.1818C33.9156 22.256 33.9234 22.3314 33.9478 22.4022C33.9721 22.473 34.0123 22.5373 34.0653 22.5902L36.1534 24.6784C36.2063 24.7313 36.2706 24.7715 36.3414 24.7958C36.4122 24.8202 36.4876 24.828 36.5618 24.8188C36.6361 24.8096 36.7073 24.7836 36.77 24.7427C36.8327 24.7019 36.8852 24.6472 36.9236 24.5829L37.378 23.8236ZM42.6138 16.7377C42.821 17.3963 42.8437 18.0991 42.6795 18.7696C42.5152 19.4402 42.1704 20.053 41.6823 20.5413L38.9331 23.2905C38.8409 23.3827 38.7158 23.4345 38.5854 23.4345C38.455 23.4345 38.3299 23.3827 38.2377 23.2905L37.6318 22.6846L37.6279 22.6807L36.062 21.1157L36.058 21.1118L35.4521 20.5049C35.3599 20.4127 35.3081 20.2876 35.3081 20.1572C35.3081 20.0268 35.3599 19.9017 35.4521 19.8095L38.2013 17.0623C38.6897 16.5741 39.3026 16.2291 39.9734 16.0648C40.6442 15.9006 41.3472 15.9234 42.0059 16.1308C42.1488 16.1759 42.2786 16.2548 42.3844 16.3608C42.4903 16.4668 42.5689 16.5967 42.6138 16.7397V16.7377ZM34.7695 24.6695C34.8619 24.5773 34.9138 24.4522 34.9139 24.3217C34.914 24.1911 34.8622 24.0659 34.77 23.9736C34.6778 23.8813 34.5527 23.8293 34.4222 23.8292C34.2916 23.8291 34.1665 23.8809 34.0741 23.9731L32.7757 25.2715C32.73 25.3171 32.6937 25.3714 32.669 25.431C32.6442 25.4907 32.6314 25.5547 32.6314 25.6193C32.6313 25.7498 32.683 25.875 32.7753 25.9674C32.8675 26.0597 32.9926 26.1117 33.1231 26.1117C33.1877 26.1118 33.2517 26.0991 33.3114 26.0744C33.3712 26.0497 33.4254 26.0135 33.4712 25.9679L34.7695 24.6695ZM33.7249 22.9295C33.8171 23.0217 33.8689 23.1468 33.8689 23.2772C33.8689 23.4076 33.8171 23.5327 33.7249 23.6249L33.2036 24.1462C33.1582 24.1931 33.1039 24.2305 33.0438 24.2562C32.9838 24.2819 32.9192 24.2954 32.8539 24.2958C32.7886 24.2963 32.7239 24.2838 32.6635 24.259C32.6031 24.2341 32.5482 24.1975 32.5021 24.1513C32.456 24.1051 32.4196 24.0501 32.3949 23.9896C32.3703 23.9292 32.3579 23.8644 32.3586 23.7991C32.3592 23.7338 32.3729 23.6693 32.3988 23.6093C32.4246 23.5493 32.4622 23.4951 32.5092 23.4498L33.0305 22.9295C33.1227 22.8376 33.2475 22.786 33.3777 22.786C33.5079 22.786 33.6327 22.8376 33.7249 22.9295ZM35.8131 25.7131C35.8601 25.6677 35.8976 25.6135 35.9233 25.5535C35.9491 25.4935 35.9627 25.4289 35.9632 25.3636C35.9638 25.2983 35.9514 25.2336 35.9266 25.1731C35.9019 25.1127 35.8654 25.0578 35.8192 25.0116C35.773 24.9654 35.7181 24.9289 35.6577 24.9042C35.5972 24.8795 35.5325 24.867 35.4672 24.8676C35.4019 24.8681 35.3373 24.8817 35.2773 24.9075C35.2173 24.9333 35.1631 24.9707 35.1177 25.0177L34.5964 25.539C34.5507 25.5847 34.5145 25.639 34.4898 25.6987C34.4652 25.7584 34.4525 25.8224 34.4525 25.8871C34.4526 26.0176 34.5045 26.1427 34.5969 26.2349C34.6892 26.3271 34.8144 26.3789 34.9449 26.3788C35.0754 26.3787 35.2006 26.3268 35.2928 26.2344L35.8131 25.7131Z" fill="white"/>
</g>
<defs>
<filter id="filter0_i_3_18" x="0" y="0" width="63" height="63" filterUnits="userSpaceOnUse" color-interpolation-filters="sRGB">
<feFlood flood-opacity="0" result="BackgroundImageFix"/>
<feBlend mode="normal" in="SourceGraphic" in2="BackgroundImageFix" result="shape"/>
<feColorMatrix in="SourceAlpha" type="matrix" values="0 0 0 0 0 0 0 0 0 0 0 0 0 0 0 0 0 0 127 0" result="hardAlpha"/>
<feOffset dx="2" dy="2"/>
<feGaussianBlur stdDeviation="10.25"/>
<feComposite in2="hardAlpha" operator="arithmetic" k2="-1" k3="1"/>
<feColorMatrix type="matrix" values="0 0 0 0 0 0 0 0 0 0 0 0 0 0 0 0 0 0 0.77 0"/>
<feBlend mode="normal" in2="shape" result="effect1_innerShadow_3_18"/>
</filter>
<filter id="filter1_d_3_18" x="11.6293" y="35.2237" width="38.5414" height="12.2525" filterUnits="userSpaceOnUse" color-interpolation-filters="sRGB">
<feFlood flood-opacity="0" result="BackgroundImageFix"/>
<feColorMatrix in="SourceAlpha" type="matrix" values="0 0 0 0 0 0 0 0 0 0 0 0 0 0 0 0 0 0 127 0" result="hardAlpha"/>
<feOffset dy="0.938889"/>
<feGaussianBlur stdDeviation="0.469444"/>
<feComposite in2="hardAlpha" operator="out"/>
<feColorMatrix type="matrix" values="0 0 0 0 0 0 0 0 0 0 0 0 0 0 0 0 0 0 0.25 0"/>
<feBlend mode="normal" in2="BackgroundImageFix" result="effect1_dropShadow_3_18"/>
<feBlend mode="normal" in="SourceGraphic" in2="effect1_dropShadow_3_18" result="shape"/>
</filter>
</defs>
</svg>
