<svg width="515" height="515" viewBox="0 0 515 515" fill="none" xmlns="http://www.w3.org/2000/svg">
<g filter="url(#filter0_i_370_17)">
<rect width="514.295" height="514.295" rx="252.105" fill="#8324FF"/>
<path d="M241.225 134.897H156.872C144.166 134.897 133.867 144.643 133.867 156.666V309.046H379.257V229.228" stroke="white" stroke-width="24.1433" stroke-linecap="round" stroke-linejoin="round"/>
<g filter="url(#filter1_d_370_17)">
<path d="M118.035 309.046H403.005V324.877C403.005 351.108 383.867 372.372 360.259 372.372H160.78C137.173 372.372 118.035 351.108 118.035 324.877V309.046Z" stroke="white" stroke-width="24.1433" stroke-linejoin="round" shape-rendering="crispEdges"/>
</g>
<path d="M322.293 153.938C323.544 152.691 325.028 151.703 326.66 151.029C328.293 150.356 330.042 150.011 331.808 150.015C333.574 150.018 335.322 150.369 336.952 151.047C338.582 151.726 340.063 152.72 341.309 153.971C346.55 159.212 346.591 167.729 341.342 172.986C340.091 174.233 338.608 175.221 336.975 175.894C335.342 176.567 333.593 176.912 331.827 176.909C330.061 176.906 328.314 176.555 326.683 175.876C325.053 175.198 323.573 174.204 322.326 172.953C321.075 171.707 320.082 170.226 319.403 168.596C318.724 166.966 318.373 165.218 318.37 163.452C318.367 161.686 318.712 159.937 319.385 158.305C320.058 156.672 321.047 155.188 322.293 153.938ZM335.437 159.825C334.475 158.857 333.167 158.31 331.802 158.306C330.437 158.301 329.125 158.839 328.156 159.801C327.196 160.771 326.659 162.083 326.665 163.448C326.672 164.813 327.22 166.12 328.19 167.082C329.151 168.051 330.458 168.6 331.823 168.606C333.189 168.612 334.501 168.076 335.471 167.115C336.431 166.145 336.968 164.833 336.962 163.467C336.955 162.102 336.407 160.787 335.437 159.825ZM315.137 200.859L316.521 202.235C319.756 205.478 324.342 206.556 328.48 205.469L335.529 212.518C336.306 213.296 337.361 213.732 338.46 213.732C339.56 213.732 340.614 213.296 341.392 212.518L350.298 203.612C352.878 201.031 354.519 197.66 354.96 194.038C355.4 190.415 354.615 186.75 352.728 183.626L357.289 179.065C362.479 173.875 366.146 167.36 367.892 160.231C369.638 153.102 369.395 145.63 367.191 138.629C366.41 136.152 365.044 133.9 363.208 132.063C361.371 130.227 359.119 128.861 356.642 128.08C349.641 125.876 342.17 125.633 335.04 127.379C327.911 129.125 321.397 132.792 316.206 137.982L311.645 142.543C308.519 140.655 304.849 139.869 301.223 140.311C297.598 140.753 294.225 142.397 291.643 144.981L282.753 153.88C282.367 154.265 282.06 154.722 281.851 155.226C281.642 155.73 281.535 156.27 281.535 156.815C281.535 157.361 281.642 157.901 281.851 158.404C282.06 158.908 282.367 159.366 282.753 159.751L289.802 166.8C289.251 168.901 289.259 171.109 289.827 173.206C290.394 175.302 291.501 177.214 293.036 178.75L294.421 180.135L288.011 183.966C287.469 184.29 287.008 184.732 286.663 185.261C286.319 185.79 286.099 186.39 286.022 187.016C285.944 187.642 286.011 188.278 286.216 188.875C286.421 189.471 286.76 190.013 287.206 190.459L304.812 208.065C305.258 208.511 305.8 208.85 306.397 209.055C306.993 209.261 307.629 209.327 308.255 209.249C308.881 209.172 309.482 208.952 310.01 208.608C310.539 208.263 310.982 207.802 311.305 207.261L315.137 200.859ZM359.279 141.117C361.026 146.669 361.218 152.594 359.833 158.248C358.449 163.902 355.541 169.068 351.426 173.185L328.248 196.364C327.47 197.141 326.416 197.578 325.316 197.578C324.217 197.578 323.162 197.141 322.385 196.364L317.276 191.255L317.243 191.222L304.041 178.028L304.008 177.995L298.899 172.878C298.122 172.101 297.685 171.046 297.685 169.947C297.685 168.847 298.122 167.793 298.899 167.015L322.078 143.853C326.195 139.737 331.363 136.828 337.018 135.444C342.674 134.059 348.601 134.252 354.154 136C355.359 136.38 356.454 137.045 357.346 137.939C358.238 138.833 358.901 139.928 359.279 141.133V141.117ZM293.144 207.99C293.923 207.213 294.36 206.158 294.361 205.058C294.362 203.957 293.926 202.902 293.148 202.123C292.371 201.345 291.316 200.907 290.215 200.906C289.115 200.905 288.059 201.342 287.281 202.119L276.334 213.066C275.949 213.451 275.643 213.908 275.434 214.411C275.225 214.914 275.117 215.453 275.117 215.998C275.116 217.099 275.553 218.154 276.33 218.933C277.108 219.711 278.163 220.149 279.263 220.15C279.808 220.15 280.347 220.043 280.851 219.835C281.354 219.627 281.812 219.322 282.197 218.937L293.144 207.99ZM284.337 193.32C285.114 194.098 285.551 195.152 285.551 196.252C285.551 197.351 285.114 198.406 284.337 199.183L279.942 203.579C279.559 203.974 279.101 204.289 278.594 204.506C278.088 204.722 277.544 204.836 276.994 204.84C276.443 204.844 275.897 204.738 275.388 204.529C274.879 204.32 274.416 204.011 274.027 203.621C273.639 203.232 273.331 202.768 273.124 202.258C272.916 201.748 272.812 201.202 272.817 200.652C272.823 200.101 272.938 199.557 273.156 199.052C273.374 198.546 273.69 198.089 274.087 197.707L278.482 193.32C279.259 192.546 280.312 192.11 281.41 192.11C282.507 192.11 283.56 192.546 284.337 193.32ZM301.943 216.789C302.339 216.407 302.655 215.949 302.872 215.443C303.089 214.937 303.204 214.393 303.208 213.843C303.213 213.292 303.108 212.746 302.9 212.236C302.691 211.727 302.383 211.264 301.994 210.875C301.605 210.485 301.142 210.177 300.632 209.969C300.123 209.76 299.577 209.656 299.026 209.66C298.475 209.665 297.931 209.779 297.426 209.997C296.92 210.214 296.462 210.53 296.08 210.926L291.684 215.321C291.299 215.707 290.994 216.164 290.786 216.668C290.578 217.171 290.471 217.711 290.471 218.256C290.472 219.356 290.91 220.411 291.689 221.188C292.467 221.966 293.523 222.402 294.623 222.401C295.723 222.401 296.778 221.963 297.556 221.184L301.943 216.789Z" fill="white"/>
</g>
<defs>
<filter id="filter0_i_370_17" x="0" y="0" width="531.157" height="531.157" filterUnits="userSpaceOnUse" color-interpolation-filters="sRGB">
<feFlood flood-opacity="0" result="BackgroundImageFix"/>
<feBlend mode="normal" in="SourceGraphic" in2="BackgroundImageFix" result="shape"/>
<feColorMatrix in="SourceAlpha" type="matrix" values="0 0 0 0 0 0 0 0 0 0 0 0 0 0 0 0 0 0 127 0" result="hardAlpha"/>
<feOffset dx="16.8621" dy="16.8621"/>
<feGaussianBlur stdDeviation="86.4184"/>
<feComposite in2="hardAlpha" operator="arithmetic" k2="-1" k3="1"/>
<feColorMatrix type="matrix" values="0 0 0 0 0 0 0 0 0 0 0 0 0 0 0 0 0 0 0.77 0"/>
<feBlend mode="normal" in2="shape" result="effect1_innerShadow_370_17"/>
</filter>
<filter id="filter1_d_370_17" x="98.0473" y="296.974" width="324.945" height="103.302" filterUnits="userSpaceOnUse" color-interpolation-filters="sRGB">
<feFlood flood-opacity="0" result="BackgroundImageFix"/>
<feColorMatrix in="SourceAlpha" type="matrix" values="0 0 0 0 0 0 0 0 0 0 0 0 0 0 0 0 0 0 127 0" result="hardAlpha"/>
<feOffset dy="7.91583"/>
<feGaussianBlur stdDeviation="3.95792"/>
<feComposite in2="hardAlpha" operator="out"/>
<feColorMatrix type="matrix" values="0 0 0 0 0 0 0 0 0 0 0 0 0 0 0 0 0 0 0.25 0"/>
<feBlend mode="normal" in2="BackgroundImageFix" result="effect1_dropShadow_370_17"/>
<feBlend mode="normal" in="SourceGraphic" in2="effect1_dropShadow_370_17" result="shape"/>
</filter>
</defs>
</svg>
