<svg width="115" height="115" viewBox="0 0 115 115" fill="none" xmlns="http://www.w3.org/2000/svg">
<g filter="url(#filter0_i_373_23)">
<rect width="115" height="115" rx="56.3725" fill="#8324FF"/>
<path d="M53.9397 30.1639H35.0777C32.2367 30.1639 29.9335 32.3432 29.9335 35.0315V69.1047H84.8047V51.2569" stroke="white" stroke-width="5.39861" stroke-linecap="round" stroke-linejoin="round"/>
<g filter="url(#filter1_d_373_23)">
<path d="M26.3934 69.1047H90.1147V72.6448C90.1147 78.5102 85.8354 83.265 80.5565 83.265H35.9516C30.6728 83.265 26.3934 78.5102 26.3934 72.6448V69.1047Z" stroke="white" stroke-width="5.39861" stroke-linejoin="round" shape-rendering="crispEdges"/>
</g>
<path d="M72.0671 34.4215C72.3467 34.1427 72.6785 33.9217 73.0436 33.7712C73.4086 33.6207 73.7998 33.5436 74.1946 33.5443C74.5895 33.545 74.9803 33.6234 75.3449 33.7752C75.7094 33.927 76.0404 34.1491 76.3191 34.4289C77.491 35.6008 77.5003 37.5053 76.3265 38.6809C76.0469 38.9597 75.7151 39.1807 75.35 39.3312C74.985 39.4817 74.5938 39.5588 74.199 39.5581C73.8041 39.5574 73.4132 39.479 73.0487 39.3272C72.6842 39.1754 72.3532 38.9533 72.0745 38.6735C71.7947 38.3948 71.5726 38.0638 71.4208 37.6993C71.269 37.3347 71.1906 36.9439 71.1899 36.549C71.1892 36.1542 71.2663 35.763 71.4168 35.398C71.5673 35.0329 71.7883 34.7011 72.0671 34.4215ZM75.0062 35.7381C74.791 35.5215 74.4986 35.3993 74.1933 35.3982C73.888 35.3972 73.5948 35.5174 73.3781 35.7325C73.1633 35.9494 73.0433 36.2428 73.0447 36.5481C73.0461 36.8534 73.1687 37.1457 73.3855 37.3606C73.6005 37.5774 73.8927 37.7 74.198 37.7014C74.5033 37.7028 74.7967 37.5829 75.0136 37.368C75.2285 37.1511 75.3484 36.8577 75.347 36.5524C75.3456 36.2471 75.223 35.953 75.0062 35.7381ZM70.4668 44.9133L70.7765 45.2212C71.4997 45.9462 72.5251 46.1873 73.4504 45.9444L75.0266 47.5205C75.2005 47.6944 75.4363 47.792 75.6821 47.792C75.928 47.792 76.1638 47.6944 76.3376 47.5205L78.3292 45.529C78.9061 44.9519 79.2731 44.1982 79.3716 43.3882C79.47 42.5782 79.2943 41.7585 78.8725 41.06L79.8924 40.0401C81.0529 38.8795 81.873 37.4229 82.2633 35.8287C82.6537 34.2346 82.5995 32.5639 82.1065 30.9984C81.932 30.4445 81.6265 29.9409 81.2159 29.5303C80.8052 29.1197 80.3016 28.8141 79.7478 28.6397C78.1823 28.1467 76.5116 28.0924 74.9174 28.4828C73.3232 28.8732 71.8666 29.6932 70.706 30.8537L69.6861 31.8736C68.987 31.4514 68.1665 31.2757 67.3557 31.3745C66.545 31.4733 65.7907 31.841 65.2134 32.4188L63.2256 34.4085C63.1392 34.4946 63.0707 34.5969 63.024 34.7096C62.9773 34.8222 62.9532 34.943 62.9532 35.0649C62.9532 35.1869 62.9773 35.3077 63.024 35.4203C63.0707 35.5329 63.1392 35.6353 63.2256 35.7214L64.8018 37.2976C64.6786 37.7673 64.6805 38.2612 64.8074 38.73C64.9342 39.1988 65.1816 39.6262 65.525 39.9697L65.8346 40.2793L64.4012 41.1361C64.2801 41.2084 64.1771 41.3074 64.1 41.4256C64.0229 41.5438 63.9739 41.678 63.9565 41.8181C63.9392 41.9581 63.954 42.1002 63.9999 42.2337C64.0458 42.3671 64.1215 42.4883 64.2214 42.588L68.1581 46.5248C68.2579 46.6246 68.379 46.7003 68.5125 46.7462C68.6459 46.7921 68.788 46.807 68.9281 46.7896C69.0681 46.7723 69.2023 46.7232 69.3205 46.6461C69.4387 46.5691 69.5377 46.466 69.6101 46.3449L70.4668 44.9133ZM80.3374 31.5547C80.7281 32.7963 80.7709 34.1212 80.4613 35.3854C80.1517 36.6496 79.5015 37.8048 78.5814 38.7254L73.3985 43.9083C73.2246 44.0821 72.9888 44.1798 72.743 44.1798C72.4971 44.1798 72.2614 44.0821 72.0875 43.9083L70.9452 42.766L70.9378 42.7586L67.9857 39.8083L67.9783 39.8009L66.836 38.6568C66.6622 38.4829 66.5645 38.2471 66.5645 38.0013C66.5645 37.7554 66.6622 37.5197 66.836 37.3458L72.0189 32.1666C72.9396 31.2462 74.0951 30.5958 75.3597 30.2862C76.6243 29.9765 77.9496 30.0196 79.1915 30.4105C79.4608 30.4955 79.7056 30.6442 79.9051 30.8441C80.1046 31.0439 80.2529 31.289 80.3374 31.5584V31.5547ZM65.5491 46.5081C65.7232 46.3342 65.8211 46.0983 65.8213 45.8523C65.8214 45.6063 65.7239 45.3702 65.55 45.1961C65.3762 45.022 65.1403 44.9241 64.8942 44.924C64.6482 44.9238 64.4122 45.0214 64.2381 45.1952L61.7903 47.6429C61.7041 47.729 61.6357 47.8312 61.589 47.9438C61.5423 48.0563 61.5182 48.1769 61.5182 48.2987C61.518 48.5447 61.6156 48.7808 61.7894 48.9549C61.9633 49.129 62.1991 49.2269 62.4452 49.2271C62.567 49.2271 62.6877 49.2032 62.8002 49.1567C62.9128 49.1101 63.0151 49.0419 63.1013 48.9558L65.5491 46.5081ZM63.5798 43.2277C63.7536 43.4016 63.8512 43.6374 63.8512 43.8833C63.8512 44.1291 63.7536 44.3649 63.5798 44.5388L62.597 45.5216C62.5113 45.61 62.4089 45.6805 62.2957 45.7289C62.1825 45.7773 62.0608 45.8027 61.9377 45.8036C61.8146 45.8045 61.6926 45.7809 61.5787 45.7341C61.4648 45.6873 61.3614 45.6183 61.2745 45.5312C61.1876 45.444 61.1189 45.3404 61.0724 45.2264C61.0259 45.1123 61.0027 44.9902 61.0039 44.8671C61.0051 44.744 61.0309 44.6224 61.0796 44.5094C61.1284 44.3963 61.1991 44.2941 61.2878 44.2087L62.2706 43.2277C62.4444 43.0545 62.6798 42.9572 62.9252 42.9572C63.1706 42.9572 63.406 43.0545 63.5798 43.2277ZM67.5165 48.4755C67.6051 48.39 67.6757 48.2877 67.7243 48.1746C67.7729 48.0615 67.7985 47.9398 67.7996 47.8167C67.8006 47.6936 67.7772 47.5715 67.7305 47.4575C67.6839 47.3436 67.6151 47.2401 67.528 47.153C67.441 47.066 67.3375 46.9971 67.2235 46.9505C67.1096 46.9039 66.9875 46.8804 66.8644 46.8815C66.7413 46.8826 66.6196 46.9081 66.5065 46.9567C66.3934 47.0053 66.291 47.076 66.2055 47.1645L65.2227 48.1473C65.1366 48.2335 65.0684 48.3358 65.0218 48.4484C64.9753 48.561 64.9514 48.6817 64.9515 48.8035C64.9516 49.0495 65.0495 49.2854 65.2236 49.4593C65.3977 49.6331 65.6338 49.7307 65.8798 49.7305C66.1258 49.7303 66.3617 49.6324 66.5356 49.4583L67.5165 48.4755Z" fill="white"/>
</g>
<defs>
<filter id="filter0_i_373_23" x="0" y="0" width="118.77" height="118.77" filterUnits="userSpaceOnUse" color-interpolation-filters="sRGB">
<feFlood flood-opacity="0" result="BackgroundImageFix"/>
<feBlend mode="normal" in="SourceGraphic" in2="BackgroundImageFix" result="shape"/>
<feColorMatrix in="SourceAlpha" type="matrix" values="0 0 0 0 0 0 0 0 0 0 0 0 0 0 0 0 0 0 127 0" result="hardAlpha"/>
<feOffset dx="3.77049" dy="3.77049"/>
<feGaussianBlur stdDeviation="19.3238"/>
<feComposite in2="hardAlpha" operator="arithmetic" k2="-1" k3="1"/>
<feColorMatrix type="matrix" values="0 0 0 0 0 0 0 0 0 0 0 0 0 0 0 0 0 0 0.77 0"/>
<feBlend mode="normal" in2="shape" result="effect1_innerShadow_373_23"/>
</filter>
<filter id="filter1_d_373_23" x="21.9241" y="66.4054" width="72.6599" height="23.099" filterUnits="userSpaceOnUse" color-interpolation-filters="sRGB">
<feFlood flood-opacity="0" result="BackgroundImageFix"/>
<feColorMatrix in="SourceAlpha" type="matrix" values="0 0 0 0 0 0 0 0 0 0 0 0 0 0 0 0 0 0 127 0" result="hardAlpha"/>
<feOffset dy="1.77004"/>
<feGaussianBlur stdDeviation="0.885018"/>
<feComposite in2="hardAlpha" operator="out"/>
<feColorMatrix type="matrix" values="0 0 0 0 0 0 0 0 0 0 0 0 0 0 0 0 0 0 0.25 0"/>
<feBlend mode="normal" in2="BackgroundImageFix" result="effect1_dropShadow_373_23"/>
<feBlend mode="normal" in="SourceGraphic" in2="effect1_dropShadow_373_23" result="shape"/>
</filter>
</defs>
</svg>
