<svg width="472" height="486" viewBox="0 0 472 486" fill="none" xmlns="http://www.w3.org/2000/svg">
<mask id="mask0_118_16" style="mask-type:luminance" maskUnits="userSpaceOnUse" x="0" y="0" width="472" height="486">
<path d="M471.582 0.466203H0V485.917H471.582V0.466203Z" fill="white"/>
</mask>
<g mask="url(#mask0_118_16)">
<path d="M180.432 324.994H259.976C259.976 327.161 259.549 329.305 258.72 331.307C257.891 333.308 256.676 335.126 255.145 336.658C253.613 338.19 251.794 339.405 249.793 340.234C247.791 341.063 245.647 341.49 243.48 341.49H196.927C194.761 341.49 192.616 341.063 190.614 340.234C188.613 339.405 186.794 338.19 185.263 336.658C183.731 335.126 182.516 333.308 181.687 331.307C180.858 329.305 180.432 327.161 180.432 324.994Z" fill="#EE0CF2"/>
<path d="M260.313 326.379C260.137 329.189 259.247 331.906 257.724 334.274C256.202 336.641 254.1 338.58 251.616 339.905C250.635 340.375 249.609 340.742 248.553 341.003L248.609 340.853C248.964 339.842 249.076 338.761 248.934 337.698C248.792 336.636 248.401 335.622 247.793 334.74C247.185 333.857 246.376 333.131 245.434 332.62C244.491 332.11 243.442 331.829 242.37 331.801L182.341 330.085C181.949 328.871 181.702 327.614 181.604 326.342C182.045 326.404 182.489 326.436 182.933 326.436H203.908V327.902H208.306V326.436H219.536C219.418 326.691 219.287 326.947 219.168 327.203L235.826 327.19V326.454H259.109C259.512 326.456 259.914 326.431 260.313 326.379Z" fill="#EE0CF2"/>
<path d="M192.528 327.197H191.062V340.392H192.528V327.197Z" fill="#9747FF"/>
<path opacity="0.2" d="M193.626 327.197H192.16V338.558H193.626V327.197Z" fill="#9747FF"/>
<path opacity="0.2" d="M202.791 327.197H201.325V338.558H202.791V327.197Z" fill="#9747FF"/>
<path opacity="0.2" d="M221.121 327.197H219.655V338.558H221.121V327.197Z" fill="#9747FF"/>
<path opacity="0.2" d="M230.286 327.197H228.82V338.558H230.286V327.197Z" fill="#9747FF"/>
<path opacity="0.2" d="M239.45 327.197H237.984V338.558H239.45V327.197Z" fill="#9747FF"/>
<path opacity="0.3" d="M236.518 327.197H235.052V338.558H236.518V327.197Z" fill="#9126BF"/>
<path opacity="0.3" d="M227.721 327.197H226.255V338.558H227.721V327.197Z" fill="#9126BF"/>
<path opacity="0.3" d="M218.557 327.197H217.09V338.558H218.557V327.197Z" fill="#9126BF"/>
<path opacity="0.3" d="M209.392 327.197H207.926V338.558H209.392V327.197Z" fill="#9126BF"/>
<path opacity="0.3" d="M200.227 327.197H198.761V338.558H200.227V327.197Z" fill="#9126BF"/>
<path opacity="0.3" d="M191.062 327.197H189.596V338.558H191.062V327.197Z" fill="#9126BF"/>
<path opacity="0.2" d="M211.956 327.197H210.49V338.558H211.956V327.197Z" fill="#9747FF"/>
<path d="M201.631 327.197H200.165V340.392H201.631V327.197Z" fill="#9747FF"/>
<path d="M210.74 327.197H209.273V340.392H210.74V327.197Z" fill="#9747FF"/>
<path d="M219.842 327.197H218.376V340.392H219.842V327.197Z" fill="#9747FF"/>
<path d="M238.046 327.197H236.58V340.392H238.046V327.197Z" fill="#9747FF"/>
<path d="M247.149 327.197H245.683V340.392H247.149V327.197Z" fill="#9747FF"/>
<path d="M228.938 327.197H227.472V340.392H228.938V327.197Z" fill="#9747FF"/>
<path opacity="0.4" d="M465.169 202.927H375.399C375.283 201.217 375.142 199.506 374.975 197.792H410.168C411.869 197.792 413.5 197.117 414.703 195.914C415.906 194.711 416.581 193.08 416.581 191.379C416.581 189.678 415.906 188.047 414.703 186.844C413.5 185.641 411.869 184.965 410.168 184.965H373.078C371.263 176.144 368.381 167.884 363.951 160.902C355.273 147.227 341.729 140.427 328.39 139.004C315.052 137.582 301.688 140.969 288.562 144.619C271.093 149.504 250.537 153.902 237.367 137.757C229.574 128.186 226.467 112.508 229.256 98.8453C229.995 95.4957 230.908 92.1873 231.989 88.9319H278.249C279.951 88.9319 281.581 88.2563 282.784 87.0534C283.987 85.8506 284.663 84.2192 284.663 82.5185C284.663 80.8178 283.987 79.1864 282.784 77.9835C281.581 76.7807 279.951 76.105 278.249 76.105H235.37C235.693 74.1292 235.852 72.1303 235.844 70.1283C235.758 65.3082 234.615 60.5655 232.495 56.2353C230.376 51.905 227.333 48.0926 223.579 45.0672C216.847 39.7704 208.968 37.8988 201.219 36.5637C183.913 33.5317 166.064 32.6146 149.207 38.5227C133.254 21.3099 110.788 15.4892 91.186 23.6308C85.5898 25.8643 80.6051 29.397 76.6434 33.9372H114.887C116.542 33.9372 118.129 34.5945 119.299 35.7645C120.469 36.9345 121.126 38.5214 121.126 40.176C121.126 41.8306 120.469 43.4175 119.299 44.5875C118.129 45.7575 116.542 46.4147 114.887 46.4147H69.968C67.0857 55.7729 67.1106 66.7032 67.2541 77.0284C67.2541 78.1888 67.2853 79.3492 67.304 80.5096H85.4089C87.1102 80.5096 88.7411 81.1853 89.9439 82.3881C91.1467 83.5909 91.8224 85.2224 91.8224 86.9231C91.8224 88.6237 91.1467 90.2552 89.9439 91.458C88.7411 92.6608 87.1102 93.3365 85.4089 93.3365H67.5348L67.6347 100.299H109.603C111.304 100.299 112.935 100.975 114.138 102.177C115.341 103.38 116.016 105.012 116.016 106.712C116.016 108.413 115.341 110.045 114.138 111.247C112.935 112.45 111.304 113.126 109.603 113.126H67.8031C67.8031 114.592 67.8405 116.083 67.8655 117.568C68.0152 127.987 68.1275 138.692 65.4199 148.45C57.0663 178.502 27.4509 185.758 11.4422 209.527H78.8208C80.5221 209.527 82.1529 210.203 83.3557 211.406C84.5586 212.609 85.2342 214.24 85.2342 215.941C85.2342 217.642 84.5586 219.273 83.3557 220.476C82.1529 221.679 80.5221 222.354 78.8208 222.354H4.91021C4.32793 223.91 3.79763 225.499 3.31933 227.121H50.9523C52.6533 227.121 54.2846 227.796 55.4873 228.999C56.6901 230.202 57.3658 231.833 57.3658 233.534C57.3658 235.235 56.6901 236.866 55.4873 238.069C54.2846 239.272 52.6533 239.948 50.9523 239.948H0.624181C-1.08963 253.785 0.57143 267.831 5.46547 280.886C16.3459 309.242 41.6503 323.616 65.4074 323.166C89.1647 322.717 111.836 309.971 133.154 295.828C149.263 285.129 166.126 273.181 184.056 274.872C202.342 276.594 217.995 292.129 234.54 302.71C261.486 319.941 292.873 324.339 321.883 314.956C334.71 310.807 347.425 303.726 356.82 291.299C365.935 279.202 371.113 263.224 373.665 246.211H398.227C399.881 246.211 401.469 245.554 402.638 244.384C403.809 243.214 404.466 241.627 404.466 239.973C404.466 238.318 403.809 236.731 402.638 235.561C401.469 234.391 399.881 233.734 398.227 233.734H375.137C375.599 227.994 375.811 222.217 375.824 216.502V215.766H465.169C466.87 215.766 468.501 215.09 469.704 213.888C470.907 212.685 471.582 211.054 471.582 209.353C471.582 207.652 470.907 206.021 469.704 204.818C468.501 203.615 466.87 202.939 465.169 202.939V202.927Z" fill="#36FFB5"/>
<path d="M166.513 309.229C166.513 309.229 136.567 346.524 132.505 398.824C132.467 399.355 132.244 399.856 131.878 400.241C131.51 400.626 131.02 400.872 130.492 400.936C129.964 401 129.43 400.879 128.981 400.593C128.532 400.306 128.197 399.873 128.032 399.367C117.769 368.129 95.9773 277.817 163.955 222.722" fill="#EE0CF2"/>
<path d="M132.062 401.93C132.215 402.421 132.53 402.846 132.954 403.134C132.66 403.332 132.323 403.459 131.971 403.504C131.619 403.549 131.261 403.512 130.926 403.395C130.591 403.278 130.287 403.086 130.04 402.831C129.792 402.577 129.607 402.268 129.498 401.93C119.235 370.693 97.4433 280.38 165.421 225.286L165.483 227.363C100.55 282.626 121.93 371.086 132.062 401.93Z" fill="#CC08F2"/>
<path opacity="0.8" d="M125.362 389.853C125.187 375.354 128.887 360.162 133.734 346.556C136.23 339.593 139 333.049 141.726 327.215C150.265 309.001 154.244 288.984 153.318 268.889C152.781 257.26 152.344 244.215 152.344 232.598C157.716 225.948 155.888 225.349 163.225 219.403L165.789 305.91C165.789 305.91 135.843 343.205 131.781 395.505C131.764 395.826 131.677 396.14 131.526 396.425C131.375 396.709 131.164 396.957 130.908 397.152" fill="#AB05F2"/>
<path d="M125.262 340.753C125.008 340.753 124.76 340.679 124.548 340.537C124.337 340.396 124.172 340.195 124.075 339.961C123.977 339.725 123.952 339.467 124.002 339.218C124.051 338.969 124.173 338.74 124.354 338.56C124.533 338.38 124.762 338.257 125.011 338.208C125.261 338.158 125.519 338.184 125.754 338.281C125.989 338.378 126.19 338.543 126.331 338.755C126.472 338.966 126.547 339.214 126.547 339.468C126.547 339.81 126.412 340.136 126.171 340.377C125.93 340.618 125.603 340.753 125.262 340.753ZM125.262 338.919C125.153 338.919 125.047 338.952 124.957 339.012C124.867 339.072 124.797 339.158 124.755 339.259C124.714 339.358 124.702 339.469 124.724 339.576C124.745 339.682 124.797 339.78 124.874 339.857C124.951 339.934 125.049 339.985 125.155 340.007C125.261 340.028 125.372 340.017 125.472 339.975C125.573 339.934 125.658 339.864 125.719 339.773C125.779 339.684 125.811 339.577 125.811 339.468C125.81 339.324 125.751 339.186 125.648 339.085C125.545 338.983 125.407 338.926 125.262 338.926V338.919Z" fill="#9747FF"/>
<path opacity="0.2" d="M125.262 341.858C124.79 341.858 124.33 341.718 123.938 341.457C123.546 341.195 123.241 340.822 123.06 340.387C122.88 339.951 122.833 339.472 122.924 339.01C123.017 338.547 123.244 338.123 123.577 337.789C123.91 337.456 124.335 337.229 124.797 337.137C125.26 337.045 125.739 337.093 126.174 337.273C126.61 337.453 126.981 337.759 127.243 338.151C127.505 338.542 127.645 339.004 127.645 339.475C127.645 340.107 127.394 340.713 126.947 341.16C126.5 341.607 125.894 341.858 125.262 341.858ZM125.262 338.557C125.08 338.557 124.903 338.612 124.752 338.712C124.602 338.813 124.484 338.956 124.415 339.124C124.346 339.291 124.327 339.476 124.362 339.654C124.398 339.831 124.485 339.995 124.614 340.123C124.742 340.251 124.905 340.339 125.083 340.374C125.261 340.41 125.445 340.392 125.613 340.322C125.78 340.253 125.924 340.135 126.024 339.984C126.125 339.833 126.179 339.656 126.179 339.475C126.179 339.354 126.155 339.235 126.109 339.124C126.063 339.012 125.996 338.911 125.91 338.826C125.825 338.741 125.724 338.673 125.613 338.627C125.502 338.581 125.382 338.557 125.262 338.557Z" fill="#9747FF"/>
<path d="M130.39 293.471C130.136 293.471 129.888 293.395 129.677 293.254C129.465 293.113 129.3 292.912 129.203 292.678C129.106 292.442 129.081 292.184 129.13 291.935C129.18 291.686 129.302 291.457 129.482 291.277C129.662 291.097 129.891 290.974 130.14 290.925C130.389 290.875 130.647 290.901 130.883 290.998C131.117 291.095 131.318 291.26 131.459 291.472C131.601 291.683 131.675 291.931 131.675 292.185C131.675 292.527 131.54 292.854 131.299 293.094C131.058 293.335 130.732 293.471 130.39 293.471ZM130.39 291.636C130.282 291.636 130.176 291.669 130.086 291.729C129.995 291.789 129.925 291.875 129.883 291.975C129.842 292.076 129.831 292.186 129.852 292.293C129.873 292.399 129.926 292.497 130.002 292.574C130.079 292.651 130.177 292.703 130.284 292.724C130.39 292.745 130.5 292.734 130.601 292.693C130.701 292.651 130.786 292.581 130.847 292.49C130.908 292.4 130.939 292.294 130.939 292.185C130.939 292.04 130.882 291.9 130.779 291.797C130.676 291.694 130.536 291.636 130.39 291.636Z" fill="#9747FF"/>
<path opacity="0.2" d="M130.39 294.568C129.919 294.568 129.458 294.428 129.067 294.166C128.675 293.904 128.369 293.532 128.189 293.096C128.008 292.661 127.961 292.182 128.053 291.719C128.145 291.257 128.372 290.833 128.705 290.499C129.038 290.166 129.463 289.939 129.926 289.847C130.388 289.755 130.867 289.802 131.302 289.982C131.738 290.163 132.11 290.468 132.372 290.86C132.634 291.252 132.774 291.713 132.774 292.185C132.774 292.817 132.523 293.422 132.075 293.87C131.629 294.316 131.022 294.568 130.39 294.568ZM130.39 291.268C130.209 291.268 130.032 291.321 129.881 291.422C129.73 291.523 129.612 291.666 129.543 291.833C129.474 292.001 129.456 292.185 129.491 292.363C129.526 292.541 129.614 292.704 129.742 292.833C129.87 292.961 130.034 293.049 130.211 293.084C130.39 293.119 130.574 293.101 130.742 293.032C130.909 292.962 131.052 292.845 131.153 292.694C131.254 292.543 131.307 292.366 131.307 292.185C131.307 292.064 131.284 291.945 131.238 291.833C131.191 291.722 131.124 291.621 131.039 291.536C130.954 291.451 130.853 291.383 130.742 291.337C130.63 291.291 130.511 291.268 130.39 291.268Z" fill="#9747FF"/>
<path d="M310.379 293.471C310.125 293.471 309.877 293.395 309.665 293.254C309.454 293.113 309.289 292.912 309.192 292.678C309.094 292.442 309.069 292.184 309.119 291.935C309.169 291.686 309.291 291.457 309.47 291.277C309.65 291.097 309.879 290.974 310.129 290.925C310.378 290.875 310.636 290.901 310.871 290.998C311.106 291.095 311.307 291.26 311.448 291.472C311.589 291.683 311.664 291.931 311.664 292.185C311.664 292.527 311.529 292.854 311.288 293.094C311.047 293.335 310.72 293.471 310.379 293.471ZM310.379 291.636C310.27 291.636 310.164 291.669 310.074 291.729C309.984 291.789 309.913 291.875 309.872 291.975C309.83 292.076 309.819 292.186 309.84 292.293C309.862 292.399 309.914 292.497 309.991 292.574C310.068 292.651 310.165 292.703 310.272 292.724C310.378 292.745 310.489 292.734 310.589 292.693C310.69 292.651 310.775 292.581 310.836 292.49C310.896 292.4 310.928 292.294 310.928 292.185C310.928 292.04 310.87 291.9 310.767 291.797C310.665 291.694 310.525 291.636 310.379 291.636Z" fill="#9747FF"/>
<path opacity="0.2" d="M310.379 294.568C309.908 294.568 309.447 294.428 309.055 294.166C308.663 293.904 308.357 293.532 308.177 293.096C307.997 292.661 307.949 292.182 308.042 291.719C308.133 291.257 308.36 290.833 308.694 290.499C309.027 290.166 309.452 289.939 309.914 289.847C310.376 289.755 310.855 289.802 311.291 289.982C311.726 290.163 312.099 290.468 312.36 290.86C312.622 291.252 312.762 291.713 312.762 292.185C312.762 292.817 312.511 293.422 312.064 293.87C311.617 294.316 311.011 294.568 310.379 294.568ZM310.379 291.268C310.197 291.268 310.02 291.321 309.87 291.422C309.719 291.523 309.601 291.666 309.531 291.833C309.462 292.001 309.444 292.185 309.479 292.363C309.515 292.541 309.602 292.704 309.73 292.833C309.858 292.961 310.022 293.049 310.2 293.084C310.378 293.119 310.562 293.101 310.73 293.032C310.897 292.962 311.041 292.845 311.141 292.694C311.242 292.543 311.296 292.366 311.296 292.185C311.296 292.064 311.272 291.945 311.226 291.833C311.18 291.722 311.112 291.621 311.027 291.536C310.942 291.451 310.841 291.383 310.73 291.337C310.618 291.291 310.499 291.268 310.379 291.268Z" fill="#9747FF"/>
<path d="M309.281 293.471C309.027 293.471 308.778 293.395 308.567 293.254C308.356 293.113 308.191 292.912 308.093 292.678C307.996 292.442 307.971 292.184 308.02 291.935C308.07 291.686 308.192 291.457 308.372 291.277C308.552 291.097 308.781 290.974 309.03 290.925C309.279 290.875 309.538 290.901 309.772 290.998C310.008 291.095 310.208 291.26 310.349 291.472C310.49 291.683 310.566 291.931 310.566 292.185C310.566 292.527 310.431 292.854 310.19 293.094C309.948 293.335 309.622 293.471 309.281 293.471ZM309.281 291.636C309.172 291.636 309.066 291.669 308.976 291.729C308.886 291.789 308.815 291.875 308.774 291.975C308.732 292.076 308.721 292.186 308.742 292.293C308.764 292.399 308.816 292.497 308.893 292.574C308.969 292.651 309.067 292.703 309.174 292.724C309.28 292.745 309.391 292.734 309.491 292.693C309.591 292.651 309.677 292.581 309.737 292.49C309.798 292.4 309.83 292.294 309.83 292.185C309.83 292.04 309.772 291.9 309.669 291.797C309.566 291.694 309.427 291.636 309.281 291.636Z" fill="#9747FF"/>
<path opacity="0.2" d="M309.281 294.568C308.81 294.568 308.349 294.428 307.957 294.166C307.565 293.904 307.259 293.532 307.079 293.096C306.899 292.661 306.851 292.182 306.944 291.719C307.035 291.257 307.263 290.833 307.596 290.499C307.929 290.166 308.354 289.939 308.816 289.847C309.278 289.755 309.757 289.802 310.193 289.982C310.628 290.163 311.001 290.468 311.263 290.86C311.524 291.252 311.664 291.713 311.664 292.185C311.664 292.817 311.413 293.422 310.966 293.87C310.519 294.316 309.913 294.568 309.281 294.568ZM309.281 291.268C309.1 291.268 308.922 291.321 308.772 291.422C308.621 291.523 308.503 291.666 308.434 291.833C308.364 292.001 308.346 292.185 308.382 292.363C308.417 292.541 308.504 292.704 308.633 292.833C308.761 292.961 308.924 293.049 309.102 293.084C309.28 293.119 309.464 293.101 309.632 293.032C309.8 292.962 309.943 292.845 310.044 292.694C310.144 292.543 310.198 292.366 310.198 292.185C310.198 292.064 310.174 291.945 310.129 291.833C310.082 291.722 310.014 291.621 309.93 291.536C309.844 291.451 309.743 291.383 309.632 291.337C309.521 291.291 309.401 291.268 309.281 291.268Z" fill="#9747FF"/>
<path d="M137.914 256.08H136.448V376.314H137.914V256.08Z" fill="#9747FF"/>
<path opacity="0.2" d="M139.381 253.149H137.914V376.315H139.381V253.149Z" fill="#9747FF"/>
<path opacity="0.3" d="M136.448 256.08H134.982V376.314H136.448V256.08Z" fill="#9126BF"/>
<path d="M146.343 240.315H144.877V348.82H146.343V240.315Z" fill="#9747FF"/>
<path opacity="0.2" d="M147.809 240.315H146.343V348.82H147.809V240.315Z" fill="#9747FF"/>
<path opacity="0.3" d="M144.877 240.315H143.411V348.82H144.877V240.315Z" fill="#9126BF"/>
<path opacity="0.2" d="M295.874 439.369C288.002 439.355 280.456 436.219 274.894 430.648C269.332 425.076 266.208 417.526 266.208 409.653V380.712H274.275V409.647C274.275 413.282 275.19 416.858 276.935 420.045C278.681 423.233 281.201 425.93 284.263 427.888C287.325 429.846 290.83 431.001 294.456 431.248C298.083 431.493 301.712 430.823 305.011 429.297C308.309 427.772 311.171 425.44 313.332 422.518C315.492 419.595 316.882 416.176 317.374 412.575C317.865 408.974 317.442 405.307 316.143 401.913C314.844 398.518 312.711 395.506 309.942 393.152L315.164 387.007C319.641 390.813 322.889 395.862 324.496 401.514C326.104 407.166 326.001 413.168 324.198 418.761C322.395 424.355 318.974 429.287 314.367 432.936C309.761 436.586 304.177 438.787 298.319 439.262C297.504 439.334 296.689 439.369 295.874 439.369Z" fill="#CC08F2"/>
<path opacity="0.2" d="M292.511 426.812C291.638 426.81 290.767 426.746 289.903 426.618L291.076 418.639C292.641 418.866 294.237 418.704 295.725 418.167C297.211 417.63 298.543 416.735 299.601 415.56C300.659 414.385 301.412 412.968 301.792 411.433C302.171 409.898 302.167 408.294 301.778 406.762C301.389 405.229 300.629 403.816 299.563 402.648C298.498 401.479 297.161 400.591 295.671 400.064C294.181 399.535 292.583 399.382 291.02 399.619C289.457 399.856 287.976 400.474 286.709 401.42L281.893 394.95C284.135 393.282 286.742 392.169 289.498 391.704C292.255 391.238 295.082 391.433 297.748 392.272C300.414 393.111 302.844 394.57 304.836 396.531C306.829 398.491 308.329 400.896 309.212 403.548C310.094 406.2 310.336 409.024 309.916 411.787C309.496 414.551 308.426 417.175 306.795 419.445C305.164 421.715 303.018 423.566 300.532 424.845C298.047 426.125 295.294 426.796 292.498 426.805L292.511 426.812Z" fill="#36FFB5"/>
<path opacity="0.2" d="M295.169 376.315C298.408 376.315 301.033 373.689 301.033 370.451C301.033 367.212 298.408 364.586 295.169 364.586C291.93 364.586 289.304 367.212 289.304 370.451C289.304 373.689 291.93 376.315 295.169 376.315Z" fill="#36FFB5"/>
<path d="M306.704 403.035C306.551 403.526 306.237 403.95 305.812 404.239C306.107 404.436 306.443 404.563 306.796 404.608C307.148 404.654 307.505 404.616 307.841 404.499C308.176 404.383 308.48 404.189 308.727 403.935C308.975 403.681 309.16 403.373 309.268 403.035C319.531 371.797 341.323 281.485 273.345 226.39L273.283 228.468C338.216 283.706 316.842 372.184 306.704 403.035Z" fill="#9126BF"/>
<path d="M272.559 312.897C272.559 312.897 302.505 350.192 306.567 402.492C306.606 403.023 306.828 403.524 307.195 403.909C307.562 404.294 308.052 404.54 308.58 404.604C309.109 404.668 309.643 404.547 310.092 404.26C310.54 403.974 310.876 403.54 311.04 403.035C321.297 371.797 343.095 281.485 275.13 226.39" fill="#EE0CF2"/>
<path opacity="0.8" d="M313.717 393.509C313.891 379.01 310.192 363.818 305.344 350.212C302.849 343.249 300.079 336.705 297.352 330.871C288.81 312.669 284.823 292.663 285.736 272.576C286.272 260.947 286.709 247.902 286.709 236.285C281.338 229.635 283.165 229.036 275.829 223.09L273.258 309.597C273.258 309.597 303.204 346.892 307.266 399.192C307.283 399.513 307.371 399.827 307.522 400.112C307.672 400.396 307.883 400.644 308.139 400.839" fill="#AB05F2"/>
<path d="M313.679 341.102C313.425 341.102 313.176 341.027 312.965 340.886C312.754 340.744 312.589 340.544 312.492 340.309C312.394 340.074 312.369 339.816 312.419 339.566C312.468 339.317 312.59 339.088 312.77 338.908C312.95 338.728 313.179 338.606 313.428 338.556C313.678 338.507 313.936 338.533 314.171 338.63C314.406 338.727 314.606 338.892 314.748 339.103C314.889 339.314 314.964 339.563 314.964 339.817C314.964 340.158 314.829 340.485 314.588 340.726C314.346 340.967 314.02 341.102 313.679 341.102ZM313.679 339.268C313.57 339.268 313.464 339.3 313.374 339.36C313.283 339.421 313.214 339.506 313.172 339.607C313.13 339.707 313.119 339.818 313.141 339.924C313.162 340.03 313.214 340.128 313.291 340.205C313.368 340.282 313.466 340.334 313.572 340.355C313.678 340.377 313.789 340.366 313.889 340.324C313.99 340.283 314.075 340.213 314.136 340.122C314.195 340.032 314.228 339.926 314.228 339.817C314.223 339.675 314.163 339.54 314.061 339.441C313.958 339.342 313.821 339.287 313.679 339.287V339.268Z" fill="#9747FF"/>
<path opacity="0.2" d="M313.679 342.226C313.208 342.226 312.747 342.086 312.355 341.824C311.963 341.563 311.658 341.19 311.477 340.755C311.297 340.319 311.25 339.84 311.342 339.378C311.434 338.916 311.661 338.491 311.994 338.158C312.327 337.824 312.752 337.597 313.214 337.506C313.676 337.413 314.156 337.461 314.591 337.641C315.027 337.821 315.399 338.127 315.66 338.519C315.922 338.911 316.062 339.372 316.062 339.843C316.062 340.475 315.811 341.081 315.364 341.528C314.917 341.975 314.311 342.226 313.679 342.226ZM313.679 338.926C313.497 338.926 313.32 338.979 313.17 339.08C313.019 339.181 312.901 339.324 312.832 339.492C312.762 339.659 312.744 339.844 312.779 340.022C312.815 340.2 312.902 340.363 313.031 340.492C313.159 340.619 313.322 340.707 313.5 340.742C313.678 340.778 313.862 340.759 314.03 340.69C314.197 340.621 314.341 340.503 314.441 340.352C314.542 340.201 314.596 340.024 314.596 339.843C314.596 339.599 314.499 339.366 314.328 339.194C314.156 339.022 313.922 338.926 313.679 338.926Z" fill="#9747FF"/>
<path d="M302.499 255.712H301.033V379.614H302.499V255.712Z" fill="#9747FF"/>
<path opacity="0.2" d="M301.033 255.344H299.567V369.345H301.033V255.344Z" fill="#9747FF"/>
<path opacity="0.3" d="M303.965 259.383H302.499V379.616H303.965V259.383Z" fill="#9126BF"/>
<path d="M294.071 243.615H292.604V352.119H294.071V243.615Z" fill="#9747FF"/>
<path opacity="0.2" d="M292.605 243.615H291.138V348.451H292.605V243.615Z" fill="#9747FF"/>
<path opacity="0.3" d="M295.537 243.615H294.071V352.119H295.537V243.615Z" fill="#9126BF"/>
<path d="M308.881 404.801C308.673 404.801 308.465 404.788 308.258 404.763C307.095 404.634 306.013 404.101 305.204 403.255C304.394 402.411 303.907 401.308 303.828 400.14C299.898 349.276 270.713 312.423 270.419 312.055L274.705 308.611C275.017 308.998 282.473 318.344 290.502 334.278C297.708 348.571 306.679 370.98 309.119 397.47C314.11 381.798 321.347 352.826 319.675 321.239C317.553 281.211 301.956 249.131 273.389 225.96L276.852 221.687C292.66 234.351 305.187 250.636 313.373 269.164C320.205 284.673 324.173 302.092 325.171 320.945C326.968 354.922 318.732 385.891 313.66 401.326C313.338 402.338 312.7 403.221 311.84 403.846C310.981 404.471 309.945 404.806 308.881 404.801Z" fill="#9747FF"/>
<path opacity="0.2" d="M58.3637 485.918H32.3418C31.2721 485.918 30.2462 485.493 29.4898 484.737C28.7334 483.98 28.3085 482.954 28.3085 481.884C28.3085 480.815 28.7334 479.789 29.4898 479.033C30.2462 478.277 31.2721 477.851 32.3418 477.851H58.3637C59.4334 477.851 60.4593 478.277 61.2157 479.033C61.9722 479.789 62.3971 480.815 62.3971 481.884C62.3971 482.954 61.9722 483.98 61.2157 484.737C60.4593 485.493 59.4334 485.918 58.3637 485.918Z" fill="#36FFB5"/>
<path opacity="0.2" d="M173.126 449.974C166.215 449.996 159.465 447.891 153.791 443.947C148.118 440.002 143.794 434.408 141.407 427.923C139.02 421.438 138.685 414.375 140.447 407.694C142.21 401.011 145.984 395.033 151.259 390.569L156.481 396.714C153.199 399.504 150.673 403.075 149.133 407.099C147.595 411.122 147.094 415.468 147.677 419.736C148.259 424.004 149.907 428.056 152.468 431.52C155.029 434.983 158.421 437.746 162.33 439.554C166.24 441.362 170.542 442.157 174.84 441.865C179.138 441.573 183.292 440.205 186.922 437.884C190.551 435.564 193.538 432.368 195.607 428.59C197.676 424.812 198.76 420.574 198.761 416.266V352.849H206.828V416.266C206.828 425.202 203.278 433.77 196.96 440.088C190.642 446.406 182.074 449.956 173.138 449.956L173.126 449.974Z" fill="#CC08F2"/>
<path opacity="0.2" d="M234.852 465.405C229.853 465.397 225.061 463.405 221.527 459.868C217.994 456.332 216.008 451.538 216.005 446.539V384.026H224.072V446.539C224.073 448.353 224.531 450.138 225.403 451.729C226.275 453.32 227.533 454.667 229.063 455.643C230.592 456.62 232.342 457.196 234.153 457.319C235.963 457.442 237.775 457.107 239.422 456.345C241.069 455.583 242.498 454.419 243.576 452.96C244.655 451.501 245.35 449.794 245.595 447.996C245.841 446.199 245.631 444.368 244.983 442.673C244.335 440.977 243.271 439.473 241.89 438.297L247.111 432.152C249.957 434.57 252.021 437.778 253.044 441.369C254.066 444.96 254 448.774 252.855 452.328C251.71 455.882 249.536 459.017 246.609 461.336C243.683 463.654 240.134 465.053 236.412 465.355C235.888 465.388 235.368 465.405 234.852 465.405Z" fill="#36FFB5"/>
<path opacity="0.2" d="M223.323 353.22H215.256V372.647H223.323V353.22Z" fill="#36FFB5"/>
<path opacity="0.2" d="M175.21 433.779C174.337 433.778 173.465 433.714 172.602 433.586L173.775 425.606C175.339 425.833 176.936 425.672 178.423 425.135C179.91 424.598 181.242 423.702 182.3 422.528C183.358 421.353 184.11 419.935 184.49 418.401C184.87 416.866 184.865 415.261 184.477 413.729C184.088 412.196 183.327 410.783 182.262 409.615C181.197 408.447 179.86 407.559 178.369 407.03C176.88 406.503 175.282 406.35 173.719 406.586C172.156 406.823 170.675 407.442 169.408 408.387L164.591 401.918C166.834 400.249 169.441 399.137 172.197 398.671C174.953 398.205 177.781 398.4 180.446 399.239C183.113 400.079 185.542 401.538 187.535 403.498C189.528 405.458 191.027 407.863 191.91 410.515C192.793 413.168 193.034 415.991 192.614 418.754C192.195 421.518 191.125 424.143 189.494 426.412C187.862 428.683 185.716 430.533 183.231 431.813C180.746 433.092 177.993 433.764 175.197 433.773L175.21 433.779Z" fill="#36FFB5"/>
<path opacity="0.2" d="M243.119 422.869C240.582 422.869 238.102 422.117 235.993 420.707C233.884 419.298 232.24 417.294 231.268 414.951C230.298 412.607 230.044 410.028 230.538 407.54C231.034 405.052 232.255 402.766 234.049 400.972C235.843 399.178 238.128 397.957 240.616 397.461C243.105 396.967 245.684 397.221 248.028 398.191C250.371 399.163 252.375 400.807 253.784 402.916C255.194 405.025 255.946 407.505 255.946 410.042C255.941 413.443 254.588 416.702 252.184 419.107C249.779 421.511 246.52 422.864 243.119 422.869ZM243.119 405.275C242.176 405.275 241.255 405.555 240.471 406.079C239.687 406.602 239.076 407.347 238.716 408.218C238.355 409.089 238.26 410.048 238.444 410.972C238.628 411.897 239.082 412.746 239.749 413.413C240.416 414.079 241.265 414.533 242.189 414.717C243.114 414.901 244.072 414.806 244.943 414.446C245.814 414.085 246.558 413.474 247.082 412.69C247.606 411.907 247.885 410.985 247.885 410.042C247.884 408.779 247.381 407.567 246.488 406.674C245.594 405.78 244.383 405.277 243.119 405.275Z" fill="#36FFB5"/>
<path opacity="0.2" d="M179.677 390.244C177.141 390.24 174.664 389.483 172.558 388.071C170.452 386.659 168.812 384.654 167.845 382.311C166.877 379.967 166.626 377.389 167.124 374.903C167.621 372.416 168.844 370.132 170.638 368.341C172.432 366.55 174.717 365.33 177.204 364.836C179.692 364.343 182.269 364.597 184.611 365.568C186.954 366.538 188.956 368.182 190.365 370.29C191.774 372.398 192.527 374.876 192.528 377.411C192.525 380.817 191.17 384.082 188.76 386.489C186.35 388.896 183.082 390.246 179.677 390.244ZM179.677 372.651C178.734 372.651 177.812 372.931 177.028 373.455C176.245 373.978 175.634 374.723 175.273 375.594C174.912 376.465 174.818 377.423 175.002 378.348C175.186 379.272 175.639 380.121 176.306 380.788C176.973 381.455 177.822 381.909 178.747 382.093C179.672 382.276 180.63 382.182 181.501 381.821C182.372 381.461 183.116 380.849 183.639 380.066C184.163 379.282 184.443 378.36 184.443 377.417C184.443 376.153 183.941 374.94 183.047 374.045C182.153 373.15 180.941 372.647 179.677 372.645V372.651Z" fill="#36FFB5"/>
<path opacity="0.2" d="M353.819 390.244C351.283 390.244 348.803 389.493 346.693 388.083C344.584 386.673 342.939 384.67 341.969 382.326C340.998 379.983 340.744 377.404 341.239 374.915C341.734 372.427 342.956 370.142 344.749 368.348C346.544 366.554 348.829 365.332 351.317 364.838C353.806 364.342 356.384 364.596 358.728 365.567C361.072 366.538 363.075 368.182 364.484 370.292C365.894 372.401 366.646 374.881 366.646 377.418C366.641 380.818 365.289 384.078 362.884 386.482C360.48 388.887 357.22 390.24 353.819 390.244ZM353.819 372.651C352.877 372.651 351.955 372.931 351.172 373.455C350.387 373.978 349.777 374.723 349.416 375.594C349.055 376.465 348.961 377.423 349.145 378.348C349.329 379.272 349.783 380.121 350.449 380.788C351.116 381.455 351.965 381.909 352.89 382.093C353.814 382.276 354.773 382.182 355.643 381.821C356.514 381.461 357.259 380.849 357.783 380.066C358.306 379.282 358.586 378.361 358.586 377.418C358.586 376.153 358.084 374.94 357.19 374.045C356.297 373.15 355.084 372.647 353.819 372.645V372.651Z" fill="#36FFB5"/>
<path opacity="0.2" d="M102.721 407.103C104.341 407.103 105.654 405.79 105.654 404.171C105.654 402.552 104.341 401.239 102.721 401.239C101.102 401.239 99.7892 402.552 99.7892 404.171C99.7892 405.79 101.102 407.103 102.721 407.103Z" fill="#36FFB5"/>
<path opacity="0.2" d="M266.208 457.325C267.828 457.325 269.141 456.012 269.141 454.393C269.141 452.774 267.828 451.461 266.208 451.461C264.589 451.461 263.276 452.774 263.276 454.393C263.276 456.012 264.589 457.325 266.208 457.325Z" fill="#36FFB5"/>
<path opacity="0.2" d="M364.818 468.324H356.752C356.745 462.589 354.464 457.092 350.409 453.037C346.354 448.982 340.857 446.701 335.122 446.694H329.625V438.627H335.122C342.995 438.636 350.544 441.767 356.112 447.335C361.679 452.902 364.81 460.45 364.818 468.324Z" fill="#CC08F2"/>
<path opacity="0.2" d="M71.1969 469.879H63.1301C63.1488 454.403 69.304 439.567 80.2468 428.625C91.189 417.682 106.025 411.527 121.5 411.509H133.142V419.575H121.506C108.169 419.59 95.3827 424.894 85.9509 434.324C76.5198 443.755 71.2137 456.541 71.1969 469.879Z" fill="#36FFB5"/>
<path opacity="0.2" d="M422.989 468.325H414.953C414.94 451.799 408.371 435.954 396.687 424.266C385.003 412.579 369.16 406.005 352.634 405.987H338.422V397.939H352.634C371.29 397.967 389.173 405.393 402.363 418.588C415.551 431.782 422.969 449.669 422.989 468.325Z" fill="#36FFB5"/>
<path opacity="0.2" d="M110.788 468.323H102.721C102.731 460.451 105.863 452.905 111.429 447.339C116.994 441.774 124.541 438.642 132.412 438.632H137.908V446.699H132.412C126.68 446.707 121.184 448.988 117.131 453.041C113.078 457.095 110.797 462.59 110.788 468.323Z" fill="#CC08F2"/>
<path opacity="0.2" d="M378.743 485.918H71.9268C70.8575 485.918 69.8312 485.493 69.0751 484.737C68.3183 483.98 67.8934 482.954 67.8934 481.884C67.8934 480.815 68.3183 479.789 69.0751 479.033C69.8312 478.277 70.8575 477.851 71.9268 477.851H378.743C379.813 477.851 380.839 478.277 381.595 479.033C382.352 479.789 382.776 480.815 382.776 481.884C382.776 482.954 382.352 483.98 381.595 484.737C380.839 485.493 379.813 485.918 378.743 485.918Z" fill="#36FFB5"/>
<path opacity="0.2" d="M18.0426 485.917C17.7784 485.917 17.515 485.89 17.2565 485.835C16.9984 485.784 16.7457 485.709 16.5016 485.611C16.2584 485.509 16.0246 485.386 15.8029 485.243C15.5795 485.094 15.3707 484.925 15.179 484.737C14.8037 484.364 14.5067 483.918 14.3056 483.428C14.2076 483.183 14.1324 482.931 14.081 482.672C13.9732 482.152 13.9732 481.615 14.081 481.095C14.1324 480.836 14.2076 480.584 14.3056 480.339C14.4077 480.096 14.5309 479.862 14.6737 479.64C14.9688 479.199 15.3483 478.819 15.7904 478.524C16.0121 478.381 16.2459 478.258 16.4891 478.155C16.7333 478.058 16.9859 477.983 17.244 477.932C17.7648 477.825 18.3017 477.825 18.8224 477.932C19.0805 477.983 19.3332 478.058 19.5773 478.155C19.8205 478.258 20.0543 478.381 20.2761 478.524C20.7182 478.819 21.0977 479.199 21.3928 479.64C21.5357 479.862 21.6588 480.096 21.7609 480.339C21.8592 480.584 21.9365 480.836 21.9917 481.095C22.0946 481.616 22.0946 482.151 21.9917 482.672C21.9365 482.931 21.8592 483.183 21.7609 483.428C21.6588 483.671 21.5357 483.905 21.3928 484.127C21.2457 484.351 21.0764 484.56 20.8875 484.75C20.6959 484.938 20.487 485.107 20.2636 485.255C20.0419 485.398 19.808 485.522 19.5649 485.624C19.3207 485.722 19.068 485.797 18.81 485.849C18.5572 485.897 18.3001 485.92 18.0426 485.917Z" fill="#36FFB5"/>
<path opacity="0.2" d="M419.795 485.918H393.773C392.703 485.918 391.677 485.493 390.921 484.737C390.164 483.98 389.739 482.954 389.739 481.884C389.739 480.815 390.164 479.789 390.921 479.033C391.677 478.277 392.703 477.851 393.773 477.851H419.795C420.864 477.851 421.89 478.277 422.646 479.033C423.403 479.789 423.828 480.815 423.828 481.884C423.828 482.954 423.403 483.98 422.646 484.737C421.89 485.493 420.864 485.918 419.795 485.918Z" fill="#36FFB5"/>
<path opacity="0.2" d="M434.093 485.917C433.829 485.918 433.566 485.89 433.307 485.836C433.049 485.785 432.796 485.709 432.552 485.612C432.309 485.51 432.075 485.386 431.854 485.243C431.63 485.095 431.421 484.926 431.23 484.738C431.041 484.548 430.872 484.339 430.724 484.114C430.582 483.893 430.459 483.659 430.356 483.415C430.258 483.171 430.181 482.918 430.126 482.661C430.023 482.14 430.023 481.603 430.126 481.082C430.181 480.825 430.258 480.572 430.356 480.327C430.459 480.084 430.582 479.85 430.724 479.629C431.02 479.186 431.399 478.807 431.841 478.512C432.063 478.369 432.297 478.245 432.54 478.144C432.784 478.046 433.037 477.97 433.295 477.919C433.816 477.812 434.352 477.812 434.873 477.919C435.132 477.97 435.384 478.046 435.628 478.144C435.871 478.245 436.105 478.369 436.327 478.512C436.769 478.807 437.149 479.186 437.444 479.629C437.586 479.85 437.709 480.084 437.812 480.327C437.91 480.571 437.985 480.824 438.036 481.082C438.144 481.602 438.144 482.14 438.036 482.661C437.985 482.919 437.91 483.172 437.812 483.415C437.709 483.659 437.586 483.892 437.444 484.114C437.296 484.339 437.127 484.548 436.938 484.738C436.747 484.926 436.538 485.095 436.314 485.243C436.093 485.386 435.859 485.509 435.616 485.612C435.372 485.709 435.119 485.785 434.861 485.836C434.609 485.889 434.351 485.917 434.093 485.917Z" fill="#36FFB5"/>
<path d="M129.829 404.433C128.768 404.435 127.735 404.099 126.877 403.474C126.021 402.85 125.385 401.968 125.062 400.958C119.984 385.523 111.749 354.56 113.546 320.577C114.544 301.724 118.537 284.305 125.343 268.796C133.53 250.268 146.057 233.983 161.865 221.319L165.327 225.592C136.735 248.769 121.157 280.824 119.036 320.871C117.364 352.457 124.651 381.43 129.592 397.102C132.031 370.619 141.003 348.203 148.208 333.91C156.244 317.976 163.693 308.63 164.005 308.243L168.291 311.687C168.179 311.831 160.804 321.108 153.043 336.53C145.887 350.754 136.929 373.27 134.882 399.772C134.803 400.94 134.316 402.043 133.507 402.887C132.697 403.733 131.616 404.266 130.453 404.395C130.246 404.42 130.037 404.433 129.829 404.433Z" fill="#9747FF"/>
<path d="M226.012 6.39347C225.247 5.52842 224.307 4.83577 223.254 4.36136C222.201 3.88696 221.059 3.64164 219.904 3.64164C218.749 3.64164 217.608 3.88696 216.555 4.36136C215.502 4.83577 214.561 5.52842 213.796 6.39347C196.197 26.3139 146.611 90.38 146.611 179.925C146.611 267.573 165.621 306.934 173.032 318.943C174.617 321.508 178.067 323.161 181.829 323.161H257.986C261.766 323.161 265.21 321.52 266.782 318.943C274.194 306.934 293.222 267.573 293.222 179.925C293.222 90.38 243.618 26.3139 226.012 6.39347Z" fill="#9126BF"/>
<path d="M220.391 80.4977H218.925V322.431H220.391V80.4977Z" fill="#9747FF"/>
<path opacity="0.2" d="M218.925 80.4977H217.459V322.431H218.925V80.4977Z" fill="#9747FF"/>
<path opacity="0.3" d="M221.857 80.4977H220.391V322.431H221.857V80.4977Z" fill="#9126BF"/>
<path d="M268.411 78.2948H169.838C175.849 63.8334 182.902 49.8277 190.944 36.389C191.647 35.2161 192.343 34.0703 193.034 32.9515C207.084 11.9206 217.5 5.5 217.5 5.5C217.5 5.5 232.818 16.3938 250.468 45.1857L250.724 45.6099C256.52 55.1927 262.552 66.123 268.411 78.2948Z" fill="#EE0CF2"/>
<path d="M267.674 77.2355L262.284 76.4619C253.381 63.4416 228.757 36.8705 194.818 33.2083C195.442 32.0354 197.937 29.6397 198.561 28.523C203.434 20.5124 207.87 15.1284 211.494 10.0001C212.459 8.62651 213.737 7.5016 215.221 6.71795C216.706 5.93424 218.355 5.51416 220.034 5.49224C221.713 5.47031 223.372 5.84716 224.877 6.59179C226.381 7.3364 227.688 8.42756 228.688 9.7755C236.348 20.004 243.318 30.7314 249.551 41.8864C249.626 42.0237 250.437 42.1672 250.518 42.3107C255.79 51.8934 265.478 57.8078 267.674 77.2355Z" fill="#EE0CF2"/>
<path d="M184.668 68.923C184.35 68.9223 184.038 68.8394 183.762 68.6821C183.487 68.5249 183.256 68.2991 183.094 68.0264C182.932 67.7532 182.843 67.4431 182.837 67.1256C182.831 66.808 182.907 66.4948 183.058 66.2153C184.842 62.9337 186.801 59.6336 188.754 56.4456C190.626 53.3262 192.547 50.1507 194.269 47.0064C194.512 46.5991 194.903 46.3018 195.36 46.1767C195.818 46.0515 196.305 46.1082 196.722 46.3349C197.138 46.5617 197.45 46.9408 197.593 47.3928C197.737 47.8448 197.699 48.3346 197.488 48.7594C195.735 51.9787 193.782 55.2103 191.873 58.336C189.964 61.4616 188.005 64.7492 186.258 67.9622C186.103 68.2498 185.874 68.49 185.594 68.6591C185.314 68.8281 184.995 68.9192 184.668 68.923Z" fill="#9126BF"/>
<g opacity="0.4">
<path opacity="0.4" d="M238.203 144.619C240.561 140.801 242.233 137.563 242.489 137.675C242.745 137.788 241.391 141.232 238.995 145.106C236.6 148.98 234.135 151.738 233.942 151.582C233.749 151.426 235.864 148.45 238.203 144.619Z" fill="#9126BF"/>
<path opacity="0.4" d="M242.436 148.065C243.964 145.49 245.022 143.295 244.8 143.164C244.577 143.031 243.159 145.013 241.631 147.588C240.104 150.164 239.046 152.358 239.268 152.49C239.49 152.622 240.909 150.641 242.436 148.065Z" fill="#9126BF"/>
<path opacity="0.4" d="M239.132 147.159C242.576 148.55 245.452 149.511 245.371 149.767C245.29 150.023 242.251 149.449 238.77 148.026C235.289 146.604 232.675 144.907 232.8 144.707C232.924 144.507 235.682 145.78 239.132 147.159Z" fill="#9126BF"/>
<path opacity="0.4" d="M242.389 146.221C245.508 147.687 248.147 148.611 248.072 148.867C247.997 149.122 245.19 148.561 241.995 147.07C238.801 145.579 236.562 143.769 236.705 143.582C236.848 143.395 239.269 144.78 242.389 146.221Z" fill="#9126BF"/>
</g>
<path d="M196.284 324.994H182.915C179.134 324.994 175.69 323.347 174.118 320.77C166.713 308.729 147.703 269.275 147.703 181.415C147.703 95.3759 193.246 32.8009 212.586 10.1729C195.261 30.6984 157.747 85.0383 157.747 170.665L179.739 139.808C179.284 141.006 134.87 270.199 196.284 324.994Z" fill="#9747FF"/>
<path d="M187.313 323.341H183.644C179.864 323.341 176.42 321.694 174.848 319.118C167.442 307.077 148.433 267.623 148.433 179.762C148.433 93.7233 193.976 31.1483 213.279 8.53275C203.44 20.193 187.026 42.846 174.723 75.9116C162.102 104.229 152.089 139.404 152.089 179.725C152.089 267.592 171.098 307.046 178.504 319.08C180.095 321.694 183.538 323.341 187.313 323.341Z" fill="#9126BF"/>
<path opacity="0.8" d="M241.297 323.16H254.667C258.447 323.16 261.891 321.519 263.463 318.949C270.869 306.946 289.878 267.604 289.878 179.993C289.878 94.2162 244.335 31.81 224.995 9.24434C242.32 29.7075 283.87 83.8785 283.87 169.275L264.836 138.505C265.266 139.703 302.718 268.521 241.297 323.16Z" fill="#9747FF"/>
<g opacity="0.9">
<path opacity="0.9" d="M173.195 107.268C173.82 104.818 174.572 102.403 175.447 100.031C176.169 98.0898 177.003 96.1926 177.942 94.3472C179.558 91.2278 180.956 89.4497 181.536 89.6931C182.116 89.9364 181.835 92.1324 181.043 95.4826C180.65 97.1609 180.151 99.151 179.577 101.316L177.724 108.397L175.933 115.528C175.397 117.73 174.891 119.689 174.442 121.355C173.538 124.68 172.764 126.745 172.115 126.683C171.466 126.62 171.086 124.418 171.167 120.881C171.228 118.815 171.407 116.755 171.703 114.711C172.072 112.206 172.57 109.721 173.195 107.268Z" fill="#9126BF"/>
</g>
<g opacity="0.9">
<path opacity="0.9" d="M171.581 135.756C172.12 132.769 171.526 130.161 170.255 129.932C168.983 129.702 167.515 131.938 166.976 134.925C166.437 137.913 167.031 140.52 168.303 140.749C169.574 140.979 171.042 138.744 171.581 135.756Z" fill="#9126BF"/>
</g>
<g opacity="0.2">
<path opacity="0.2" d="M208.593 23.3755C211.631 21.1732 214.458 19.2579 216.529 17.9415C218.6 16.6252 219.935 15.864 220.01 15.9826C220.085 16.1011 218.881 17.0245 216.891 18.4781L209.13 24.093L201.387 29.789C199.391 31.2239 198.131 32.0848 198.05 31.9913C197.969 31.8977 199.085 30.8496 200.982 29.2774C202.878 27.7052 205.555 25.5903 208.593 23.3755Z" fill="#9126BF"/>
<path opacity="0.2" d="M209.716 26.945C216.398 24.3808 221.782 22.2285 221.888 22.4718C221.938 22.5903 220.64 23.2828 218.525 24.2685C216.41 25.2543 213.391 26.5332 210.053 27.8184C206.715 29.1036 203.621 30.1579 201.375 30.838C199.129 31.518 197.707 31.8673 197.669 31.7488C197.576 31.4993 203.041 29.5091 209.716 26.945Z" fill="#9126BF"/>
</g>
<path d="M213.241 122.465C212.987 122.465 212.739 122.39 212.527 122.249C212.316 122.107 212.151 121.906 212.054 121.672C211.957 121.437 211.931 121.178 211.981 120.929C212.03 120.68 212.153 120.451 212.333 120.271C212.512 120.091 212.741 119.969 212.99 119.919C213.24 119.87 213.498 119.896 213.733 119.992C213.968 120.09 214.169 120.254 214.31 120.466C214.451 120.677 214.526 120.926 214.526 121.18C214.526 121.521 214.391 121.848 214.15 122.088C213.909 122.33 213.582 122.465 213.241 122.465ZM213.241 120.631C213.133 120.631 213.027 120.663 212.936 120.723C212.846 120.784 212.776 120.869 212.734 120.97C212.693 121.07 212.682 121.181 212.703 121.287C212.724 121.393 212.776 121.491 212.853 121.568C212.93 121.645 213.028 121.697 213.134 121.719C213.241 121.74 213.351 121.729 213.451 121.687C213.552 121.646 213.637 121.575 213.698 121.485C213.758 121.395 213.79 121.289 213.79 121.18C213.79 121.034 213.733 120.894 213.629 120.791C213.526 120.689 213.387 120.631 213.241 120.631Z" fill="#9747FF"/>
<path opacity="0.2" d="M213.241 123.565C212.77 123.565 212.309 123.425 211.917 123.163C211.526 122.901 211.22 122.529 211.04 122.093C210.859 121.658 210.812 121.179 210.904 120.717C210.996 120.254 211.223 119.829 211.556 119.496C211.889 119.162 212.314 118.936 212.776 118.844C213.239 118.752 213.718 118.799 214.153 118.98C214.589 119.16 214.961 119.465 215.223 119.857C215.485 120.249 215.624 120.71 215.624 121.181C215.624 121.813 215.374 122.42 214.926 122.866C214.48 123.313 213.873 123.565 213.241 123.565ZM213.241 120.264C213.06 120.264 212.883 120.318 212.732 120.419C212.581 120.519 212.463 120.663 212.394 120.83C212.325 120.998 212.307 121.183 212.342 121.36C212.377 121.538 212.465 121.702 212.593 121.83C212.721 121.958 212.884 122.045 213.062 122.081C213.24 122.116 213.425 122.098 213.593 122.029C213.76 121.959 213.903 121.841 214.004 121.691C214.105 121.54 214.158 121.363 214.158 121.181C214.16 121.06 214.138 120.939 214.092 120.826C214.047 120.714 213.979 120.611 213.894 120.524C213.809 120.438 213.707 120.37 213.595 120.323C213.483 120.276 213.363 120.252 213.241 120.252V120.264Z" fill="#9747FF"/>
<path d="M213.241 97.3543C212.987 97.3543 212.739 97.2788 212.527 97.1378C212.316 96.9962 212.151 96.7953 212.054 96.5607C211.957 96.3261 211.931 96.0672 211.981 95.8183C212.03 95.5687 212.153 95.3398 212.333 95.1601C212.512 94.9804 212.741 94.8581 212.99 94.8082C213.24 94.7589 213.498 94.7845 213.733 94.8812C213.968 94.9786 214.169 95.1433 214.31 95.3548C214.451 95.5662 214.526 95.8145 214.526 96.0691C214.526 96.4097 214.391 96.7366 214.15 96.9775C213.909 97.2189 213.582 97.3543 213.241 97.3543ZM213.241 95.5201C213.133 95.5201 213.027 95.5519 212.936 95.6124C212.846 95.6729 212.776 95.7584 212.734 95.8588C212.693 95.9593 212.682 96.0697 212.703 96.1758C212.724 96.2825 212.776 96.3804 212.853 96.4571C212.93 96.5339 213.028 96.5863 213.134 96.6075C213.241 96.6287 213.351 96.6175 213.451 96.5763C213.552 96.5345 213.637 96.464 213.698 96.3742C213.758 96.2837 213.79 96.1776 213.79 96.0691C213.789 95.9244 213.73 95.7865 213.627 95.6848C213.524 95.5831 213.386 95.5263 213.241 95.5263V95.5201Z" fill="#9747FF"/>
<path opacity="0.2" d="M213.241 98.4585C212.77 98.4585 212.309 98.3188 211.917 98.0567C211.526 97.7947 211.22 97.4229 211.04 96.9874C210.859 96.552 210.812 96.0722 210.904 95.6099C210.996 95.1476 211.223 94.7234 211.556 94.3902C211.889 94.0564 212.314 93.8294 212.776 93.7376C213.239 93.6459 213.718 93.6927 214.153 93.873C214.589 94.0539 214.961 94.359 215.223 94.7508C215.485 95.1432 215.624 95.6037 215.624 96.0753C215.624 96.7073 215.374 97.3131 214.926 97.7604C214.48 98.2071 213.873 98.4585 213.241 98.4585ZM213.241 95.1582C213.06 95.1582 212.883 95.2119 212.732 95.3123C212.581 95.4134 212.463 95.5569 212.394 95.7241C212.325 95.8919 212.307 96.0759 212.342 96.2537C212.377 96.4322 212.465 96.5956 212.593 96.7235C212.721 96.852 212.884 96.9394 213.062 96.9743C213.24 97.0099 213.425 96.9918 213.593 96.9225C213.76 96.8533 213.903 96.7354 214.004 96.5844C214.105 96.434 214.158 96.2562 214.158 96.0753C214.158 95.832 214.062 95.5987 213.889 95.4265C213.718 95.2549 213.485 95.1582 213.241 95.1582Z" fill="#9747FF"/>
<path d="M226.068 105.42C225.814 105.42 225.566 105.346 225.354 105.204C225.143 105.063 224.978 104.862 224.881 104.627C224.784 104.392 224.758 104.134 224.808 103.884C224.857 103.635 224.98 103.406 225.16 103.227C225.339 103.047 225.568 102.924 225.817 102.875C226.067 102.825 226.325 102.851 226.56 102.948C226.795 103.045 226.996 103.21 227.137 103.421C227.278 103.633 227.353 103.881 227.353 104.135C227.353 104.304 227.32 104.471 227.255 104.627C227.191 104.783 227.096 104.925 226.977 105.044C226.858 105.163 226.716 105.258 226.56 105.323C226.404 105.387 226.237 105.42 226.068 105.42ZM226.068 103.586C225.96 103.586 225.853 103.619 225.763 103.679C225.673 103.739 225.603 103.825 225.561 103.926C225.52 104.025 225.508 104.136 225.53 104.242C225.551 104.349 225.603 104.447 225.68 104.524C225.757 104.601 225.855 104.653 225.961 104.674C226.067 104.695 226.178 104.684 226.278 104.642C226.379 104.601 226.464 104.531 226.525 104.44C226.585 104.35 226.617 104.244 226.617 104.135C226.617 103.99 226.56 103.85 226.457 103.747C226.354 103.644 226.214 103.586 226.068 103.586Z" fill="#9747FF"/>
<path opacity="0.2" d="M226.068 106.525C225.596 106.525 225.136 106.385 224.744 106.123C224.352 105.861 224.047 105.489 223.866 105.054C223.686 104.618 223.639 104.139 223.73 103.677C223.823 103.214 224.05 102.789 224.383 102.456C224.716 102.123 225.141 101.896 225.603 101.804C226.066 101.712 226.545 101.759 226.98 101.94C227.416 102.12 227.788 102.426 228.049 102.818C228.312 103.209 228.451 103.67 228.451 104.141C228.451 104.773 228.2 105.38 227.753 105.827C227.306 106.274 226.7 106.525 226.068 106.525ZM226.068 103.224C225.886 103.224 225.709 103.279 225.558 103.379C225.408 103.48 225.29 103.623 225.221 103.791C225.152 103.958 225.133 104.143 225.168 104.32C225.204 104.498 225.291 104.662 225.42 104.79C225.548 104.918 225.711 105.005 225.889 105.041C226.067 105.077 226.251 105.059 226.419 104.989C226.586 104.919 226.73 104.802 226.83 104.651C226.931 104.5 226.985 104.323 226.985 104.141C226.985 103.899 226.888 103.665 226.716 103.493C226.545 103.321 226.311 103.224 226.068 103.224Z" fill="#9747FF"/>
<path d="M226.068 196.694C225.814 196.694 225.566 196.619 225.354 196.478C225.143 196.337 224.978 196.136 224.881 195.901C224.784 195.666 224.758 195.408 224.808 195.158C224.857 194.909 224.98 194.68 225.16 194.501C225.339 194.32 225.568 194.198 225.817 194.149C226.067 194.099 226.325 194.124 226.56 194.222C226.795 194.319 226.996 194.484 227.137 194.695C227.278 194.906 227.353 195.155 227.353 195.409C227.353 195.75 227.218 196.077 226.977 196.318C226.736 196.559 226.409 196.694 226.068 196.694ZM226.068 194.86C225.96 194.86 225.853 194.892 225.763 194.952C225.673 195.013 225.603 195.099 225.561 195.199C225.52 195.299 225.508 195.41 225.53 195.516C225.551 195.623 225.603 195.72 225.68 195.797C225.757 195.874 225.855 195.926 225.961 195.947C226.067 195.969 226.178 195.958 226.278 195.916C226.379 195.875 226.464 195.805 226.525 195.714C226.585 195.624 226.617 195.518 226.617 195.409C226.616 195.265 226.557 195.126 226.454 195.025C226.351 194.923 226.213 194.866 226.068 194.866V194.86Z" fill="#9747FF"/>
<path opacity="0.2" d="M226.068 197.798C225.596 197.798 225.136 197.659 224.744 197.397C224.352 197.135 224.047 196.763 223.866 196.327C223.686 195.892 223.639 195.413 223.73 194.95C223.823 194.488 224.05 194.063 224.383 193.73C224.716 193.397 225.141 193.17 225.603 193.078C226.066 192.986 226.545 193.033 226.98 193.214C227.416 193.394 227.788 193.7 228.049 194.091C228.312 194.483 228.451 194.944 228.451 195.415C228.451 196.047 228.2 196.654 227.753 197.1C227.306 197.548 226.7 197.798 226.068 197.798ZM226.068 194.498C225.886 194.498 225.709 194.552 225.558 194.653C225.408 194.753 225.29 194.897 225.221 195.065C225.152 195.232 225.133 195.416 225.168 195.594C225.204 195.772 225.291 195.936 225.42 196.064C225.548 196.192 225.711 196.279 225.889 196.315C226.067 196.35 226.251 196.332 226.419 196.262C226.586 196.193 226.73 196.076 226.83 195.925C226.931 195.774 226.985 195.597 226.985 195.415C226.986 195.294 226.963 195.174 226.917 195.063C226.872 194.95 226.804 194.849 226.719 194.763C226.633 194.677 226.532 194.609 226.421 194.562C226.309 194.516 226.189 194.492 226.068 194.492V194.498Z" fill="#9747FF"/>
<path d="M226.467 215.391C226.213 215.391 225.965 215.316 225.753 215.175C225.542 215.033 225.377 214.833 225.28 214.598C225.183 214.363 225.158 214.105 225.207 213.855C225.257 213.606 225.379 213.377 225.559 213.197C225.739 213.017 225.967 212.895 226.217 212.845C226.466 212.796 226.724 212.821 226.959 212.919C227.194 213.016 227.395 213.181 227.536 213.392C227.678 213.603 227.752 213.851 227.752 214.106C227.752 214.447 227.617 214.773 227.376 215.015C227.135 215.256 226.808 215.391 226.467 215.391ZM226.467 213.557C226.359 213.557 226.253 213.589 226.163 213.649C226.072 213.71 226.002 213.795 225.96 213.896C225.919 213.996 225.908 214.107 225.929 214.213C225.95 214.319 226.002 214.417 226.079 214.494C226.156 214.571 226.254 214.623 226.361 214.644C226.467 214.666 226.577 214.655 226.677 214.613C226.778 214.571 226.863 214.501 226.924 214.411C226.984 214.321 227.016 214.215 227.016 214.106C227.016 213.961 226.959 213.821 226.856 213.718C226.753 213.615 226.613 213.557 226.467 213.557Z" fill="#9747FF"/>
<path opacity="0.2" d="M226.468 216.49C225.996 216.49 225.535 216.351 225.144 216.089C224.752 215.827 224.446 215.455 224.266 215.019C224.086 214.584 224.038 214.105 224.13 213.642C224.222 213.18 224.449 212.755 224.782 212.422C225.116 212.089 225.54 211.862 226.003 211.77C226.465 211.678 226.944 211.725 227.38 211.906C227.815 212.086 228.188 212.392 228.449 212.783C228.711 213.175 228.851 213.636 228.851 214.107C228.851 214.739 228.6 215.346 228.153 215.792C227.706 216.24 227.1 216.49 226.468 216.49ZM226.468 213.19C226.286 213.19 226.109 213.244 225.958 213.345C225.807 213.445 225.69 213.589 225.62 213.757C225.551 213.924 225.533 214.108 225.568 214.286C225.603 214.464 225.691 214.628 225.819 214.756C225.947 214.884 226.111 214.971 226.288 215.007C226.467 215.042 226.651 215.024 226.819 214.954C226.986 214.885 227.129 214.768 227.23 214.617C227.331 214.466 227.385 214.289 227.385 214.107C227.38 213.867 227.281 213.639 227.109 213.471C226.938 213.303 226.708 213.209 226.468 213.209V213.19Z" fill="#9747FF"/>
<path d="M212.118 191.567C211.864 191.567 211.616 191.492 211.404 191.35C211.193 191.209 211.028 191.008 210.931 190.774C210.834 190.538 210.809 190.28 210.858 190.031C210.908 189.782 211.03 189.553 211.21 189.373C211.389 189.193 211.618 189.07 211.868 189.021C212.117 188.972 212.375 188.997 212.61 189.094C212.845 189.191 213.046 189.356 213.187 189.568C213.328 189.779 213.403 190.027 213.403 190.281C213.403 190.623 213.268 190.95 213.027 191.19C212.786 191.431 212.459 191.567 212.118 191.567ZM212.118 189.732C212.01 189.732 211.903 189.765 211.814 189.825C211.723 189.885 211.653 189.971 211.611 190.072C211.57 190.172 211.558 190.282 211.58 190.389C211.601 190.495 211.653 190.593 211.73 190.67C211.807 190.747 211.905 190.799 212.011 190.82C212.117 190.841 212.228 190.83 212.328 190.789C212.429 190.747 212.514 190.677 212.575 190.586C212.635 190.497 212.667 190.39 212.667 190.281C212.667 190.136 212.61 189.996 212.507 189.893C212.404 189.79 212.264 189.732 212.118 189.732Z" fill="#9747FF"/>
<path opacity="0.2" d="M212.118 192.664C211.647 192.664 211.186 192.524 210.794 192.262C210.403 192 210.097 191.628 209.917 191.193C209.736 190.757 209.689 190.278 209.781 189.815C209.873 189.353 210.1 188.929 210.433 188.596C210.766 188.262 211.191 188.035 211.653 187.943C212.116 187.851 212.595 187.898 213.03 188.078C213.466 188.259 213.838 188.564 214.1 188.956C214.362 189.349 214.501 189.809 214.501 190.281C214.501 190.913 214.251 191.518 213.803 191.966C213.357 192.412 212.75 192.664 212.118 192.664ZM212.118 189.364C211.937 189.364 211.76 189.417 211.609 189.518C211.458 189.619 211.34 189.762 211.271 189.929C211.202 190.097 211.184 190.281 211.219 190.459C211.254 190.638 211.342 190.801 211.47 190.929C211.598 191.057 211.761 191.145 211.939 191.18C212.118 191.215 212.302 191.197 212.47 191.128C212.637 191.059 212.78 190.941 212.881 190.79C212.982 190.639 213.035 190.462 213.035 190.281C213.035 190.037 212.939 189.804 212.767 189.632C212.595 189.46 212.362 189.364 212.118 189.364Z" fill="#9747FF"/>
<path d="M212.118 210.256C211.864 210.256 211.616 210.181 211.404 210.04C211.193 209.899 211.028 209.698 210.931 209.463C210.834 209.228 210.809 208.97 210.858 208.721C210.908 208.471 211.03 208.242 211.21 208.062C211.389 207.883 211.618 207.76 211.868 207.711C212.117 207.661 212.375 207.686 212.61 207.784C212.845 207.881 213.046 208.046 213.187 208.257C213.328 208.469 213.403 208.717 213.403 208.971C213.403 209.312 213.268 209.639 213.027 209.88C212.786 210.121 212.459 210.256 212.118 210.256ZM212.118 208.422C212.01 208.422 211.903 208.454 211.814 208.515C211.723 208.575 211.653 208.661 211.611 208.761C211.57 208.861 211.558 208.971 211.58 209.078C211.601 209.185 211.653 209.283 211.73 209.359C211.807 209.436 211.905 209.489 212.011 209.51C212.117 209.53 212.228 209.52 212.328 209.478C212.429 209.437 212.514 209.366 212.575 209.276C212.635 209.186 212.667 209.079 212.667 208.971C212.666 208.827 212.607 208.689 212.504 208.587C212.401 208.485 212.263 208.428 212.118 208.428V208.422Z" fill="#9747FF"/>
<path opacity="0.2" d="M212.118 211.336C211.647 211.336 211.186 211.196 210.794 210.935C210.403 210.673 210.097 210.3 209.917 209.865C209.736 209.429 209.689 208.95 209.781 208.488C209.873 208.026 210.1 207.601 210.433 207.268C210.766 206.934 211.191 206.707 211.653 206.616C212.116 206.523 212.595 206.571 213.03 206.751C213.466 206.931 213.838 207.237 214.1 207.629C214.362 208.021 214.501 208.482 214.501 208.953C214.501 209.585 214.251 210.191 213.803 210.638C213.357 211.085 212.75 211.336 212.118 211.336ZM212.118 208.036C211.937 208.036 211.76 208.09 211.609 208.19C211.458 208.291 211.34 208.434 211.271 208.602C211.202 208.769 211.184 208.954 211.219 209.132C211.254 209.31 211.342 209.473 211.47 209.602C211.598 209.729 211.761 209.817 211.939 209.852C212.118 209.888 212.302 209.87 212.47 209.8C212.637 209.731 212.78 209.613 212.881 209.462C212.982 209.311 213.035 209.134 213.035 208.953C213.029 208.714 212.929 208.487 212.758 208.321C212.587 208.154 212.357 208.061 212.118 208.061V208.036Z" fill="#9747FF"/>
<path d="M213.241 147.576C212.987 147.576 212.739 147.501 212.527 147.36C212.316 147.218 212.151 147.017 212.054 146.783C211.957 146.548 211.931 146.289 211.981 146.04C212.03 145.791 212.153 145.562 212.333 145.382C212.512 145.203 212.741 145.08 212.99 145.03C213.24 144.981 213.498 145.007 213.733 145.103C213.968 145.201 214.169 145.365 214.31 145.577C214.451 145.788 214.526 146.037 214.526 146.291C214.526 146.632 214.391 146.959 214.15 147.2C213.909 147.441 213.582 147.576 213.241 147.576ZM213.241 145.742C213.133 145.742 213.027 145.774 212.936 145.835C212.846 145.895 212.776 145.98 212.734 146.081C212.693 146.181 212.682 146.292 212.703 146.398C212.724 146.505 212.776 146.603 212.853 146.679C212.93 146.756 213.028 146.808 213.134 146.83C213.241 146.851 213.351 146.84 213.451 146.798C213.552 146.757 213.637 146.686 213.698 146.596C213.758 146.506 213.79 146.4 213.79 146.291C213.79 146.145 213.733 146.005 213.629 145.903C213.526 145.8 213.387 145.742 213.241 145.742Z" fill="#9747FF"/>
<path opacity="0.2" d="M213.241 148.676C212.77 148.676 212.309 148.536 211.917 148.274C211.526 148.012 211.22 147.64 211.04 147.205C210.859 146.769 210.812 146.29 210.904 145.828C210.996 145.365 211.223 144.94 211.556 144.607C211.889 144.274 212.314 144.047 212.776 143.955C213.239 143.863 213.718 143.91 214.153 144.091C214.589 144.271 214.961 144.576 215.223 144.969C215.485 145.36 215.624 145.821 215.624 146.292C215.624 146.924 215.374 147.531 214.926 147.978C214.48 148.424 213.873 148.676 213.241 148.676ZM213.241 145.375C213.06 145.375 212.883 145.429 212.732 145.53C212.581 145.63 212.463 145.774 212.394 145.941C212.325 146.109 212.307 146.294 212.342 146.471C212.377 146.649 212.465 146.813 212.593 146.941C212.721 147.069 212.884 147.156 213.062 147.192C213.24 147.227 213.425 147.209 213.593 147.14C213.76 147.07 213.903 146.952 214.004 146.802C214.105 146.651 214.158 146.474 214.158 146.292C214.158 146.049 214.062 145.816 213.889 145.644C213.718 145.472 213.485 145.375 213.241 145.375Z" fill="#9747FF"/>
<path d="M242.563 70.9637C242.31 70.9637 242.061 70.8882 241.85 70.7472C241.638 70.6055 241.474 70.4053 241.376 70.1701C241.279 69.9355 241.253 69.6772 241.303 69.4277C241.352 69.1781 241.475 68.9492 241.655 68.7695C241.835 68.5898 242.064 68.4675 242.313 68.4176C242.562 68.3683 242.82 68.3939 243.056 68.4912C243.29 68.5886 243.491 68.7533 243.632 68.9641C243.773 69.1756 243.849 69.4239 243.849 69.6785C243.849 69.8469 243.816 70.0141 243.751 70.1701C243.686 70.3261 243.592 70.4677 243.472 70.5875C243.353 70.7066 243.211 70.8014 243.056 70.8657C242.9 70.9306 242.733 70.9637 242.563 70.9637ZM242.563 69.1295C242.455 69.1295 242.349 69.1619 242.258 69.2218C242.169 69.2823 242.098 69.3678 242.056 69.4682C242.015 69.5687 242.004 69.6791 242.025 69.7858C242.046 69.8918 242.099 69.9898 242.175 70.0665C242.252 70.1433 242.35 70.1957 242.457 70.2169C242.563 70.2381 242.673 70.2275 242.774 70.1857C242.874 70.1439 242.96 70.074 243.02 69.9835C243.081 69.8931 243.112 69.787 243.112 69.6785C243.112 69.5331 243.055 69.3934 242.951 69.2904C242.849 69.1875 242.709 69.1295 242.563 69.1295Z" fill="#9747FF"/>
<path opacity="0.2" d="M242.563 72.0629C242.092 72.0629 241.631 71.9232 241.24 71.6611C240.848 71.3997 240.542 71.0273 240.362 70.5918C240.181 70.1564 240.134 69.6772 240.226 69.2149C240.318 68.7526 240.545 68.3278 240.878 67.9946C241.211 67.6615 241.636 67.4344 242.099 67.342C242.561 67.2503 243.04 67.2978 243.476 67.4781C243.911 67.6584 244.283 67.964 244.545 68.3558C244.807 68.7476 244.947 69.2087 244.947 69.6797C244.947 70.3117 244.696 70.9181 244.249 71.3648C243.802 71.8121 243.195 72.0629 242.563 72.0629ZM242.563 68.7626C242.382 68.7626 242.205 68.8163 242.054 68.9173C241.903 69.0178 241.785 69.1613 241.716 69.3291C241.647 69.4963 241.629 69.681 241.664 69.8588C241.699 70.0366 241.787 70.2 241.915 70.3285C242.043 70.4564 242.207 70.5438 242.384 70.5793C242.562 70.6149 242.747 70.5962 242.915 70.5269C243.082 70.4577 243.225 70.3404 243.326 70.1894C243.427 70.0384 243.48 69.8613 243.48 69.6797C243.48 69.4364 243.384 69.2031 243.212 69.0315C243.04 68.8593 242.807 68.7626 242.563 68.7626Z" fill="#9747FF"/>
<path d="M196.378 70.9637C196.124 70.9637 195.875 70.8882 195.663 70.7472C195.453 70.6055 195.288 70.4053 195.191 70.1701C195.093 69.9355 195.068 69.6772 195.118 69.4277C195.167 69.1781 195.289 68.9492 195.469 68.7695C195.648 68.5898 195.877 68.4675 196.127 68.4176C196.377 68.3683 196.635 68.3939 196.869 68.4912C197.105 68.5886 197.305 68.7533 197.446 68.9641C197.587 69.1756 197.663 69.4239 197.663 69.6785C197.663 69.8469 197.63 70.0141 197.565 70.1701C197.501 70.3261 197.406 70.4677 197.287 70.5875C197.167 70.7066 197.025 70.8014 196.869 70.8657C196.713 70.9306 196.546 70.9637 196.378 70.9637ZM196.378 69.1295C196.269 69.1295 196.163 69.1619 196.073 69.2218C195.982 69.2823 195.912 69.3678 195.871 69.4682C195.829 69.5687 195.818 69.6791 195.839 69.7858C195.861 69.8918 195.913 69.9898 195.99 70.0665C196.066 70.1433 196.164 70.1957 196.27 70.2169C196.377 70.2381 196.488 70.2275 196.588 70.1857C196.688 70.1439 196.774 70.074 196.834 69.9835C196.894 69.8931 196.927 69.787 196.927 69.6785C196.927 69.5331 196.869 69.3934 196.766 69.2904C196.663 69.1875 196.523 69.1295 196.378 69.1295Z" fill="#9747FF"/>
<path opacity="0.2" d="M196.378 72.0629C195.907 72.0629 195.446 71.9232 195.054 71.6611C194.662 71.3997 194.356 71.0273 194.176 70.5918C193.996 70.1564 193.948 69.6772 194.041 69.2149C194.132 68.7526 194.36 68.3278 194.693 67.9946C195.026 67.6615 195.451 67.4344 195.913 67.342C196.375 67.2503 196.854 67.2978 197.29 67.4781C197.725 67.6584 198.098 67.964 198.359 68.3558C198.621 68.7476 198.761 69.2087 198.761 69.6797C198.761 70.3117 198.51 70.9181 198.063 71.3648C197.616 71.8121 197.01 72.0629 196.378 72.0629ZM196.378 68.7626C196.196 68.7626 196.019 68.8163 195.868 68.9173C195.718 69.0178 195.6 69.1613 195.531 69.3291C195.461 69.4963 195.443 69.681 195.478 69.8588C195.514 70.0366 195.601 70.2 195.73 70.3285C195.857 70.4564 196.021 70.5438 196.199 70.5793C196.377 70.6149 196.561 70.5962 196.729 70.5269C196.896 70.4577 197.04 70.3404 197.14 70.1894C197.241 70.0384 197.295 69.8613 197.295 69.6797C197.295 69.4364 197.198 69.2031 197.027 69.0315C196.854 68.8593 196.621 68.7626 196.378 68.7626Z" fill="#9747FF"/>
<path d="M219.474 70.9637C219.22 70.9637 218.971 70.8882 218.76 70.7472C218.548 70.6055 218.384 70.4053 218.286 70.1701C218.189 69.9355 218.163 69.6772 218.213 69.4277C218.263 69.1781 218.385 68.9492 218.565 68.7695C218.744 68.5898 218.973 68.4675 219.223 68.4176C219.472 68.3683 219.731 68.3939 219.965 68.4912C220.2 68.5886 220.401 68.7533 220.542 68.9641C220.683 69.1756 220.759 69.4239 220.759 69.6785C220.759 69.8469 220.726 70.0141 220.661 70.1701C220.597 70.3261 220.502 70.4677 220.383 70.5875C220.263 70.7066 220.121 70.8014 219.965 70.8657C219.809 70.9306 219.643 70.9637 219.474 70.9637ZM219.474 69.1295C219.365 69.1295 219.259 69.1619 219.169 69.2218C219.078 69.2823 219.008 69.3678 218.966 69.4682C218.925 69.5687 218.914 69.6791 218.935 69.7858C218.956 69.8918 219.009 69.9898 219.086 70.0665C219.162 70.1433 219.26 70.1957 219.366 70.2169C219.473 70.2381 219.583 70.2275 219.684 70.1857C219.784 70.1439 219.87 70.074 219.93 69.9835C219.99 69.8931 220.023 69.787 220.023 69.6785C220.023 69.5331 219.965 69.3934 219.862 69.2904C219.759 69.1875 219.619 69.1295 219.474 69.1295Z" fill="#9747FF"/>
<path opacity="0.2" d="M219.474 72.0629C219.003 72.0629 218.542 71.9232 218.15 71.6611C217.758 71.3997 217.452 71.0273 217.272 70.5918C217.092 70.1564 217.044 69.6772 217.137 69.2149C217.228 68.7526 217.455 68.3278 217.789 67.9946C218.122 67.6615 218.547 67.4344 219.009 67.342C219.471 67.2503 219.95 67.2978 220.386 67.4781C220.821 67.6584 221.194 67.964 221.455 68.3558C221.717 68.7476 221.857 69.2087 221.857 69.6797C221.857 70.3117 221.606 70.9181 221.159 71.3648C220.712 71.8121 220.106 72.0629 219.474 72.0629ZM219.474 68.7626C219.292 68.7626 219.115 68.8163 218.965 68.9173C218.814 69.0178 218.696 69.1613 218.627 69.3291C218.557 69.4963 218.539 69.681 218.574 69.8588C218.61 70.0366 218.697 70.2 218.826 70.3285C218.953 70.4564 219.117 70.5438 219.295 70.5793C219.473 70.6149 219.657 70.5962 219.825 70.5269C219.992 70.4577 220.136 70.3404 220.236 70.1894C220.337 70.0384 220.391 69.8613 220.391 69.6797C220.391 69.4364 220.294 69.2031 220.123 69.0315C219.95 68.8593 219.717 68.7626 219.474 68.7626Z" fill="#9747FF"/>
<path d="M213.241 238.119C212.987 238.119 212.739 238.043 212.527 237.902C212.316 237.761 212.151 237.56 212.054 237.325C211.957 237.091 211.931 236.832 211.981 236.583C212.03 236.333 212.153 236.104 212.333 235.925C212.512 235.745 212.741 235.623 212.99 235.573C213.24 235.524 213.498 235.549 213.733 235.646C213.968 235.743 214.169 235.908 214.31 236.119C214.451 236.331 214.526 236.579 214.526 236.834C214.526 237.174 214.391 237.501 214.15 237.742C213.909 237.984 213.582 238.119 213.241 238.119ZM213.241 236.285C213.133 236.285 213.027 236.317 212.936 236.377C212.846 236.438 212.776 236.523 212.734 236.624C212.693 236.724 212.682 236.834 212.703 236.94C212.724 237.047 212.776 237.145 212.853 237.222C212.93 237.299 213.028 237.351 213.134 237.372C213.241 237.393 213.351 237.382 213.451 237.341C213.552 237.299 213.637 237.229 213.698 237.138C213.758 237.048 213.79 236.942 213.79 236.834C213.789 236.689 213.73 236.551 213.627 236.449C213.524 236.348 213.386 236.291 213.241 236.291V236.285Z" fill="#9747FF"/>
<path opacity="0.2" d="M213.241 239.218C212.77 239.218 212.309 239.078 211.917 238.816C211.526 238.554 211.22 238.183 211.04 237.747C210.859 237.312 210.812 236.833 210.904 236.37C210.996 235.908 211.223 235.483 211.556 235.15C211.889 234.816 212.314 234.59 212.776 234.497C213.239 234.406 213.718 234.452 214.153 234.633C214.589 234.814 214.961 235.119 215.223 235.511C215.485 235.903 215.624 236.363 215.624 236.835C215.624 237.467 215.374 238.073 214.926 238.52C214.48 238.967 213.873 239.218 213.241 239.218ZM213.241 235.918C213.06 235.918 212.883 235.972 212.732 236.073C212.581 236.173 212.463 236.317 212.394 236.484C212.325 236.652 212.307 236.836 212.342 237.014C212.377 237.192 212.465 237.355 212.593 237.483C212.721 237.612 212.884 237.699 213.062 237.735C213.24 237.77 213.425 237.752 213.593 237.682C213.76 237.613 213.903 237.495 214.004 237.344C214.105 237.194 214.158 237.017 214.158 236.835C214.158 236.592 214.062 236.358 213.889 236.186C213.718 236.015 213.485 235.918 213.241 235.918Z" fill="#9747FF"/>
<path d="M213.241 264.989C212.987 264.989 212.739 264.914 212.527 264.773C212.316 264.631 212.151 264.431 212.054 264.196C211.957 263.961 211.931 263.703 211.981 263.453C212.03 263.204 212.153 262.975 212.333 262.795C212.512 262.615 212.741 262.493 212.99 262.443C213.24 262.394 213.498 262.42 213.733 262.517C213.968 262.614 214.169 262.779 214.31 262.99C214.451 263.201 214.526 263.45 214.526 263.704C214.526 264.045 214.391 264.372 214.15 264.613C213.909 264.854 213.582 264.989 213.241 264.989ZM213.241 263.155C213.133 263.155 213.027 263.188 212.936 263.247C212.846 263.308 212.776 263.393 212.734 263.494C212.693 263.594 212.682 263.705 212.703 263.811C212.724 263.917 212.776 264.015 212.853 264.092C212.93 264.169 213.028 264.221 213.134 264.243C213.241 264.264 213.351 264.253 213.451 264.211C213.552 264.17 213.637 264.1 213.698 264.009C213.758 263.919 213.79 263.813 213.79 263.704C213.787 263.561 213.728 263.424 213.625 263.324C213.523 263.224 213.385 263.168 213.241 263.168V263.155Z" fill="#9747FF"/>
<path opacity="0.2" d="M213.241 266.101C212.77 266.101 212.309 265.961 211.917 265.699C211.526 265.437 211.22 265.065 211.04 264.629C210.859 264.194 210.812 263.715 210.904 263.252C210.996 262.79 211.223 262.366 211.556 262.032C211.889 261.699 212.314 261.472 212.776 261.38C213.239 261.288 213.718 261.335 214.153 261.516C214.589 261.697 214.961 262.002 215.223 262.393C215.485 262.786 215.624 263.246 215.624 263.718C215.624 264.35 215.374 264.956 214.926 265.403C214.48 265.85 213.873 266.101 213.241 266.101ZM213.241 262.801C213.06 262.801 212.883 262.854 212.732 262.955C212.581 263.056 212.463 263.199 212.394 263.367C212.325 263.534 212.307 263.719 212.342 263.896C212.377 264.075 212.465 264.238 212.593 264.366C212.721 264.495 212.884 264.582 213.062 264.617C213.24 264.652 213.425 264.634 213.593 264.565C213.76 264.495 213.903 264.378 214.004 264.227C214.105 264.077 214.158 263.899 214.158 263.718C214.158 263.475 214.062 263.241 213.889 263.069C213.718 262.897 213.485 262.801 213.241 262.801Z" fill="#9747FF"/>
<path d="M213.241 291.884C212.987 291.884 212.739 291.809 212.527 291.668C212.316 291.527 212.151 291.326 212.054 291.091C211.957 290.856 211.931 290.598 211.981 290.348C212.03 290.099 212.153 289.87 212.333 289.69C212.512 289.511 212.741 289.388 212.99 289.339C213.24 289.289 213.498 289.314 213.733 289.412C213.968 289.509 214.169 289.674 214.31 289.885C214.451 290.097 214.526 290.345 214.526 290.599C214.526 290.94 214.391 291.267 214.15 291.508C213.909 291.749 213.582 291.884 213.241 291.884ZM213.241 290.05C213.133 290.05 213.027 290.082 212.936 290.143C212.846 290.203 212.776 290.289 212.734 290.389C212.693 290.489 212.682 290.599 212.703 290.706C212.724 290.813 212.776 290.91 212.853 290.988C212.93 291.064 213.028 291.116 213.134 291.137C213.241 291.158 213.351 291.148 213.451 291.106C213.552 291.065 213.637 290.994 213.698 290.904C213.758 290.813 213.79 290.707 213.79 290.599C213.79 290.453 213.733 290.314 213.629 290.211C213.526 290.108 213.387 290.05 213.241 290.05Z" fill="#9747FF"/>
<path opacity="0.2" d="M213.241 292.983C212.77 292.983 212.309 292.844 211.917 292.582C211.526 292.32 211.22 291.948 211.04 291.512C210.859 291.077 210.812 290.598 210.904 290.135C210.996 289.673 211.223 289.249 211.556 288.915C211.889 288.582 212.314 288.355 212.776 288.263C213.239 288.171 213.718 288.218 214.153 288.398C214.589 288.579 214.961 288.884 215.223 289.276C215.485 289.668 215.624 290.129 215.624 290.6C215.624 291.233 215.374 291.838 214.926 292.286C214.48 292.732 213.873 292.983 213.241 292.983ZM213.241 289.683C213.06 289.683 212.883 289.737 212.732 289.838C212.581 289.939 212.463 290.082 212.394 290.249C212.325 290.417 212.307 290.601 212.342 290.779C212.377 290.957 212.465 291.12 212.593 291.249C212.721 291.377 212.884 291.465 213.062 291.5C213.24 291.535 213.425 291.517 213.593 291.448C213.76 291.378 213.903 291.261 214.004 291.11C214.105 290.959 214.158 290.782 214.158 290.6C214.158 290.357 214.062 290.124 213.889 289.952C213.718 289.78 213.485 289.683 213.241 289.683Z" fill="#9747FF"/>
<path d="M213.241 318.762C212.987 318.762 212.739 318.686 212.527 318.545C212.316 318.404 212.151 318.204 212.054 317.969C211.957 317.734 211.931 317.475 211.981 317.226C212.03 316.977 212.153 316.748 212.333 316.568C212.512 316.389 212.741 316.266 212.99 316.216C213.24 316.167 213.498 316.192 213.733 316.289C213.968 316.387 214.169 316.551 214.31 316.763C214.451 316.974 214.526 317.223 214.526 317.477C214.526 317.818 214.391 318.145 214.15 318.386C213.909 318.626 213.582 318.762 213.241 318.762ZM213.241 316.928C213.133 316.928 213.027 316.96 212.936 317.021C212.846 317.081 212.776 317.167 212.734 317.267C212.693 317.367 212.682 317.477 212.703 317.584C212.724 317.691 212.776 317.788 212.853 317.865C212.93 317.942 213.028 317.994 213.134 318.015C213.241 318.036 213.351 318.026 213.451 317.984C213.552 317.943 213.637 317.872 213.698 317.782C213.758 317.691 213.79 317.585 213.79 317.477C213.79 317.331 213.733 317.192 213.629 317.089C213.526 316.986 213.387 316.928 213.241 316.928Z" fill="#9747FF"/>
<path opacity="0.2" d="M213.241 319.89C212.77 319.89 212.309 319.751 211.917 319.489C211.526 319.227 211.22 318.855 211.04 318.419C210.859 317.984 210.812 317.505 210.904 317.042C210.996 316.58 211.223 316.155 211.556 315.822C211.889 315.489 212.314 315.262 212.776 315.17C213.239 315.078 213.718 315.125 214.153 315.306C214.589 315.486 214.961 315.792 215.223 316.183C215.485 316.575 215.624 317.036 215.624 317.507C215.624 318.139 215.374 318.746 214.926 319.193C214.48 319.64 213.873 319.89 213.241 319.89ZM213.241 316.59C213.06 316.59 212.883 316.644 212.732 316.745C212.581 316.846 212.463 316.989 212.394 317.157C212.325 317.324 212.307 317.508 212.342 317.686C212.377 317.864 212.465 318.028 212.593 318.156C212.721 318.284 212.884 318.371 213.062 318.407C213.24 318.442 213.425 318.424 213.593 318.354C213.76 318.285 213.903 318.168 214.004 318.017C214.105 317.866 214.158 317.689 214.158 317.507C214.161 317.385 214.14 317.263 214.096 317.149C214.051 317.035 213.984 316.931 213.899 316.843C213.813 316.755 213.711 316.685 213.598 316.638C213.485 316.59 213.364 316.565 213.241 316.565V316.59Z" fill="#9747FF"/>
<path opacity="0.6" d="M221.67 184.597C238.777 184.597 252.645 170.729 252.645 153.622C252.645 136.514 238.777 122.646 221.67 122.646C204.562 122.646 190.694 136.514 190.694 153.622C190.694 170.729 204.562 184.597 221.67 184.597Z" fill="#EE0CF2" fill-opacity="0.38"/>
<path d="M222.038 173.236C239.145 173.236 253.013 159.368 253.013 142.26C253.013 125.153 239.145 111.285 222.038 111.285C204.93 111.285 191.062 125.153 191.062 142.26C191.062 159.368 204.93 173.236 222.038 173.236Z" fill="#76EFFF"/>
<path opacity="0.2" d="M221.67 171.409C216.341 171.409 211.131 169.829 206.7 166.868C202.268 163.907 198.815 159.699 196.776 154.775C194.736 149.852 194.203 144.434 195.242 139.207C196.282 133.98 198.848 129.179 202.617 125.411C206.385 121.642 211.186 119.076 216.413 118.036C221.64 116.997 227.058 117.53 231.981 119.57C236.905 121.609 241.113 125.062 244.074 129.494C247.035 133.925 248.615 139.135 248.615 144.464C248.609 151.608 245.768 158.458 240.715 163.51C235.664 168.562 228.814 171.403 221.67 171.409ZM221.67 119.359C216.703 119.359 211.849 120.832 207.719 123.591C203.589 126.35 200.371 130.272 198.47 134.86C196.57 139.449 196.072 144.498 197.042 149.369C198.01 154.24 200.402 158.714 203.914 162.226C207.425 165.738 211.9 168.13 216.771 169.099C221.642 170.068 226.691 169.57 231.279 167.67C235.868 165.769 239.79 162.551 242.549 158.421C245.308 154.292 246.781 149.437 246.781 144.47C246.776 137.811 244.129 131.426 239.421 126.717C234.713 122.008 228.329 119.36 221.67 119.353V119.359Z" fill="#9747FF"/>
<path d="M232.4 114.636L214.726 173.998C210.215 172.786 206.038 170.566 202.51 167.503L218.638 113.388C223.261 112.766 227.965 113.192 232.4 114.636Z" fill="#0086D2"/>
<path d="M242.239 120.008L225.887 174.91C224.851 175.015 223.81 175.067 222.768 175.066C221.517 175.066 220.267 174.991 219.025 174.841L236.45 116.303C238.511 117.32 240.453 118.562 242.239 120.008Z" fill="#0086D2"/>
<path opacity="0.8" d="M199.859 150.996C199.684 150.995 199.515 150.932 199.382 150.817C199.25 150.703 199.162 150.545 199.135 150.372C198.077 143.662 199.352 136.791 202.748 130.907C204.669 127.613 206.928 125.635 209.467 125.043C209.563 125.012 209.666 125.001 209.767 125.011C209.868 125.022 209.965 125.053 210.054 125.103C210.142 125.153 210.219 125.221 210.28 125.302C210.341 125.383 210.384 125.476 210.408 125.575C210.431 125.674 210.434 125.776 210.416 125.876C210.398 125.976 210.359 126.071 210.302 126.155C210.245 126.239 210.172 126.311 210.086 126.365C210 126.419 209.904 126.456 209.804 126.471C207.676 126.97 205.73 128.717 204.02 131.649C200.795 137.242 199.584 143.771 200.589 150.147C200.604 150.243 200.6 150.341 200.576 150.436C200.553 150.53 200.511 150.619 200.453 150.696C200.395 150.774 200.322 150.84 200.238 150.889C200.154 150.938 200.062 150.97 199.965 150.983L199.859 150.996Z" fill="#0086D2"/>
<path d="M242.932 146.453C242.678 146.453 242.429 146.377 242.218 146.236C242.006 146.095 241.842 145.894 241.744 145.659C241.647 145.425 241.621 145.166 241.671 144.917C241.721 144.667 241.843 144.438 242.023 144.259C242.203 144.079 242.432 143.957 242.681 143.907C242.93 143.857 243.189 143.883 243.423 143.98C243.658 144.078 243.859 144.242 244 144.453C244.141 144.665 244.217 144.913 244.217 145.168C244.217 145.508 244.081 145.835 243.841 146.077C243.599 146.317 243.272 146.453 242.932 146.453ZM242.932 144.619C242.823 144.619 242.717 144.651 242.627 144.711C242.536 144.771 242.466 144.857 242.424 144.957C242.383 145.058 242.372 145.168 242.393 145.275C242.414 145.381 242.467 145.479 242.544 145.556C242.62 145.632 242.718 145.685 242.824 145.706C242.931 145.727 243.041 145.717 243.142 145.675C243.242 145.633 243.328 145.563 243.388 145.473C243.448 145.382 243.481 145.276 243.481 145.168C243.474 145.027 243.414 144.893 243.312 144.795C243.209 144.698 243.073 144.644 242.932 144.644V144.619Z" fill="#9747FF"/>
<path opacity="0.2" d="M242.931 147.576C242.46 147.576 241.999 147.437 241.608 147.175C241.216 146.913 240.91 146.541 240.73 146.105C240.549 145.67 240.502 145.191 240.594 144.728C240.686 144.266 240.913 143.841 241.246 143.508C241.579 143.175 242.004 142.948 242.467 142.856C242.929 142.764 243.408 142.811 243.843 142.991C244.279 143.172 244.651 143.477 244.913 143.869C245.175 144.261 245.315 144.722 245.315 145.193C245.315 145.825 245.064 146.432 244.616 146.878C244.17 147.326 243.563 147.576 242.931 147.576ZM242.931 144.276C242.75 144.276 242.573 144.33 242.422 144.431C242.271 144.531 242.153 144.675 242.084 144.843C242.015 145.01 241.997 145.194 242.032 145.372C242.067 145.55 242.155 145.713 242.283 145.842C242.411 145.97 242.575 146.057 242.753 146.093C242.931 146.128 243.115 146.11 243.283 146.04C243.45 145.971 243.593 145.854 243.694 145.703C243.795 145.552 243.848 145.375 243.848 145.193C243.848 145.073 243.825 144.954 243.779 144.843C243.733 144.731 243.665 144.63 243.58 144.545C243.495 144.459 243.394 144.392 243.283 144.346C243.172 144.3 243.052 144.276 242.931 144.276Z" fill="#0086D2"/>
<path d="M221.67 179.282C214.782 179.282 208.049 177.24 202.322 173.413C196.596 169.587 192.132 164.148 189.496 157.784C186.86 151.421 186.171 144.419 187.514 137.664C188.858 130.908 192.175 124.703 197.045 119.833C201.915 114.962 208.12 111.645 214.876 110.302C221.631 108.958 228.633 109.648 234.997 112.284C241.36 114.919 246.799 119.383 250.626 125.11C254.452 130.836 256.495 137.569 256.495 144.457C256.485 153.69 252.812 162.543 246.284 169.071C239.755 175.6 230.903 179.272 221.67 179.282ZM221.67 117.331C216.305 117.331 211.06 118.922 206.599 121.903C202.139 124.883 198.662 129.12 196.609 134.076C194.555 139.033 194.018 144.488 195.065 149.749C196.111 155.011 198.695 159.845 202.489 163.639C206.282 167.432 211.116 170.015 216.378 171.062C221.64 172.109 227.094 171.572 232.05 169.519C237.007 167.466 241.244 163.989 244.225 159.528C247.205 155.067 248.796 149.822 248.796 144.457C248.786 137.267 245.925 130.374 240.84 125.29C235.754 120.206 228.861 117.346 221.67 117.337V117.331Z" fill="#4F00B5"/>
<path d="M202.018 321.694V268.203C201.995 250.111 208.812 232.679 221.102 219.403C233.167 232.643 239.843 249.916 239.818 267.829V321.625" fill="#EE0CF2"/>
<path d="M223.691 226.56C212.817 239.227 206.841 255.371 206.846 272.065V324.633H202.448V272.065C202.448 254.226 209.276 237.064 221.533 224.102C222.269 224.908 222.988 225.728 223.691 226.56Z" fill="#9126BF"/>
<path d="M236.15 271.028V323.896L220.977 323.927C235.096 295.553 230.616 257.322 227.753 237.832C233.265 248.029 236.151 259.437 236.15 271.028Z" fill="#EE0CF2"/>
<g opacity="0.4">
<path opacity="0.4" d="M187.251 226.734C189.609 222.916 191.281 219.678 191.537 219.791C191.793 219.903 190.439 223.347 188.043 227.221C185.647 231.095 183.183 233.853 182.99 233.697C182.796 233.541 184.911 230.559 187.251 226.734Z" fill="#9126BF"/>
<path opacity="0.4" d="M190.99 229.155C192.508 226.574 193.557 224.374 193.334 224.244C193.111 224.113 191.701 226.099 190.184 228.681C188.667 231.263 187.618 233.461 187.84 233.592C188.063 233.723 189.474 231.737 190.99 229.155Z" fill="#9126BF"/>
<path opacity="0.4" d="M188.18 229.267C191.624 230.659 194.5 231.619 194.419 231.875C194.338 232.131 191.3 231.557 187.818 230.135C184.337 228.712 181.723 227.015 181.848 226.816C181.973 226.616 184.73 227.889 188.18 229.267Z" fill="#9126BF"/>
<path opacity="0.4" d="M191.437 228.337C194.556 229.803 197.195 230.727 197.12 230.982C197.045 231.238 194.238 230.677 191.044 229.186C187.849 227.695 185.61 225.885 185.753 225.698C185.897 225.511 188.317 226.896 191.437 228.337Z" fill="#9126BF"/>
</g>
<path d="M213.609 255.346C213.355 255.346 213.106 255.271 212.896 255.13C212.684 254.988 212.519 254.788 212.422 254.552C212.325 254.318 212.299 254.06 212.349 253.81C212.398 253.561 212.521 253.332 212.7 253.152C212.881 252.972 213.109 252.85 213.358 252.8C213.608 252.751 213.866 252.776 214.101 252.874C214.336 252.971 214.537 253.136 214.678 253.347C214.819 253.558 214.894 253.806 214.894 254.061C214.894 254.402 214.759 254.728 214.518 254.97C214.277 255.211 213.95 255.346 213.609 255.346ZM213.609 253.512C213.501 253.512 213.395 253.544 213.304 253.604C213.214 253.665 213.144 253.75 213.102 253.851C213.06 253.951 213.05 254.061 213.071 254.168C213.092 254.274 213.144 254.372 213.221 254.449C213.298 254.526 213.396 254.578 213.502 254.599C213.609 254.62 213.719 254.609 213.819 254.568C213.92 254.526 214.005 254.456 214.066 254.366C214.126 254.275 214.158 254.169 214.158 254.061C214.156 253.916 214.098 253.778 213.995 253.677C213.892 253.575 213.754 253.518 213.609 253.518V253.512Z" fill="#9747FF"/>
<path opacity="0.2" d="M213.609 256.45C213.138 256.45 212.677 256.311 212.285 256.049C211.894 255.787 211.588 255.415 211.408 254.979C211.227 254.544 211.18 254.065 211.272 253.602C211.364 253.14 211.591 252.715 211.924 252.382C212.257 252.048 212.682 251.822 213.145 251.729C213.607 251.638 214.086 251.685 214.521 251.865C214.957 252.046 215.329 252.351 215.591 252.743C215.853 253.135 215.993 253.595 215.993 254.067C215.993 254.699 215.742 255.306 215.294 255.752C214.848 256.199 214.241 256.45 213.609 256.45ZM213.609 253.15C213.428 253.15 213.251 253.204 213.1 253.305C212.949 253.405 212.831 253.549 212.762 253.716C212.693 253.884 212.675 254.068 212.71 254.246C212.745 254.424 212.833 254.587 212.961 254.715C213.089 254.844 213.253 254.931 213.431 254.967C213.609 255.002 213.793 254.984 213.961 254.914C214.128 254.845 214.271 254.727 214.372 254.577C214.473 254.426 214.526 254.249 214.526 254.067C214.528 253.945 214.506 253.825 214.46 253.712C214.415 253.6 214.348 253.497 214.263 253.41C214.177 253.324 214.075 253.255 213.964 253.209C213.851 253.162 213.731 253.138 213.609 253.138V253.15Z" fill="#9747FF"/>
<path d="M213.609 308.868C213.355 308.868 213.106 308.792 212.896 308.651C212.684 308.51 212.519 308.309 212.422 308.074C212.325 307.84 212.299 307.581 212.349 307.332C212.398 307.082 212.521 306.853 212.7 306.674C212.881 306.494 213.109 306.372 213.358 306.322C213.608 306.272 213.866 306.298 214.101 306.395C214.336 306.493 214.537 306.657 214.678 306.868C214.819 307.08 214.894 307.329 214.894 307.583C214.894 307.923 214.759 308.25 214.518 308.492C214.277 308.732 213.95 308.868 213.609 308.868ZM213.609 307.034C213.501 307.034 213.395 307.066 213.304 307.126C213.214 307.186 213.144 307.272 213.102 307.372C213.06 307.473 213.05 307.583 213.071 307.69C213.092 307.796 213.144 307.894 213.221 307.971C213.298 308.047 213.396 308.1 213.502 308.121C213.609 308.142 213.719 308.132 213.819 308.09C213.92 308.048 214.005 307.978 214.066 307.888C214.126 307.797 214.158 307.691 214.158 307.583C214.158 307.437 214.1 307.298 213.997 307.195C213.894 307.092 213.755 307.034 213.609 307.034Z" fill="#9747FF"/>
<path opacity="0.2" d="M213.609 309.965C213.138 309.965 212.677 309.825 212.285 309.563C211.894 309.301 211.588 308.929 211.408 308.493C211.227 308.058 211.18 307.579 211.272 307.117C211.364 306.654 211.591 306.229 211.924 305.896C212.257 305.563 212.682 305.336 213.145 305.244C213.607 305.152 214.086 305.199 214.521 305.38C214.957 305.56 215.329 305.866 215.591 306.257C215.853 306.649 215.993 307.11 215.993 307.581C215.993 308.213 215.742 308.82 215.294 309.266C214.848 309.714 214.241 309.965 213.609 309.965ZM213.609 306.664C213.428 306.664 213.251 306.718 213.1 306.819C212.949 306.919 212.831 307.063 212.762 307.231C212.693 307.398 212.675 307.583 212.71 307.76C212.745 307.938 212.833 308.102 212.961 308.23C213.089 308.358 213.253 308.445 213.431 308.481C213.609 308.517 213.793 308.498 213.961 308.429C214.128 308.359 214.271 308.242 214.372 308.091C214.473 307.94 214.526 307.763 214.526 307.581C214.526 307.338 214.43 307.105 214.258 306.933C214.086 306.761 213.853 306.664 213.609 306.664Z" fill="#9747FF"/>
<path d="M213.609 282.109C213.355 282.109 213.106 282.034 212.896 281.893C212.684 281.752 212.519 281.551 212.422 281.316C212.325 281.081 212.299 280.823 212.349 280.573C212.398 280.324 212.521 280.095 212.7 279.916C212.881 279.736 213.109 279.613 213.358 279.564C213.608 279.514 213.866 279.539 214.101 279.637C214.336 279.734 214.537 279.899 214.678 280.11C214.819 280.322 214.894 280.57 214.894 280.824C214.894 281.165 214.759 281.492 214.518 281.733C214.277 281.974 213.95 282.109 213.609 282.109ZM213.609 280.275C213.501 280.275 213.395 280.307 213.304 280.368C213.214 280.428 213.144 280.514 213.102 280.614C213.06 280.714 213.05 280.825 213.071 280.931C213.092 281.038 213.144 281.135 213.221 281.213C213.298 281.289 213.396 281.341 213.502 281.362C213.609 281.384 213.719 281.373 213.819 281.331C213.92 281.29 214.005 281.219 214.066 281.129C214.126 281.039 214.158 280.932 214.158 280.824C214.158 280.679 214.1 280.539 213.997 280.436C213.894 280.333 213.755 280.275 213.609 280.275Z" fill="#9747FF"/>
<path opacity="0.2" d="M213.609 283.207C213.138 283.207 212.677 283.067 212.285 282.805C211.894 282.543 211.588 282.17 211.408 281.735C211.227 281.299 211.18 280.82 211.272 280.358C211.364 279.896 211.591 279.471 211.924 279.138C212.257 278.804 212.682 278.577 213.145 278.486C213.607 278.394 214.086 278.441 214.521 278.621C214.957 278.801 215.329 279.107 215.591 279.499C215.853 279.891 215.993 280.352 215.993 280.823C215.993 281.455 215.742 282.061 215.294 282.508C214.848 282.955 214.241 283.207 213.609 283.207ZM213.609 279.906C213.428 279.906 213.251 279.96 213.1 280.06C212.949 280.161 212.831 280.304 212.762 280.472C212.693 280.64 212.675 280.824 212.71 281.002C212.745 281.18 212.833 281.343 212.961 281.472C213.089 281.6 213.253 281.687 213.431 281.722C213.609 281.758 213.793 281.74 213.961 281.671C214.128 281.601 214.271 281.483 214.372 281.332C214.473 281.182 214.526 281.004 214.526 280.823C214.526 280.58 214.43 280.347 214.258 280.174C214.086 280.002 213.853 279.906 213.609 279.906Z" fill="#9747FF"/>
<path d="M225.338 255.346C225.084 255.346 224.836 255.271 224.624 255.13C224.413 254.988 224.248 254.788 224.151 254.552C224.054 254.318 224.028 254.06 224.078 253.81C224.127 253.561 224.25 253.332 224.43 253.152C224.609 252.972 224.838 252.85 225.087 252.8C225.337 252.751 225.595 252.776 225.83 252.874C226.065 252.971 226.266 253.136 226.407 253.347C226.548 253.558 226.623 253.806 226.623 254.061C226.623 254.402 226.488 254.728 226.247 254.97C226.006 255.211 225.679 255.346 225.338 255.346ZM225.338 253.512C225.23 253.512 225.123 253.544 225.033 253.604C224.943 253.665 224.873 253.75 224.831 253.851C224.79 253.951 224.778 254.061 224.8 254.168C224.821 254.274 224.873 254.372 224.95 254.449C225.027 254.526 225.125 254.578 225.231 254.599C225.337 254.62 225.448 254.609 225.548 254.568C225.649 254.526 225.734 254.456 225.795 254.366C225.855 254.275 225.887 254.169 225.887 254.061C225.886 253.916 225.827 253.778 225.724 253.677C225.621 253.575 225.483 253.518 225.338 253.518V253.512Z" fill="#9747FF"/>
<path opacity="0.2" d="M225.338 256.45C224.867 256.45 224.406 256.311 224.014 256.049C223.622 255.787 223.317 255.415 223.136 254.979C222.956 254.544 222.909 254.065 223.001 253.602C223.093 253.14 223.32 252.715 223.653 252.382C223.986 252.048 224.411 251.822 224.873 251.729C225.336 251.638 225.815 251.685 226.25 251.865C226.686 252.046 227.058 252.351 227.32 252.743C227.582 253.135 227.721 253.595 227.721 254.067C227.721 254.699 227.471 255.306 227.023 255.752C226.577 256.199 225.97 256.45 225.338 256.45ZM225.338 253.15C225.157 253.15 224.979 253.204 224.828 253.305C224.678 253.405 224.56 253.549 224.491 253.716C224.422 253.884 224.404 254.068 224.438 254.246C224.474 254.424 224.561 254.587 224.69 254.715C224.818 254.844 224.981 254.931 225.159 254.967C225.338 255.002 225.522 254.984 225.689 254.914C225.857 254.845 226 254.727 226.1 254.577C226.202 254.426 226.255 254.249 226.255 254.067C226.257 253.945 226.235 253.825 226.189 253.712C226.144 253.6 226.076 253.497 225.991 253.41C225.906 253.324 225.804 253.255 225.692 253.209C225.58 253.162 225.46 253.138 225.338 253.138V253.15Z" fill="#9747FF"/>
<path d="M225.338 308.868C225.084 308.868 224.836 308.792 224.624 308.651C224.413 308.51 224.248 308.309 224.151 308.074C224.054 307.84 224.028 307.581 224.078 307.332C224.127 307.082 224.25 306.853 224.43 306.674C224.609 306.494 224.838 306.372 225.087 306.322C225.337 306.272 225.595 306.298 225.83 306.395C226.065 306.493 226.266 306.657 226.407 306.868C226.548 307.08 226.623 307.329 226.623 307.583C226.623 307.923 226.488 308.25 226.247 308.492C226.006 308.732 225.679 308.868 225.338 308.868ZM225.338 307.034C225.23 307.034 225.123 307.066 225.033 307.126C224.943 307.186 224.873 307.272 224.831 307.372C224.79 307.473 224.778 307.583 224.8 307.69C224.821 307.796 224.873 307.894 224.95 307.971C225.027 308.047 225.125 308.1 225.231 308.121C225.337 308.142 225.448 308.132 225.548 308.09C225.649 308.048 225.734 307.978 225.795 307.888C225.855 307.797 225.887 307.691 225.887 307.583C225.887 307.437 225.83 307.298 225.727 307.195C225.624 307.092 225.484 307.034 225.338 307.034Z" fill="#9747FF"/>
<path opacity="0.2" d="M225.338 309.965C224.867 309.965 224.406 309.825 224.014 309.563C223.622 309.301 223.317 308.929 223.136 308.493C222.956 308.058 222.909 307.579 223.001 307.117C223.093 306.654 223.32 306.229 223.653 305.896C223.986 305.563 224.411 305.336 224.873 305.244C225.336 305.152 225.815 305.199 226.25 305.38C226.686 305.56 227.058 305.866 227.32 306.257C227.582 306.649 227.721 307.11 227.721 307.581C227.721 308.213 227.471 308.82 227.023 309.266C226.577 309.714 225.97 309.965 225.338 309.965ZM225.338 306.664C225.157 306.664 224.979 306.718 224.828 306.819C224.678 306.919 224.56 307.063 224.491 307.231C224.422 307.398 224.404 307.583 224.438 307.76C224.474 307.938 224.561 308.102 224.69 308.23C224.818 308.358 224.981 308.445 225.159 308.481C225.338 308.517 225.522 308.498 225.689 308.429C225.857 308.359 226 308.242 226.1 308.091C226.202 307.94 226.255 307.763 226.255 307.581C226.255 307.461 226.232 307.342 226.185 307.231C226.139 307.119 226.072 307.018 225.987 306.933C225.901 306.848 225.8 306.78 225.689 306.734C225.578 306.688 225.459 306.664 225.338 306.664Z" fill="#9747FF"/>
<path d="M225.338 282.109C225.084 282.109 224.836 282.034 224.624 281.893C224.413 281.752 224.248 281.551 224.151 281.316C224.054 281.081 224.028 280.823 224.078 280.573C224.127 280.324 224.25 280.095 224.43 279.916C224.609 279.736 224.838 279.613 225.087 279.564C225.337 279.514 225.595 279.539 225.83 279.637C226.065 279.734 226.266 279.899 226.407 280.11C226.548 280.322 226.623 280.57 226.623 280.824C226.623 281.165 226.488 281.492 226.247 281.733C226.006 281.974 225.679 282.109 225.338 282.109ZM225.338 280.275C225.23 280.275 225.123 280.307 225.033 280.368C224.943 280.428 224.873 280.514 224.831 280.614C224.79 280.714 224.778 280.825 224.8 280.931C224.821 281.038 224.873 281.135 224.95 281.213C225.027 281.289 225.125 281.341 225.231 281.362C225.337 281.384 225.448 281.373 225.548 281.331C225.649 281.29 225.734 281.219 225.795 281.129C225.855 281.039 225.887 280.932 225.887 280.824C225.887 280.679 225.83 280.539 225.727 280.436C225.624 280.333 225.484 280.275 225.338 280.275Z" fill="#9747FF"/>
<path opacity="0.2" d="M225.338 283.207C224.867 283.207 224.406 283.067 224.014 282.805C223.622 282.543 223.317 282.17 223.136 281.735C222.956 281.299 222.909 280.82 223.001 280.358C223.093 279.896 223.32 279.471 223.653 279.138C223.986 278.804 224.411 278.577 224.873 278.486C225.336 278.394 225.815 278.441 226.25 278.621C226.686 278.801 227.058 279.107 227.32 279.499C227.582 279.891 227.721 280.352 227.721 280.823C227.721 281.455 227.471 282.061 227.023 282.508C226.577 282.955 225.97 283.207 225.338 283.207ZM225.338 279.906C225.157 279.906 224.979 279.96 224.828 280.06C224.678 280.161 224.56 280.304 224.491 280.472C224.422 280.64 224.404 280.824 224.438 281.002C224.474 281.18 224.561 281.343 224.69 281.472C224.818 281.6 224.981 281.687 225.159 281.722C225.338 281.758 225.522 281.74 225.689 281.671C225.857 281.601 226 281.483 226.1 281.332C226.202 281.182 226.255 281.004 226.255 280.823C226.255 280.703 226.232 280.583 226.185 280.472C226.139 280.361 226.072 280.26 225.987 280.174C225.901 280.09 225.8 280.022 225.689 279.976C225.578 279.93 225.459 279.906 225.338 279.906Z" fill="#9747FF"/>
<path d="M220.391 223.09H218.925V322.43H220.391V223.09Z" fill="#9747FF"/>
<path opacity="0.2" d="M219.287 226.753H217.821V321.327H219.287V226.753Z" fill="#9747FF"/>
<path opacity="0.8" d="M222.219 226.753H220.753V320.959H222.219V226.753Z" fill="#9126BF"/>
<path d="M242.75 344.604H196.197C191.094 344.599 186.202 342.57 182.593 338.961C178.985 335.353 176.955 330.46 176.95 325.358V322.606H261.997V325.358C261.992 330.46 259.963 335.353 256.355 338.961C252.746 342.57 247.854 344.599 242.75 344.604ZM182.727 328.109C183.365 331.211 185.052 334 187.506 336.003C189.96 338.007 193.029 339.103 196.197 339.108H242.75C245.919 339.103 248.988 338.007 251.442 336.003C253.895 334 255.583 331.211 256.22 328.109H182.727Z" fill="#9747FF"/>
<path opacity="0.15" d="M258.578 99.6121C261.136 98.9957 263.835 99.4205 266.079 100.793C268.325 102.165 269.932 104.373 270.551 106.93L272.909 116.7C273.525 119.258 273.1 121.956 271.728 124.201C270.356 126.446 268.149 128.054 265.591 128.672C263.033 129.288 260.335 128.864 258.09 127.491C255.845 126.119 254.237 123.911 253.619 121.354L251.26 111.584C250.645 109.026 251.069 106.328 252.441 104.083C253.814 101.839 256.021 100.23 258.578 99.6121Z" fill="#9126BF"/>
<path opacity="0.15" d="M249.769 95.2961C251.949 93.8206 254.625 93.271 257.209 93.7682C259.794 94.2655 262.074 95.769 263.551 97.9476C265.026 100.127 265.576 102.803 265.078 105.387C264.581 107.971 263.078 110.252 260.899 111.729C258.72 113.204 256.044 113.753 253.459 113.256C250.875 112.759 248.594 111.256 247.118 109.078C245.643 106.898 245.093 104.222 245.59 101.638C246.088 99.0531 247.591 96.7722 249.769 95.2961Z" fill="#9126BF"/>
<g opacity="0.4">
<path opacity="0.4" d="M257.998 170.647C260.357 166.829 262.028 163.591 262.284 163.703C262.54 163.815 261.186 167.259 258.791 171.133C256.395 175.008 253.931 177.765 253.737 177.609C253.544 177.453 255.659 174.477 257.998 170.647Z" fill="#9126BF"/>
<path opacity="0.4" d="M261.737 173.072C263.254 170.49 264.303 168.292 264.08 168.161C263.858 168.03 262.447 170.016 260.93 172.598C259.413 175.179 258.364 177.378 258.587 177.509C258.81 177.64 260.22 175.653 261.737 173.072Z" fill="#9126BF"/>
<path opacity="0.4" d="M258.909 173.187C262.353 174.578 265.229 175.539 265.148 175.794C265.067 176.05 262.028 175.476 258.547 174.054C255.066 172.631 252.452 170.934 252.577 170.735C252.701 170.535 255.478 171.801 258.909 173.187Z" fill="#9126BF"/>
<path opacity="0.4" d="M262.184 172.249C265.304 173.716 267.943 174.639 267.868 174.895C267.793 175.15 264.986 174.589 261.791 173.098C258.597 171.607 256.357 169.798 256.501 169.61C256.644 169.423 259.065 170.783 262.184 172.249Z" fill="#9126BF"/>
</g>
<g opacity="0.4">
<path opacity="0.4" d="M228.308 57.7445C230.666 53.9264 232.338 50.6885 232.594 50.8008C232.85 50.9131 231.496 54.3569 229.1 58.2311C226.704 62.1054 224.24 64.8628 224.047 64.7068C223.853 64.5508 225.962 61.5751 228.308 57.7445Z" fill="#9126BF"/>
<path opacity="0.4" d="M232.042 60.1745C233.559 57.593 234.608 55.3942 234.386 55.2632C234.163 55.1323 232.752 57.1189 231.235 59.7004C229.719 62.2818 228.669 64.481 228.892 64.6113C229.115 64.7424 230.525 62.756 232.042 60.1745Z" fill="#9126BF"/>
<path opacity="0.4" d="M229.231 60.2844C232.675 61.6756 235.551 62.6364 235.47 62.8919C235.389 63.1477 232.351 62.574 228.869 61.1516C225.388 59.7291 222.774 58.0322 222.899 57.8325C223.024 57.6329 225.787 58.8994 229.231 60.2844Z" fill="#9126BF"/>
<path opacity="0.4" d="M232.495 59.3467C235.614 60.8128 238.252 61.7361 238.178 61.9919C238.103 62.2477 235.295 61.6862 232.101 60.1952C228.907 58.7041 226.667 56.8949 226.81 56.7077C226.954 56.5205 229.375 57.9055 232.495 59.3467Z" fill="#9126BF"/>
</g>
<path d="M262.727 75.1829H171.086V77.0171H262.727V75.1829Z" fill="#EE0CF2"/>
<path d="M270.869 81.8952H168.491L169.738 76.3989H270.245L270.869 81.8952Z" fill="#9747FF"/>
<path d="M257.256 325.912H181.074C176.314 325.912 172.047 323.797 169.938 320.39C161.871 307.289 143.111 267.423 143.111 179.831C143.111 93.9853 188.336 31.1296 207.782 8.08979C209.182 6.43138 210.926 5.09844 212.894 4.18408C214.861 3.26972 217.005 2.79599 219.174 2.796C221.344 2.79599 223.488 3.26972 225.456 4.18408C227.423 5.09844 229.168 6.43138 230.566 8.08979C250.006 31.1296 295.237 93.9853 295.219 179.831C295.219 267.404 276.459 307.301 268.392 320.39C266.315 323.79 262.028 325.912 257.256 325.912ZM219.156 8.29567C216.94 8.29417 214.795 9.07901 213.104 10.5104C212.699 10.8525 212.323 11.2281 211.981 11.6334C192.928 34.2115 148.608 95.7946 148.608 179.831C148.608 217.394 152.089 250.117 158.952 277.093C164.61 299.328 171.192 311.955 174.617 317.502C175.69 319.242 178.292 320.409 181.074 320.409H257.256C260.057 320.409 262.646 319.242 263.707 317.508C267.132 311.949 273.689 299.316 279.378 277.087C286.241 250.11 289.722 217.388 289.722 179.825C289.722 95.7946 245.427 34.2115 226.361 11.6334C225.567 10.6874 224.592 9.90814 223.495 9.3406C222.397 8.77312 221.198 8.42856 219.967 8.32686C219.697 8.30609 219.426 8.29567 219.156 8.29567Z" fill="#4F00B5"/>
<path d="M203.297 322.499H197.8V269.931C197.768 251.381 204.869 233.53 217.633 220.071L219.648 217.943L221.645 220.083C234.182 233.502 241.145 251.187 241.122 269.55V322.418H235.626V269.563C235.643 253.621 229.961 238.198 219.605 226.079C209.053 238.247 203.257 253.819 203.284 269.925L203.297 322.499Z" fill="#4F00B5"/>
<path d="M310.379 292.735C310.125 292.735 309.877 292.659 309.665 292.518C309.454 292.377 309.289 292.176 309.192 291.941C309.094 291.706 309.069 291.448 309.119 291.199C309.169 290.949 309.291 290.72 309.47 290.541C309.65 290.361 309.879 290.239 310.129 290.189C310.378 290.14 310.636 290.165 310.871 290.262C311.106 290.359 311.307 290.524 311.448 290.735C311.589 290.947 311.664 291.195 311.664 291.45C311.664 291.79 311.529 292.117 311.288 292.358C311.047 292.6 310.72 292.735 310.379 292.735ZM310.379 290.901C310.27 290.901 310.164 290.933 310.074 290.993C309.984 291.054 309.913 291.139 309.872 291.24C309.83 291.34 309.819 291.45 309.84 291.556C309.862 291.663 309.914 291.761 309.991 291.838C310.068 291.915 310.165 291.967 310.272 291.988C310.378 292.009 310.489 291.998 310.589 291.957C310.69 291.915 310.775 291.845 310.836 291.754C310.896 291.664 310.928 291.558 310.928 291.45C310.927 291.305 310.868 291.167 310.765 291.065C310.662 290.964 310.524 290.907 310.379 290.907V290.901Z" fill="#9747FF"/>
<path opacity="0.2" d="M310.379 293.839C309.908 293.839 309.447 293.699 309.055 293.437C308.663 293.175 308.357 292.803 308.177 292.367C307.997 291.932 307.949 291.453 308.042 290.991C308.133 290.528 308.36 290.104 308.694 289.77C309.027 289.437 309.452 289.21 309.914 289.118C310.376 289.027 310.855 289.073 311.291 289.254C311.726 289.434 312.099 289.74 312.36 290.132C312.622 290.523 312.762 290.984 312.762 291.456C312.762 292.088 312.511 292.694 312.064 293.141C311.617 293.588 311.011 293.839 310.379 293.839ZM310.379 290.539C310.197 290.539 310.02 290.593 309.87 290.693C309.719 290.794 309.601 290.937 309.531 291.105C309.462 291.273 309.444 291.457 309.479 291.634C309.515 291.813 309.602 291.976 309.73 292.104C309.858 292.233 310.022 292.32 310.2 292.355C310.378 292.391 310.562 292.372 310.73 292.303C310.897 292.233 311.041 292.116 311.141 291.965C311.242 291.815 311.296 291.637 311.296 291.456C311.296 291.213 311.199 290.979 311.027 290.807C310.855 290.635 310.622 290.539 310.379 290.539Z" fill="#9747FF"/>
</g>
</svg>
