<svg width="85" height="85" viewBox="0 0 85 85" fill="none" xmlns="http://www.w3.org/2000/svg">
<path d="M19.7448 7.34525C20.1957 7.56206 20.5762 7.90181 20.8425 8.32537C21.1088 8.74894 21.2501 9.2391 21.25 9.73942C21.25 12.679 22.355 14.3719 23.7398 16.4332L23.8425 16.5819C25.0183 18.3315 26.5625 20.623 26.5625 23.9061C26.5625 27.2565 24.8731 30.2103 22.2983 31.9634C22.9748 32.53 23.5733 33.2278 24.0904 34.0636C25.7763 36.7907 26.5625 40.9592 26.5625 46.9446C26.5625 53.008 25.7479 60.2896 24.4198 66.1051C23.7611 68.9951 22.9429 71.6619 21.969 73.663C21.5091 74.6586 20.9001 75.5782 20.1627 76.3901C19.4331 77.1373 18.3104 77.9342 16.8229 77.9342C15.3354 77.9342 14.2127 77.1373 13.4867 76.3901C12.7472 75.5799 12.1379 74.6599 11.6804 73.663C10.7029 71.6584 9.88481 68.995 9.22606 66.1015C7.84462 59.8071 7.12646 53.3852 7.08335 46.9411C7.08335 40.9557 7.8696 36.7907 9.55543 34.0636C10.0364 33.272 10.6415 32.5629 11.3475 31.9634C10.0328 31.0708 8.95667 29.8697 8.21332 28.4651C7.46998 27.0605 7.08202 25.4952 7.08335 23.9061C7.08335 22.6028 7.08335 20.3609 8.4398 17.4673C9.76793 14.634 12.2931 11.3792 16.9327 7.664C17.3238 7.35122 17.7952 7.15533 18.2928 7.09893C18.7903 7.04254 19.2937 7.12793 19.7448 7.34525ZM12.3958 23.9025C12.3958 25.0767 12.8623 26.2063 13.6925 27.0365C14.5227 27.8667 15.6488 28.3332 16.8229 28.3332C17.9971 28.3332 19.1231 27.8667 19.9534 27.0365C20.7836 26.2063 21.25 25.0802 21.25 23.9061C21.25 22.3513 20.5948 21.2746 19.3304 19.394L19.2879 19.3303C18.4769 18.1261 17.5171 16.6988 16.8371 14.8678C14.914 16.8228 13.8515 18.4448 13.2529 19.7198C12.3958 21.5473 12.3958 22.8507 12.3958 23.9025ZM14.0746 36.8544C13.1963 38.2782 12.3958 41.1965 12.3958 46.9446C12.3958 52.6148 13.1679 59.4998 14.404 64.9221C15.0273 67.6492 15.7356 69.8628 16.4546 71.3361C16.5856 71.6088 16.7096 71.8355 16.8229 72.0267C16.9363 71.8355 17.0602 71.6088 17.1913 71.3361C17.9102 69.8628 18.6186 67.6457 19.2419 64.9221C20.4815 59.5034 21.25 52.6184 21.25 46.9446C21.25 41.1965 20.4496 38.2782 19.5713 36.8544C19.3064 36.3751 18.906 35.9846 18.4202 35.7317C17.9173 35.5127 17.371 35.4109 16.8229 35.4342C16.1146 35.4342 15.6081 35.544 15.2256 35.7317C14.7399 35.9846 14.3395 36.3751 14.0746 36.8544ZM35.4167 52.8344C33.5403 52.5197 31.7152 51.9526 29.9908 51.1486C30.0945 49.1399 30.124 47.128 30.0794 45.1171C31.6767 46.1903 33.4794 46.98 35.4167 47.4192V37.1873C35.4167 35.7784 35.9764 34.4271 36.9727 33.4308C37.969 32.4345 39.3202 31.8748 40.7292 31.8748H54.8958C54.8957 28.9023 54.0642 25.989 52.4954 23.4642C50.9265 20.9394 48.6828 18.9036 46.0178 17.587C43.3528 16.2703 40.3726 15.7252 37.4141 16.0132C34.4555 16.3012 31.6365 17.4109 29.2754 19.2169C28.5671 17.2584 27.5577 15.7603 26.8565 14.719L26.7148 14.5065C29.8968 12.2634 33.634 10.9375 37.5182 10.6737C41.4024 10.4098 45.2845 11.2181 48.7407 13.0103C52.1968 14.8025 55.0942 17.5098 57.1165 20.8365C59.1388 24.1633 60.2084 27.9816 60.2083 31.8748H72.6042C74.0131 31.8748 75.3644 32.4345 76.3607 33.4308C77.357 34.4271 77.9167 35.7784 77.9167 37.1873V69.0623C77.9167 70.4713 77.357 71.8226 76.3607 72.8188C75.3644 73.8151 74.0131 74.3748 72.6042 74.3748H40.7292C39.3202 74.3748 37.969 73.8151 36.9727 72.8188C35.9764 71.8226 35.4167 70.4713 35.4167 69.0623V52.8309V52.8344ZM40.7292 53.0575V69.0659H72.6042V37.1909H59.5354C58.432 41.4587 56.0295 45.278 52.6603 48.1206C49.2911 50.9631 45.1218 52.6884 40.7292 53.0575ZM53.9892 37.1909H40.7292V47.7203C43.7049 47.3866 46.5266 46.2222 48.8715 44.3601C51.2165 42.4981 52.99 40.0136 53.9892 37.1909Z" fill="#6F00FF"/>
</svg>
