<svg width="60" height="60" viewBox="0 0 63 63" fill="none" xmlns="http://www.w3.org/2000/svg">
    <g clip-path="url(#clip0_139_209)">
        <path
            d="M31.5 0C14.1031 0 0 14.1031 0 31.5C0 48.8969 14.1031 63 31.5 63C48.8969 63 63 48.8969 63 31.5C63 14.1031 48.8969 0 31.5 0ZM39.375 5.10497C48.2482 7.74998 55.2264 14.7518 57.8753 23.6249H45.105C43.7235 21.2522 41.7489 19.2793 39.375 17.8998V5.10497ZM43.2899 31.5128C43.2899 38.0303 38.0117 43.3135 31.5001 43.3135C24.9884 43.3135 19.7102 38.0303 19.7102 31.5128C19.7102 24.9953 24.9894 19.7112 31.5001 19.7112C38.0107 19.7112 43.2899 24.9953 43.2899 31.5128ZM27.5626 4.24069C28.8491 4.05661 30.1623 3.9562 31.5001 3.9562C32.8368 3.9562 34.151 4.05661 35.4376 4.24069V16.2875C34.1776 15.9616 32.8624 15.7707 31.5001 15.7707C30.1377 15.7707 28.8235 15.9616 27.5626 16.2875V4.24069ZM23.6251 5.10497V17.8999C21.2527 19.277 19.2741 21.2556 17.895 23.625H5.12472C7.77269 14.7518 14.7519 7.75005 23.6251 5.10497ZM3.95626 31.5098C3.95626 30.1671 4.07039 28.8539 4.2565 27.5624H16.2777C15.9509 28.8243 15.7707 30.1453 15.7707 31.5107C15.7707 32.8682 15.9499 34.1824 16.2728 35.4374H4.25355C4.07051 34.1528 3.95626 32.8446 3.95626 31.5098ZM23.625 57.9136C14.745 55.2676 7.76383 48.2559 5.11881 39.3749H17.8832C19.2633 41.7531 21.2458 43.7397 23.625 45.1207V57.9137V57.9136ZM35.4376 58.7778C34.151 58.9619 32.8368 59.0623 31.5001 59.0623C30.1623 59.0623 28.8491 58.9609 27.5626 58.7778V46.733C28.8235 47.0588 30.1377 47.2498 31.5001 47.2498C32.8624 47.2498 34.1776 47.0588 35.4376 46.733V58.7778ZM39.3751 57.9136V45.1207C41.7533 43.7396 43.7369 41.7531 45.116 39.3749H57.8804C55.2353 48.2549 48.2542 55.2676 39.3751 57.9136L39.3751 57.9136ZM46.7274 35.4374C47.0502 34.1823 47.2294 32.8682 47.2294 31.5106C47.2294 30.1453 47.0492 28.8243 46.7215 27.5623H58.7436C58.9287 28.8538 59.0439 30.167 59.0439 31.5097C59.0439 32.8445 58.9307 34.1538 58.7466 35.4374H46.7274Z"
            fill="#6F00FF" />
    </g>
    <defs>
        <clipPath id="clip0_139_209">
            <rect width="63" height="63" fill="white" />
        </clipPath>
    </defs>
</svg>