<svg width="79" height="79" viewBox="0 0 79 79" fill="none" xmlns="http://www.w3.org/2000/svg">
<path d="M28.3623 11C22.9619 11 17.7827 13.1705 13.964 17.0341C10.1453 20.8977 8 26.1379 8 31.6018C8 37.0658 10.1453 42.3059 13.964 46.1695C17.7827 50.0331 22.9619 52.2036 28.3623 52.2036H31.4748C31.1987 50.2515 31.1987 48.2695 31.4748 46.3174H28.3623C24.5049 46.3174 20.8054 44.767 18.0778 42.0073C15.3502 39.2476 13.8178 35.5046 13.8178 31.6018C13.8178 27.699 15.3502 23.956 18.0778 21.1963C20.8054 18.4366 24.5049 16.8862 28.3623 16.8862H51.6335C53.7905 16.8858 55.9206 17.3708 57.8695 18.306C59.8184 19.2413 61.5373 20.6034 62.9016 22.2937C64.266 23.984 65.2417 25.9602 65.7581 28.0791C66.2744 30.1981 66.3185 32.4067 65.8871 34.5449C67.6009 36.2452 69.0051 38.2377 70.0352 40.4312C71.5075 37.2907 72.1706 33.8243 71.9627 30.3548C71.7547 26.8853 70.6825 23.5254 68.8459 20.5879C67.0092 17.6504 64.4678 15.2308 61.4583 13.5544C58.4488 11.878 55.069 10.9993 51.6335 11H28.3623ZM51.6335 40.4312C49.319 40.4312 47.0994 41.3614 45.4628 43.0172C43.8262 44.673 42.9068 46.9188 42.9068 49.2605C42.9068 51.6022 43.8262 53.848 45.4628 55.5038C47.0994 57.1596 49.319 58.0899 51.6335 58.0899C53.948 58.0899 56.1676 57.1596 57.8042 55.5038C59.4408 53.848 60.3602 51.6022 60.3602 49.2605C60.3602 46.9188 59.4408 44.673 57.8042 43.0172C56.1676 41.3614 53.948 40.4312 51.6335 40.4312ZM37.089 49.2605C37.0895 46.9661 37.6204 44.7036 38.639 42.6537C39.6577 40.6038 41.1361 38.8233 42.956 37.4544C44.7759 36.0855 46.887 35.1662 49.1206 34.7698C51.3543 34.3734 53.6486 34.5109 55.8204 35.1714C57.9921 35.8319 59.9811 36.997 61.6286 38.5737C63.276 40.1505 64.5362 42.0951 65.3085 44.2524C66.0808 46.4096 66.3439 48.7197 66.0767 50.9981C65.8094 53.2766 65.0193 55.4602 63.7694 57.3747L71.1435 64.8384L67.0303 69L59.6533 61.5392C57.4611 63.0052 54.9172 63.843 52.292 63.9634C49.6669 64.0837 47.0585 63.4823 44.7442 62.2229C42.4298 60.9635 40.4959 59.0932 39.148 56.8109C37.8001 54.5285 37.0886 51.9193 37.089 49.2605Z" fill="#9747FF"/>
</svg>
