<svg width="85" height="85" viewBox="0 0 85 85" fill="none" xmlns="http://www.w3.org/2000/svg">
<g clip-path="url(#clip0_48_117)">
<path d="M25.5 25.5C24.3728 25.5 23.2918 25.9478 22.4948 26.7448C21.6978 27.5418 21.25 28.6228 21.25 29.75V38.25C21.25 39.3772 21.6978 40.4582 22.4948 41.2552C23.2918 42.0522 24.3728 42.5 25.5 42.5H38.25C39.3772 42.5 40.4582 42.0522 41.2552 41.2552C42.0522 40.4582 42.5 39.3772 42.5 38.25V29.75C42.5 28.6228 42.0522 27.5418 41.2552 26.7448C40.4582 25.9478 39.3772 25.5 38.25 25.5H25.5ZM25.5 29.75H38.25V38.25H25.5V29.75ZM21.25 48.875C21.25 48.3114 21.4739 47.7709 21.8724 47.3724C22.2709 46.9739 22.8114 46.75 23.375 46.75H40.375C40.9386 46.75 41.4791 46.9739 41.8776 47.3724C42.2761 47.7709 42.5 48.3114 42.5 48.875C42.5 49.4386 42.2761 49.9791 41.8776 50.3776C41.4791 50.7761 40.9386 51 40.375 51H23.375C22.8114 51 22.2709 50.7761 21.8724 50.3776C21.4739 49.9791 21.25 49.4386 21.25 48.875ZM23.375 55.25C22.8114 55.25 22.2709 55.4739 21.8724 55.8724C21.4739 56.2709 21.25 56.8114 21.25 57.375C21.25 57.9386 21.4739 58.4791 21.8724 58.8776C22.2709 59.2761 22.8114 59.5 23.375 59.5H40.375C40.9386 59.5 41.4791 59.2761 41.8776 58.8776C42.2761 58.4791 42.5 57.9386 42.5 57.375C42.5 56.8114 42.2761 56.2709 41.8776 55.8724C41.4791 55.4739 40.9386 55.25 40.375 55.25H23.375ZM12.75 25.5C12.75 22.1185 14.0933 18.8755 16.4844 16.4844C18.8755 14.0933 22.1185 12.75 25.5 12.75H59.5C62.8815 12.75 66.1245 14.0933 68.5156 16.4844C70.9067 18.8755 72.25 22.1185 72.25 25.5V59.5C72.25 62.8815 70.9067 66.1245 68.5156 68.5156C66.1245 70.9067 62.8815 72.25 59.5 72.25H25.5C22.1185 72.25 18.8755 70.9067 16.4844 68.5156C14.0933 66.1245 12.75 62.8815 12.75 59.5V25.5ZM46.75 68V17H25.5C23.2457 17 21.0837 17.8955 19.4896 19.4896C17.8955 21.0837 17 23.2457 17 25.5V59.5C17 61.7543 17.8955 63.9164 19.4896 65.5104C21.0837 67.1045 23.2457 68 25.5 68H46.75ZM59.5 68C61.7543 68 63.9164 67.1045 65.5104 65.5104C67.1045 63.9164 68 61.7543 68 59.5V55.25H51V68H59.5ZM68 29.75V25.5C68 23.2457 67.1045 21.0837 65.5104 19.4896C63.9164 17.8955 61.7543 17 59.5 17H51V29.75H68ZM68 51V34H51V51H68Z" fill="#9747FF"/>
</g>
<defs>
<clipPath id="clip0_48_117">
<rect width="85" height="85" fill="white"/>
</clipPath>
</defs>
</svg>
