<svg width="604" height="453" viewBox="0 0 604 453" fill="none" xmlns="http://www.w3.org/2000/svg">
<path d="M84.4543 339.312C84.4543 339.312 67.7688 330.531 61.9855 317.749C56.2022 304.967 61.8496 287.059 60.1131 281.049C70.7888 292.336 77.3498 295.613 82.0157 308.636C86.6816 321.653 85.3301 335.65 84.4543 339.312ZM102.038 360.618C102.038 360.618 84.862 374.231 66.7873 361.086C54.1486 350.441 45.7379 335.915 45.7379 335.915C45.7379 335.915 66.055 338.655 76.2173 341.049C86.3796 343.45 98.3916 355.205 102.038 360.618ZM531.573 339.312C531.573 339.312 548.258 330.531 554.042 317.749C559.825 304.967 554.178 287.059 555.914 281.049C545.238 292.336 538.677 295.613 534.011 308.636C529.346 321.653 530.705 335.65 531.573 339.312ZM513.989 360.618C513.989 360.618 531.165 374.231 549.24 361.086C561.879 350.441 570.289 335.915 570.289 335.915C570.289 335.915 549.972 338.655 539.81 341.049C529.648 343.45 517.636 355.205 513.989 360.618Z" fill="#00759F"/>
<path d="M166.153 411.067C166.153 411.067 149.188 425.714 105.398 414.661C73.4842 406.605 47.1875 375.092 47.1875 375.092C47.1875 375.092 109.837 351.369 166.153 411.067Z" fill="#00759F"/>
<path d="M164.733 413.038C164.733 413.038 131 409.112 98.4596 348.916C74.7375 305.043 82.9594 243.397 82.9594 243.397C82.9594 243.397 173.642 289.006 164.733 413.038Z" fill="#741AAC"/>
<path d="M163.442 411.8C163.442 411.8 136.61 390.977 139.917 322.634C142.325 272.819 181.268 224.326 181.268 224.326C181.268 224.326 235.258 310.282 163.442 411.8Z" fill="#741AAC"/>
<path d="M447.421 408.523C447.421 408.523 464.174 422.989 507.42 412.071C538.942 404.114 564.906 373 564.906 373C564.906 373 503.041 349.565 447.421 408.523Z" fill="#00759F"/>
<path d="M449.882 413.038C449.882 413.038 483.615 409.112 516.156 348.916C539.878 305.043 531.656 243.397 531.656 243.397C531.656 243.397 440.973 289.006 449.882 413.038Z" fill="#741AAC"/>
<path d="M451.173 411.8C451.173 411.8 478.006 390.977 474.699 322.634C472.283 272.819 433.347 224.326 433.347 224.326C433.347 224.326 379.357 310.282 451.173 411.8Z" fill="#741AAC"/>
<path d="M537.054 235.394C537.054 109.724 435.182 7.85202 309.512 7.85202C183.842 7.85202 81.9703 109.724 81.9703 235.394C81.9703 307.081 115.13 371.007 166.938 412.713H452.094C503.887 371.007 537.054 307.081 537.054 235.394Z" fill="url(#paint0_linear_190_14)" fill-opacity="0.3"/>
<path d="M283.45 77.8782C283.45 78.3765 283.049 78.7767 282.551 78.7767C282.053 78.7767 281.653 78.3765 281.653 77.8782C281.653 77.3799 282.053 76.9798 282.551 76.9798C283.049 76.9798 283.45 77.3875 283.45 77.8782ZM347.625 133.341C347.625 133.839 347.224 134.239 346.726 134.239C346.228 134.239 345.828 133.839 345.828 133.341C345.828 132.842 346.228 132.442 346.726 132.442C347.224 132.442 347.625 132.842 347.625 133.341ZM240.739 147.142C240.739 147.64 240.339 148.04 239.841 148.04C239.343 148.04 238.942 147.64 238.942 147.142C238.942 146.644 239.343 146.243 239.841 146.243C240.339 146.243 240.739 146.644 240.739 147.142ZM172.812 136.293C172.812 136.791 172.412 137.191 171.913 137.191C171.415 137.191 171.015 136.791 171.015 136.293C171.015 135.794 171.415 135.394 171.913 135.394C172.404 135.394 172.812 135.794 172.812 136.293ZM435.997 190.932C435.997 191.43 435.597 191.83 435.099 191.83C434.601 191.83 434.2 191.43 434.2 190.932C434.2 190.434 434.601 190.033 435.099 190.033C435.597 190.033 435.997 190.434 435.997 190.932Z" fill="white"/>
<path d="M438.942 131.128L439.893 133.061L442.03 133.371L440.482 134.881L440.852 137.01L438.942 136.006L437.024 137.01L437.394 134.881L435.846 133.371L437.983 133.061L438.942 131.128Z" fill="#619FFF"/>
<path d="M217.553 52.4952L218.746 54.9187L221.419 55.3038L219.486 57.1913L219.939 59.8489L217.553 58.5956L215.16 59.8489L215.62 57.1913L213.688 55.3038L216.36 54.9187L217.553 52.4952ZM485.201 170.97L486.394 173.386L489.066 173.778L487.134 175.658L487.594 178.323L485.201 177.063L482.815 178.323L483.268 175.658L481.335 173.778L484.008 173.386L485.201 170.97Z" fill="#90C9FF"/>
<path d="M132.767 166.938C134.514 166.938 135.93 165.522 135.93 163.775C135.93 162.027 134.514 160.611 132.767 160.611C131.02 160.611 129.603 162.027 129.603 163.775C129.603 165.522 131.02 166.938 132.767 166.938Z" fill="#90C9FF"/>
<path d="M432.736 313.461C432.517 311.596 443.208 274.412 455.099 257.87C466.99 241.328 480.361 210.758 480.361 210.758C480.361 210.758 484.861 237.946 472.494 255.802C460.127 273.657 454.88 282.476 454.88 282.476C454.88 282.476 463.517 265.065 484.166 263.865C504.816 262.665 499.508 281.57 499.508 281.57C499.508 281.57 476.722 248.999 429.429 322.679" fill="url(#paint1_linear_190_14)"/>
<path d="M404.476 349.527C404.476 349.527 372.011 357.085 350.026 343.623C328.047 330.169 313.635 311.075 313.635 311.075C313.635 311.075 338.195 302.808 354.027 306.085C369.859 309.354 383.714 327.27 383.751 325.828C383.789 324.378 366.862 301.471 365.488 286.402C364.114 271.324 371.271 243.095 371.271 243.095C371.271 243.095 392.117 259.154 397.311 271.717C402.506 284.28 406.545 311.392 406.545 311.392C406.545 311.392 403.782 287.678 413.393 268.002C423.004 248.327 447.428 232.419 447.428 232.419C447.428 232.419 456.511 256.972 449.051 280.92C441.592 304.869 424.318 320.618 424.318 320.618C424.318 320.618 448.221 303.367 462.974 301.003C477.726 298.64 498.187 311.453 498.187 311.453C498.187 311.453 477.266 334.729 461.078 338.912C444.899 343.095 428.629 340.95 428.629 340.95C428.629 340.95 451.075 341.335 464.28 350.275C477.485 359.206 488.734 377.643 488.734 377.643C488.734 377.643 457.462 381.35 437.741 371.332C418.021 361.305 404.476 349.527 404.476 349.527Z" fill="url(#paint2_linear_190_14)"/>
<path d="M435.386 341.434C431.339 341.003 428.629 340.95 428.629 340.95C428.629 340.95 431.241 341.283 435.386 341.434Z" fill="url(#paint3_linear_190_14)"/>
<path d="M376.005 260.445C376.005 260.445 379.984 313.031 404.733 341.192C401.275 333.317 391.996 319.81 386.847 301.117C381.698 282.423 376.005 260.445 376.005 260.445Z" fill="url(#paint4_linear_190_14)"/>
<path d="M404.061 343.397C404.061 343.397 357.523 329.912 339.539 321.539C326.183 315.711 319.961 312.744 319.961 312.744C319.961 312.744 330.048 320.966 358.851 332.072C387.662 343.185 404.061 343.397 404.061 343.397Z" fill="url(#paint5_linear_190_14)"/>
<path d="M409.89 344.408C409.89 344.408 438.429 351.989 462.438 364.287C473.793 370.199 480.935 374.45 480.935 374.45C480.935 374.45 461.456 365.722 448.04 360.399C434.631 355.069 409.89 344.408 409.89 344.408Z" fill="url(#paint6_linear_190_14)"/>
<path d="M188.856 298.27C189.075 296.405 178.384 259.222 166.493 242.68C154.601 226.138 141.23 195.568 141.23 195.568C141.23 195.568 136.73 222.755 149.097 240.611C161.464 258.467 166.712 267.285 166.712 267.285C166.712 267.285 158.074 249.875 137.425 248.674C116.776 247.474 122.083 266.379 122.083 266.379C122.083 266.379 144.869 233.808 192.163 307.489" fill="url(#paint7_linear_190_14)"/>
<path d="M415.756 217.795C415.756 217.795 402.392 237.81 394.027 266.9C385.661 295.99 388.983 328.636 388.983 328.636" stroke="black" stroke-width="1.74405" stroke-miterlimit="10"/>
<path d="M410.939 251.158C410.939 251.158 400.203 254.578 396.337 259.448C396.458 254.095 398.089 234.707 398.089 234.707M404.136 282.211C404.136 282.211 393.808 283.955 389.829 287.814C387.345 282.023 385.035 266.93 385.035 266.93M394.714 308.704C394.714 308.704 390.229 311.362 388.327 313.861C384.967 308.81 376.058 299.38 376.058 299.38" stroke="black" stroke-width="1.74405" stroke-miterlimit="10"/>
<path d="M414.125 219.66C414.125 219.66 427.27 219.267 433 210.192C438.731 201.117 439.878 193.212 439.878 193.212C439.878 193.212 427.723 195.054 420.565 201.434C413.408 207.814 414.125 219.66 414.125 219.66ZM410.939 251.158C410.939 251.158 418.119 240.015 427.859 235.417C436.473 231.944 448.281 238.391 448.281 238.391C448.281 238.391 446.854 247.179 433.672 252.147C424.891 255.454 415.967 253.257 410.939 251.158ZM385.707 269.573C385.707 269.573 390.305 250.879 381.69 243.51C373.083 236.141 369.724 234.405 369.724 234.405C369.724 234.405 366.303 248.863 370.078 256.677C373.853 264.477 385.707 269.573 385.707 269.573ZM401.547 282.649C401.547 282.649 412.925 271.732 421.433 271.725C429.95 271.709 438.768 275.522 438.768 275.522C438.768 275.522 433.43 286.417 420.225 286.741C407.013 287.059 401.547 282.649 401.547 282.649ZM377.591 300.958C377.591 300.958 375.273 286.485 364.431 283.616C355.205 281.343 351.249 283.472 351.249 283.472C351.249 283.472 351.694 290.554 357.123 296.481C362.559 302.4 377.591 300.958 377.591 300.958ZM393.385 309.49C393.385 309.49 395.643 301.086 402.77 298.912C410.139 296.783 416.458 300.581 416.458 300.581C416.458 300.581 415.537 309.354 407.277 311.37C399.018 313.385 393.385 309.49 393.385 309.49ZM398.512 236.172C398.512 236.172 403.351 222.431 400.316 215.787C397.281 209.135 390.622 206.183 390.622 206.183C390.622 206.183 385.45 213.861 387.323 221.253C389.187 228.644 398.512 236.172 398.512 236.172Z" fill="#00759F"/>
<path d="M187.202 220.807C187.202 220.807 205.964 235.877 222.687 261.109C239.411 286.341 246.062 318.474 246.062 318.474" stroke="black" stroke-width="1.74405" stroke-miterlimit="10"/>
<path d="M201.819 251.173C201.819 251.173 213.091 251.204 218.24 254.692C216.519 249.618 209.135 231.619 209.135 231.619M217.644 278.746C217.644 278.746 228.025 277.304 232.97 279.788C233.597 273.521 231.264 258.429 231.264 258.429M234.594 301.177C234.594 301.177 239.667 302.362 242.234 304.174C243.925 298.346 249.58 286.674 249.58 286.674" stroke="black" stroke-width="1.74405" stroke-miterlimit="10"/>
<path d="M189.316 222.091C189.316 222.091 176.655 225.67 168.471 218.731C160.279 211.793 156.806 204.605 156.806 204.605C156.806 204.605 168.954 202.702 177.697 206.644C186.44 210.577 189.316 222.091 189.316 222.091ZM201.819 251.173C201.819 251.173 191.619 242.702 180.951 241.245C171.687 240.52 162.37 250.222 162.37 250.222C162.37 250.222 166.372 258.172 180.437 258.95C189.807 259.463 197.659 254.684 201.819 251.173ZM231.423 261.147C231.423 261.147 221.419 244.703 227.413 235.077C233.408 225.458 236.096 222.793 236.096 222.793C236.096 222.793 243.706 235.56 242.453 244.144C241.192 252.729 231.423 261.147 231.423 261.147ZM220.249 278.384C220.249 278.384 206.115 271.392 197.991 273.944C189.867 276.496 182.597 282.778 182.597 282.778C182.597 282.778 190.962 291.566 203.661 287.904C216.36 284.242 220.249 278.384 220.249 278.384ZM248.606 288.644C248.606 288.644 246.462 274.141 255.937 268.146C264.054 263.201 268.47 264.046 268.47 264.046C268.47 264.046 270.177 270.932 266.779 278.218C263.374 285.503 248.606 288.644 248.606 288.644ZM236.096 301.532C236.096 301.532 231.415 294.193 223.971 294.261C216.307 294.45 211.423 299.962 211.423 299.962C211.423 299.962 214.941 308.055 223.42 307.496C231.898 306.938 236.096 301.532 236.096 301.532ZM209.173 233.152C209.173 233.152 200.43 221.502 201.321 214.246C202.212 206.991 207.685 202.174 207.685 202.174C207.685 202.174 214.926 207.942 215.364 215.553C215.802 223.163 209.173 233.152 209.173 233.152Z" fill="#00759F"/>
<path d="M388.78 415.242C388.78 415.242 360.724 433.242 335.499 427.934C310.282 422.626 290.305 409.467 290.305 409.467C290.305 409.467 310.675 393.453 326.689 391.226C342.702 388.999 361.766 401.237 361.313 399.863C360.86 398.489 337.236 382.581 330.886 368.84C324.537 355.099 321.819 326.1 321.819 326.1C321.819 326.1 346.839 334.246 355.945 344.34C365.05 354.435 377.945 378.625 377.945 378.625C377.945 378.625 367.391 357.206 369.852 335.446C372.313 313.687 389.995 290.509 389.995 290.509C389.995 290.509 406.786 310.599 407.783 335.658C408.787 360.724 397.787 381.351 397.787 381.351C397.787 381.351 414.525 357.085 427.632 349.912C440.739 342.74 464.31 347.949 464.31 347.949C464.31 347.949 452.396 376.896 438.549 386.258C424.703 395.628 408.659 399.055 408.659 399.055C408.659 399.055 429.935 391.898 445.375 395.884C460.814 399.878 477.59 413.476 477.59 413.476C477.59 413.476 449.368 427.451 427.436 424.62C405.488 421.796 388.78 415.242 388.78 415.242Z" fill="url(#paint8_linear_190_14)"/>
<path d="M415.182 397.251C411.226 398.202 408.651 399.055 408.651 399.055C408.651 399.055 411.233 398.504 415.182 397.251Z" fill="url(#paint9_linear_190_14)"/>
<path d="M332.094 340.852C332.094 340.852 353.468 389.067 386.228 407.3C380.331 401.033 367.058 391.422 355.945 375.537C344.824 359.652 332.094 340.852 332.094 340.852Z" fill="url(#paint10_linear_190_14)"/>
<path d="M386.334 409.61C386.334 409.61 337.968 412.509 318.217 410.645C303.684 409.625 296.828 408.916 296.828 408.916C296.828 408.916 309.089 413.287 339.954 414.087C370.811 414.895 386.334 409.61 386.334 409.61Z" fill="url(#paint11_linear_190_14)"/>
<path d="M224.009 347.406C224.009 347.406 254.888 334.858 265.088 311.188C275.288 287.519 276.058 263.616 276.058 263.616C276.058 263.616 251.226 271.022 240.181 282.831C229.135 294.631 228.138 317.259 227.278 316.096C226.417 314.933 227.036 286.462 219.463 273.348C211.891 260.241 189.769 241.298 189.769 241.298C189.769 241.298 182 266.439 184.998 279.697C187.995 292.955 200.332 317.44 200.332 317.44C200.332 317.44 188.916 296.466 169.716 285.934C150.517 275.401 121.389 276.481 121.389 276.481C121.389 276.481 128.124 301.781 148.025 317.047C167.927 332.313 191.121 335.22 191.121 335.22C191.121 335.22 161.646 334.91 148.229 341.479C134.813 348.055 125.481 370.32 125.481 370.32C125.481 370.32 155.998 377.273 171.634 371.362C187.27 365.45 199.32 354.321 199.32 354.321C199.32 354.321 181.208 367.572 175.568 382.491C169.928 397.409 171.37 418.95 171.37 418.95C171.37 418.95 199.056 403.948 209.392 384.393C219.735 364.839 224.009 347.406 224.009 347.406Z" fill="url(#paint12_linear_190_14)"/>
<path d="M194.088 358.61C197.153 355.93 199.328 354.321 199.328 354.321C199.328 354.321 197.387 356.103 194.088 358.61Z" fill="url(#paint13_linear_190_14)"/>
<path d="M250.494 414.027C250.494 414.027 280.052 429.436 304.695 421.886C329.339 414.336 348.055 399.44 348.055 399.44C348.055 399.44 326.334 385.314 310.184 384.537C294.035 383.759 276.149 397.651 276.473 396.239C276.798 394.827 298.905 376.866 303.993 362.611C309.082 348.357 309.195 319.229 309.195 319.229C309.195 319.229 285.005 329.588 276.836 340.46C268.674 351.332 257.999 376.579 257.999 376.579C257.999 376.579 266.59 354.299 262.189 332.849C257.787 311.4 238.104 289.897 238.104 289.897C238.104 289.897 223.186 311.407 224.439 336.458C225.685 361.509 238.497 381.071 238.497 381.071C238.497 381.071 219.652 358.406 205.956 352.434C192.261 346.462 169.248 353.77 169.248 353.77C169.248 353.77 183.707 381.532 198.339 389.618C212.963 397.704 229.256 399.682 229.256 399.682C229.256 399.682 207.429 394.457 192.404 399.818C177.387 405.178 161.902 420.225 161.902 420.225C161.902 420.225 191.264 431.611 212.857 426.832C234.443 422.06 250.494 414.027 250.494 414.027Z" fill="url(#paint14_linear_190_14)"/>
<path opacity="0.3" d="M238.104 289.905C238.104 289.905 257.787 311.407 262.189 332.857C266.591 354.306 257.999 376.586 257.999 376.586C257.999 376.586 268.674 351.332 276.836 340.467C284.997 329.595 309.195 319.237 309.195 319.237C309.195 319.237 309.089 348.365 303.993 362.619C298.905 376.873 276.798 394.842 276.473 396.247C276.149 397.658 294.035 383.759 310.184 384.544C326.334 385.322 348.055 399.448 348.055 399.448C348.055 399.448 329.339 414.344 304.695 421.894C280.052 429.444 250.494 414.034 250.494 414.034L249.701 414.419C252.2 359.727 238.104 289.905 238.104 289.905Z" fill="#00759F"/>
<path d="M222.582 398.481C226.606 399.078 229.241 399.697 229.241 399.697C229.241 399.697 226.628 399.372 222.582 398.481Z" fill="url(#paint15_linear_190_14)"/>
<path d="M300.279 334.858C300.279 334.858 283.314 384.793 252.321 405.888C257.629 399.123 269.988 388.357 279.637 371.543C289.286 354.722 300.279 334.858 300.279 334.858Z" fill="url(#paint16_linear_190_14)"/>
<path d="M252.427 408.198C252.427 408.198 300.86 406.749 320.362 403.125C334.744 400.807 341.509 399.486 341.509 399.486C341.509 399.486 329.693 404.937 299.025 408.508C268.357 412.079 252.427 408.198 252.427 408.198Z" fill="url(#paint17_linear_190_14)"/>
<path d="M247.927 407.104C247.927 407.104 229.648 388.138 212.646 375.726C195.651 363.306 176.27 356.451 176.27 356.451C176.27 356.451 201.721 371.694 211.264 378.549C220.8 385.405 247.927 407.104 247.927 407.104Z" fill="url(#paint18_linear_190_14)"/>
<path d="M245.926 179.177C245.926 179.177 249.218 195.477 232.389 204.386C226.757 206.334 216.262 206.523 210.426 200.951C218.988 205.111 226.613 205.805 232.246 203.608C235.447 200.943 244.643 197.455 245.926 179.177Z" fill="black"/>
<path d="M236.911 180.86C236.911 180.86 240.588 194.805 232.17 204.039C223.812 202.197 216.889 195.809 214.865 191.272C217.576 194.39 224.967 201.744 231.777 203.397C234.971 198.014 238.135 191.242 236.911 180.86Z" fill="black"/>
<path d="M231.204 188.554C231.204 188.554 235.462 198.233 232.464 203.699C230.871 202.77 223.193 195.817 221.019 185.186C224.205 191.121 225.33 196.413 231.989 202.159C232.842 198.52 231.483 190.003 231.204 188.554Z" fill="black"/>
<path d="M246.13 182.718C246.13 182.718 248.576 181.283 248.84 177.614C249.112 173.945 246.938 172.631 245.798 174.201C245.307 173.091 244.809 173.643 244.801 174.36C244.114 173.665 242.763 173.627 242.589 175.228C242.415 176.829 243.812 182.385 246.13 182.718Z" fill="url(#paint19_linear_190_14)"/>
<path d="M237.145 183.714C237.145 183.714 239.931 181.963 238.655 177.863C237.863 175.749 236.776 175.59 236.526 176.149C236.217 175.9 234.918 175.704 234.85 176.821C234.201 176.474 233.076 177.402 233.386 178.701C233.68 180 234.397 183.08 237.145 183.714Z" fill="url(#paint20_linear_190_14)"/>
<path d="M231.989 191.898C231.989 191.898 234.201 190.426 232.91 186.908C232.087 184.522 230.924 185.322 230.909 185.828C230.464 185.156 229.709 185.285 229.626 185.881C228.976 185.571 228.169 186.5 228.471 187.791C228.773 189.082 229.739 191.725 231.989 191.898Z" fill="url(#paint21_linear_190_14)"/>
<path d="M222.272 188.493C222.272 188.493 224.401 187.474 223.82 184.19C223.238 180.906 221.426 178.829 220.762 180.151C220.105 179.652 218.995 178.693 217.991 180.588C216.791 180.868 216.987 182.733 217.516 184.099C218.036 185.458 219.984 188.591 222.272 188.493Z" fill="url(#paint22_linear_190_14)"/>
<path d="M214.337 203.269C214.337 203.269 214.971 200.989 212.117 199.267C209.263 197.546 206.508 197.538 207.059 198.912C206.251 199.078 204.801 199.282 205.564 201.291C204.983 202.378 206.515 203.457 207.897 203.956C209.271 204.454 212.91 205.05 214.337 203.269Z" fill="url(#paint23_linear_190_14)"/>
<path d="M216.7 193.476C216.7 193.476 217.727 192.434 216.451 190.185C215.62 188.501 213.038 185.662 212.631 187.844C211.43 187.867 210.056 187.55 210.63 189.988C209.535 190.622 210.509 191.778 211.619 192.903C212.736 194.02 215.62 194.405 216.7 193.476Z" fill="url(#paint24_linear_190_14)"/>
<path d="M232.933 202.657C232.933 202.657 232.978 202.74 233.068 202.914C234.548 205.76 247.753 231.687 242.453 239.72C242.974 235.628 242.332 230.509 238.708 220.188C235.084 209.867 231.785 203.39 231.785 203.39L232.985 202.748" fill="black"/>
<path d="M362.506 184.801C362.506 184.801 359.214 201.102 376.043 210.011C381.675 211.959 392.17 212.147 398.006 206.576C389.444 210.736 381.819 211.43 376.186 209.233C372.985 206.568 363.789 203.08 362.506 184.801Z" fill="black"/>
<path d="M371.52 186.485C371.52 186.485 367.844 200.43 376.262 209.664C384.62 207.821 391.543 201.434 393.566 196.896C390.856 200.015 383.464 207.368 376.654 209.022C373.461 203.646 370.305 196.866 371.52 186.485Z" fill="black"/>
<path d="M377.228 194.178C377.228 194.178 372.97 203.858 375.967 209.324C377.56 208.395 385.239 201.442 387.413 190.811C384.227 196.745 383.102 202.038 376.443 207.784C375.59 204.144 376.949 195.628 377.228 194.178Z" fill="black"/>
<path d="M362.302 188.342C362.302 188.342 359.856 186.908 359.591 183.239C359.32 179.569 361.494 178.256 362.634 179.826C363.125 178.716 363.623 179.267 363.631 179.984C364.318 179.29 365.669 179.252 365.843 180.853C366.016 182.453 364.62 188.01 362.302 188.342Z" fill="url(#paint25_linear_190_14)"/>
<path d="M371.286 189.339C371.286 189.339 368.5 187.587 369.776 183.488C370.569 181.374 371.656 181.215 371.905 181.774C372.215 181.525 373.514 181.328 373.582 182.446C374.231 182.098 375.356 183.027 375.046 184.326C374.752 185.632 374.035 188.712 371.286 189.339Z" fill="url(#paint26_linear_190_14)"/>
<path d="M376.443 197.523C376.443 197.523 374.231 196.051 375.522 192.54C376.345 190.154 377.508 190.955 377.523 191.46C377.968 190.789 378.723 190.917 378.806 191.513C379.456 191.204 380.263 192.132 379.961 193.423C379.659 194.707 378.7 197.349 376.443 197.523Z" fill="url(#paint27_linear_190_14)"/>
<path d="M386.167 194.118C386.167 194.118 384.038 193.099 384.62 189.815C385.201 186.53 387.006 184.454 387.677 185.775C388.334 185.277 389.444 184.318 390.448 186.213C391.649 186.493 391.452 188.357 390.924 189.724C390.395 191.083 388.448 194.216 386.167 194.118Z" fill="url(#paint28_linear_190_14)"/>
<path d="M394.095 208.893C394.095 208.893 393.461 206.613 396.315 204.892C399.168 203.171 401.924 203.163 401.373 204.537C402.181 204.703 403.63 204.907 402.868 206.915C403.449 208.003 401.917 209.082 400.535 209.581C399.161 210.079 395.522 210.675 394.095 208.893Z" fill="url(#paint29_linear_190_14)"/>
<path d="M391.732 199.101C391.732 199.101 390.705 198.059 391.981 195.809C392.811 194.126 395.394 191.287 395.801 193.469C397.002 193.491 398.376 193.174 397.802 195.613C398.897 196.247 397.923 197.402 396.813 198.527C395.696 199.652 392.819 200.03 391.732 199.101Z" fill="url(#paint30_linear_190_14)"/>
<path d="M375.499 208.289C375.499 208.289 375.454 208.372 375.363 208.546C373.884 211.392 360.679 237.319 365.979 245.352C365.458 241.26 366.099 236.141 369.723 225.821C373.347 215.5 376.647 209.022 376.647 209.022L375.446 208.38" fill="black"/>
<path d="M313.695 449.119C440.902 449.119 544.023 440.997 544.023 430.977C544.023 420.957 440.902 412.834 313.695 412.834C186.488 412.834 83.3671 420.957 83.3671 430.977C83.3671 440.997 186.488 449.119 313.695 449.119Z" fill="url(#paint31_linear_190_14)"/>
<path d="M301.706 180.226L276.398 223.888C276.398 223.888 307.406 251.098 313.099 248.569C318.791 246.039 346.636 235.281 346.636 235.281C346.636 235.281 347.27 219.463 345.367 214.397C343.472 209.339 320.06 172.638 318.157 173.899C316.254 175.168 301.706 180.226 301.706 180.226Z" fill="url(#paint32_linear_190_14)"/>
<path d="M204.454 376.768C205.722 377.613 215.636 391.113 229.346 400.603C243.057 410.093 261.615 419.372 261.615 419.372L364.967 421.056C364.967 421.056 388.168 411.143 402.513 398.912C416.858 386.681 420.022 377.394 420.022 377.394L334.39 383.933L333.544 383.087L290.517 383.51" fill="black"/>
<path d="M204.454 376.768C205.722 377.613 215.636 391.113 229.346 400.603C243.057 410.093 261.615 419.372 261.615 419.372L364.967 421.056C364.967 421.056 388.168 411.143 402.513 398.912C416.858 386.681 420.022 377.394 420.022 377.394L334.39 383.933L333.544 383.087L290.517 383.51" stroke="#231F20" stroke-width="1.51" stroke-miterlimit="10"/>
<path d="M282.71 151.43C282.71 151.43 285.382 170.275 292.268 178.573C299.154 186.87 306.19 191.929 311.536 191.929C316.881 191.929 327.564 185.602 332.343 176.323C337.123 167.044 339.237 151.717 339.237 151.717C339.237 151.717 350.343 124.862 326.303 121.91C302.257 118.958 288.757 114.315 286.93 119.803C285.103 125.277 282.71 151.43 282.71 151.43Z" fill="url(#paint33_linear_190_14)"/>
<path d="M327.708 128.788C327.942 128.41 339.101 146.508 337.832 156.489C336.564 166.47 333.053 176.315 330.66 179.411C328.266 182.506 321.804 187.844 321.804 187.844C321.804 187.844 321.237 202.046 326.726 209.361C332.215 216.677 342.476 221.313 347.119 221.736C351.762 222.159 355.975 222.717 355.552 222.717C355.129 222.717 348.946 203.593 351.332 190.094C353.725 176.594 350.773 138.49 345.563 124.288C340.362 110.087 336.987 108.962 336.987 108.962C336.987 108.962 322.785 95.6056 293.959 105.028C277.319 110.464 273.567 129.211 273.71 149.603C273.854 169.996 275.96 186.304 270.335 202.197C264.711 218.089 265.835 222.868 265.835 222.868C265.835 222.868 287.21 222.446 293.536 215.975C299.863 209.505 301.411 204.869 301.834 199.667C302.257 194.465 302.679 188.561 302.679 188.561C302.679 188.561 291.989 182.514 288.055 170.841C284.122 159.169 283.835 158.188 283.835 158.188C283.835 158.188 291.989 154.39 301.69 144.968C311.392 135.545 312.374 133.575 312.374 133.575L305.767 143.978C305.767 143.978 318.565 143.276 327.708 128.788Z" fill="#786761"/>
<path d="M276.806 221.947C276.806 221.947 260.777 221.947 256.768 227.429C252.759 232.91 229.346 298.512 230.403 302.725C231.46 306.938 267.527 354.193 267.527 354.193C267.527 354.193 268.584 328.674 268.372 327.406C268.161 326.137 248.969 297.666 248.969 297.032C248.969 296.398 267.323 263.072 267.323 263.072L276.806 221.947Z" fill="url(#paint34_linear_190_14)"/>
<path d="M347.043 221.947C347.043 221.947 363.072 221.947 367.081 227.429C371.09 232.91 394.503 298.512 393.446 302.725C392.389 306.938 356.322 354.193 356.322 354.193C356.322 354.193 355.265 328.674 355.477 327.406C355.688 326.137 374.88 297.666 374.88 297.032C374.88 296.398 356.526 263.072 356.526 263.072L347.043 221.947Z" fill="url(#paint35_linear_190_14)"/>
<path d="M345.141 221.102C345.141 221.102 335.65 234.813 313.71 235.87C291.777 236.927 280.384 221.525 280.384 221.525L276.798 221.947C276.798 221.947 267.942 240.928 267.096 253.793C266.251 266.658 268.576 272.563 271.74 278.686C274.903 284.809 277.644 285.435 277.644 285.435L278.912 371.913C278.912 371.913 337.545 378.24 337.342 377.606C337.13 376.971 349.15 286.062 349.15 285.224C349.15 284.378 356.111 270.245 356.534 259.916C356.956 249.588 349.784 222.37 349.784 222.37L345.141 221.102Z" fill="url(#paint36_linear_190_14)"/>
<path d="M253.393 385.201C253.393 385.201 243.903 298.512 244.114 297.666C244.326 296.821 243.269 293.446 255.084 293.657C266.893 293.869 375.733 293.657 375.733 293.657C375.733 293.657 382.272 292.389 381.637 301.041C381.003 309.686 376.994 381.615 376.994 381.615L253.393 385.201Z" fill="url(#paint37_linear_190_14)"/>
<path opacity="0.3" d="M311.392 343.442C316.4 343.442 320.46 339.382 320.46 334.374C320.46 329.367 316.4 325.307 311.392 325.307C306.384 325.307 302.325 329.367 302.325 334.374C302.325 339.382 306.384 343.442 311.392 343.442Z" fill="white"/>
<path d="M328.41 400.18C328.017 398.821 301.623 387.104 294.239 380.988C286.855 374.873 265.345 362.634 247.836 356.307C230.328 349.98 215.145 342.596 211.559 341.539C207.972 340.482 201.223 339.644 194.684 348.289C188.146 356.934 188.78 364.106 194.473 369.807C200.166 375.499 222.317 394.91 242.355 400.603C262.393 406.296 276.738 409.248 292.344 413.68C307.949 418.111 317.651 421.275 317.651 421.275C317.651 421.275 332.208 413.257 328.41 400.18Z" fill="url(#paint38_linear_190_14)"/>
<path d="M319.833 420.218C319.833 420.218 327.006 420.852 329.323 422.536C331.641 424.219 336.073 426.756 338.391 426.756C340.709 426.756 348.938 428.025 354.631 430.554C360.324 433.083 372.985 440.256 375.937 438.987L378.889 437.719C378.889 437.719 380.996 437.719 382.264 436.662C383.532 435.605 383.744 434.555 383.744 434.555C383.744 434.555 386.062 434.555 387.119 433.498C388.176 432.441 388.176 430.546 388.176 430.546C388.176 430.546 390.071 430.758 390.705 429.489L391.339 428.221C391.339 428.221 393.657 426.741 394.503 425.057C395.348 423.374 395.348 423.162 394.925 422.528C394.503 421.894 386.069 416.201 384.167 416.201C382.271 416.201 372.985 415.144 367.927 413.672C362.868 412.192 359.493 411.777 349.784 410.509C340.082 409.248 319.833 420.218 319.833 420.218Z" fill="url(#paint39_linear_190_14)"/>
<path d="M300.852 401.026C301.245 399.667 327.64 387.949 335.024 381.834C342.408 375.718 363.918 363.48 381.426 357.153C398.934 350.826 414.117 343.442 417.704 342.385C421.29 341.328 428.04 340.49 434.578 349.135C441.116 357.779 440.482 364.952 434.789 370.652C429.097 376.345 406.945 395.756 386.907 401.449C366.87 407.141 352.525 410.093 336.919 414.525C321.313 418.957 311.611 422.12 311.611 422.12C311.611 422.12 297.055 414.102 300.852 401.026Z" fill="url(#paint40_linear_190_14)"/>
<path d="M300.566 402.287C300.566 402.287 277.221 413.815 273.144 413.815C269.067 413.815 268.078 412.411 266.115 411.566C264.144 410.72 260.347 411.143 254.865 413.672C249.384 416.201 245.443 418.451 241.789 418.172C238.135 417.892 230.683 415.643 226.462 417.749C222.242 419.855 214.367 427.451 217.183 430.403C219.999 433.355 227.308 436.594 230.403 434.903C233.499 433.219 242.076 432.796 249.105 433.498C256.134 434.2 264.008 436.45 269.497 434.48C274.986 432.509 284.68 426.885 292.978 424.778C301.275 422.672 309.709 421.124 309.709 421.124C309.709 421.124 298.738 415.65 300.566 402.287Z" fill="url(#paint41_linear_190_14)"/>
<path d="M381.668 299.788C381.6 292.532 375.726 293.657 375.726 293.657C375.726 293.657 266.893 293.869 255.077 293.657C243.269 293.446 244.318 296.821 244.107 297.666C244.092 297.734 244.129 298.316 244.22 299.327C245.201 297.923 246.402 295.56 253.219 295.56H374.993C374.993 295.56 379.289 295.348 381.668 299.788Z" fill="white"/>
<path d="M439.787 371.309C439.787 371.309 438.315 362.007 438.459 360.007C438.602 358.006 439.153 347.443 439.153 347.443L440.573 346.175C440.573 346.175 439.168 357.946 439.349 361.419C439.531 364.892 439.787 371.309 439.787 371.309Z" fill="url(#paint42_linear_190_14)"/>
<path opacity="0.35" d="M497.047 342.679L497.47 343.812C497.107 341.962 498.496 341.101 498.496 341.101C498.489 341.101 497.794 341.351 496.669 341.283C496.126 341.252 495.325 341.071 494.933 340.966C494.54 340.852 493.974 340.686 493.974 340.686L495.703 341.336C496.322 341.562 496.813 342.053 497.047 342.679Z" fill="#F58F9E"/>
<defs>
<linearGradient id="paint0_linear_190_14" x1="309.512" y1="7.85202" x2="309.512" y2="412.713" gradientUnits="userSpaceOnUse">
<stop stop-color="#05A66B"/>
<stop offset="1" stop-color="#05A66B" stop-opacity="0"/>
</linearGradient>
<linearGradient id="paint1_linear_190_14" x1="422.034" y1="293.627" x2="538.995" y2="211.867" gradientUnits="userSpaceOnUse">
<stop offset="1"/>
</linearGradient>
<linearGradient id="paint2_linear_190_14" x1="382.152" y1="375.935" x2="463.775" y2="240.529" gradientUnits="userSpaceOnUse">
<stop stop-color="#7633FF"/>
<stop offset="0.159" stop-color="#7137FF"/>
<stop offset="0.353" stop-color="#6243FF"/>
<stop offset="0.568" stop-color="#4957FF"/>
<stop offset="0.794" stop-color="#2672FF"/>
<stop offset="1" stop-color="#0090FF"/>
</linearGradient>
<linearGradient id="paint3_linear_190_14" x1="431.839" y1="341.531" x2="431.525" y2="342.063" gradientUnits="userSpaceOnUse">
<stop offset="0.074" stop-color="#CEC228"/>
<stop offset="0.58" stop-color="#B2AE18"/>
</linearGradient>
<linearGradient id="paint4_linear_190_14" x1="383.734" y1="302.306" x2="395.502" y2="299.686" gradientUnits="userSpaceOnUse">
<stop stop-color="#7700BB"/>
<stop offset="1"/>
</linearGradient>
<linearGradient id="paint5_linear_190_14" x1="325.214" y1="336.276" x2="398.832" y2="319.885" gradientUnits="userSpaceOnUse">
<stop stop-color="#7700BB"/>
<stop offset="1"/>
</linearGradient>
<linearGradient id="paint6_linear_190_14" x1="414.766" y1="366.263" x2="476.083" y2="352.611" gradientUnits="userSpaceOnUse">
<stop stop-color="#7700BB"/>
<stop offset="1"/>
</linearGradient>
<linearGradient id="paint7_linear_190_14" x1="199.574" y1="278.414" x2="82.5975" y2="196.677" gradientUnits="userSpaceOnUse">
<stop offset="1"/>
</linearGradient>
<linearGradient id="paint8_linear_190_14" x1="363.199" y1="427.687" x2="436.601" y2="311.257" gradientUnits="userSpaceOnUse">
<stop stop-color="#59023F"/>
<stop offset="0.119" stop-color="#590444"/>
<stop offset="0.265" stop-color="#5A0A53"/>
<stop offset="0.426" stop-color="#5C156C"/>
<stop offset="0.597" stop-color="#5E238F"/>
<stop offset="0.776" stop-color="#6135BC"/>
<stop offset="0.96" stop-color="#644CF2"/>
<stop offset="1" stop-color="#6551FF"/>
</linearGradient>
<linearGradient id="paint9_linear_190_14" x1="411.859" y1="398.536" x2="411.743" y2="399.143" gradientUnits="userSpaceOnUse">
<stop offset="0.074" stop-color="#CEC228"/>
<stop offset="0.58" stop-color="#B2AE18"/>
</linearGradient>
<linearGradient id="paint10_linear_190_14" x1="353.407" y1="377.715" x2="363.615" y2="371.302" gradientUnits="userSpaceOnUse">
<stop stop-color="#7700BB"/>
<stop offset="1"/>
</linearGradient>
<linearGradient id="paint11_linear_190_14" x1="309.661" y1="429.342" x2="373.524" y2="389.215" gradientUnits="userSpaceOnUse">
<stop stop-color="#7700BB"/>
<stop offset="1"/>
</linearGradient>
<linearGradient id="paint12_linear_190_14" x1="230.891" y1="345.123" x2="60.6839" y2="254.008" gradientUnits="userSpaceOnUse">
<stop stop-color="#7633FF"/>
<stop offset="0.159" stop-color="#7137FF"/>
<stop offset="0.353" stop-color="#6243FF"/>
<stop offset="0.568" stop-color="#4957FF"/>
<stop offset="0.794" stop-color="#2672FF"/>
<stop offset="1" stop-color="#0090FF"/>
</linearGradient>
<linearGradient id="paint13_linear_190_14" x1="197.051" y1="356.614" x2="197.613" y2="356.869" gradientUnits="userSpaceOnUse">
<stop offset="0.074" stop-color="#CEC228"/>
<stop offset="0.58" stop-color="#B2AE18"/>
</linearGradient>
<linearGradient id="paint14_linear_190_14" x1="270.03" y1="428.487" x2="193.254" y2="297.714" gradientUnits="userSpaceOnUse">
<stop stop-color="#59023F"/>
<stop offset="0.119" stop-color="#590444"/>
<stop offset="0.265" stop-color="#5A0A53"/>
<stop offset="0.426" stop-color="#5C156C"/>
<stop offset="0.597" stop-color="#5E238F"/>
<stop offset="0.776" stop-color="#6135BC"/>
<stop offset="0.96" stop-color="#644CF2"/>
<stop offset="1" stop-color="#6551FF"/>
</linearGradient>
<linearGradient id="paint15_linear_190_14" x1="226" y1="399.48" x2="226.17" y2="400.073" gradientUnits="userSpaceOnUse">
<stop offset="0.074" stop-color="#CEC228"/>
<stop offset="0.58" stop-color="#B2AE18"/>
</linearGradient>
<linearGradient id="paint16_linear_190_14" x1="282.389" y1="373.489" x2="271.644" y2="368.015" gradientUnits="userSpaceOnUse">
<stop stop-color="#7700BB"/>
<stop offset="1"/>
</linearGradient>
<linearGradient id="paint17_linear_190_14" x1="330.589" y1="420.985" x2="263.381" y2="386.747" gradientUnits="userSpaceOnUse">
<stop stop-color="#7700BB"/>
<stop offset="1"/>
</linearGradient>
<linearGradient id="paint18_linear_190_14" x1="251.035" y1="401.057" x2="173.649" y2="361.634" gradientUnits="userSpaceOnUse">
<stop stop-color="#7700BB"/>
<stop offset="1"/>
</linearGradient>
<linearGradient id="paint19_linear_190_14" x1="242.068" y1="176.073" x2="248.699" y2="179.096" gradientUnits="userSpaceOnUse">
<stop stop-color="#7633FF"/>
<stop offset="0.159" stop-color="#7137FF"/>
<stop offset="0.353" stop-color="#6243FF"/>
<stop offset="0.568" stop-color="#4957FF"/>
<stop offset="0.794" stop-color="#2672FF"/>
<stop offset="1" stop-color="#0090FF"/>
</linearGradient>
<linearGradient id="paint20_linear_190_14" x1="233.241" y1="178.062" x2="239.11" y2="180.738" gradientUnits="userSpaceOnUse">
<stop stop-color="#7633FF"/>
<stop offset="0.159" stop-color="#7137FF"/>
<stop offset="0.353" stop-color="#6243FF"/>
<stop offset="0.568" stop-color="#4957FF"/>
<stop offset="0.794" stop-color="#2672FF"/>
<stop offset="1" stop-color="#0090FF"/>
</linearGradient>
<linearGradient id="paint21_linear_190_14" x1="228.284" y1="187.056" x2="233.513" y2="189.44" gradientUnits="userSpaceOnUse">
<stop stop-color="#7633FF"/>
<stop offset="0.159" stop-color="#7137FF"/>
<stop offset="0.353" stop-color="#6243FF"/>
<stop offset="0.568" stop-color="#4957FF"/>
<stop offset="0.794" stop-color="#2672FF"/>
<stop offset="1" stop-color="#0090FF"/>
</linearGradient>
<linearGradient id="paint22_linear_190_14" x1="216.881" y1="182.003" x2="224.306" y2="185.389" gradientUnits="userSpaceOnUse">
<stop stop-color="#7633FF"/>
<stop offset="0.159" stop-color="#7137FF"/>
<stop offset="0.353" stop-color="#6243FF"/>
<stop offset="0.568" stop-color="#4957FF"/>
<stop offset="0.794" stop-color="#2672FF"/>
<stop offset="1" stop-color="#0090FF"/>
</linearGradient>
<linearGradient id="paint23_linear_190_14" x1="205.545" y1="199.543" x2="214.223" y2="203.5" gradientUnits="userSpaceOnUse">
<stop stop-color="#7633FF"/>
<stop offset="0.159" stop-color="#7137FF"/>
<stop offset="0.353" stop-color="#6243FF"/>
<stop offset="0.568" stop-color="#4957FF"/>
<stop offset="0.794" stop-color="#2672FF"/>
<stop offset="1" stop-color="#0090FF"/>
</linearGradient>
<linearGradient id="paint24_linear_190_14" x1="210.309" y1="189.037" x2="217.315" y2="192.232" gradientUnits="userSpaceOnUse">
<stop stop-color="#7633FF"/>
<stop offset="0.159" stop-color="#7137FF"/>
<stop offset="0.353" stop-color="#6243FF"/>
<stop offset="0.568" stop-color="#4957FF"/>
<stop offset="0.794" stop-color="#2672FF"/>
<stop offset="1" stop-color="#0090FF"/>
</linearGradient>
<linearGradient id="paint25_linear_190_14" x1="366.34" y1="181.7" x2="359.71" y2="184.723" gradientUnits="userSpaceOnUse">
<stop stop-color="#7633FF"/>
<stop offset="0.159" stop-color="#7137FF"/>
<stop offset="0.353" stop-color="#6243FF"/>
<stop offset="0.568" stop-color="#4957FF"/>
<stop offset="0.794" stop-color="#2672FF"/>
<stop offset="1" stop-color="#0090FF"/>
</linearGradient>
<linearGradient id="paint26_linear_190_14" x1="375.167" y1="183.689" x2="369.298" y2="186.365" gradientUnits="userSpaceOnUse">
<stop stop-color="#7633FF"/>
<stop offset="0.159" stop-color="#7137FF"/>
<stop offset="0.353" stop-color="#6243FF"/>
<stop offset="0.568" stop-color="#4957FF"/>
<stop offset="0.794" stop-color="#2672FF"/>
<stop offset="1" stop-color="#0090FF"/>
</linearGradient>
<linearGradient id="paint27_linear_190_14" x1="380.124" y1="192.683" x2="374.895" y2="195.067" gradientUnits="userSpaceOnUse">
<stop stop-color="#7633FF"/>
<stop offset="0.159" stop-color="#7137FF"/>
<stop offset="0.353" stop-color="#6243FF"/>
<stop offset="0.568" stop-color="#4957FF"/>
<stop offset="0.794" stop-color="#2672FF"/>
<stop offset="1" stop-color="#0090FF"/>
</linearGradient>
<linearGradient id="paint28_linear_190_14" x1="391.527" y1="187.63" x2="384.102" y2="191.015" gradientUnits="userSpaceOnUse">
<stop stop-color="#7633FF"/>
<stop offset="0.159" stop-color="#7137FF"/>
<stop offset="0.353" stop-color="#6243FF"/>
<stop offset="0.568" stop-color="#4957FF"/>
<stop offset="0.794" stop-color="#2672FF"/>
<stop offset="1" stop-color="#0090FF"/>
</linearGradient>
<linearGradient id="paint29_linear_190_14" x1="402.862" y1="205.17" x2="394.185" y2="209.126" gradientUnits="userSpaceOnUse">
<stop stop-color="#7633FF"/>
<stop offset="0.159" stop-color="#7137FF"/>
<stop offset="0.353" stop-color="#6243FF"/>
<stop offset="0.568" stop-color="#4957FF"/>
<stop offset="0.794" stop-color="#2672FF"/>
<stop offset="1" stop-color="#0090FF"/>
</linearGradient>
<linearGradient id="paint30_linear_190_14" x1="398.099" y1="194.663" x2="391.094" y2="197.858" gradientUnits="userSpaceOnUse">
<stop stop-color="#7633FF"/>
<stop offset="0.159" stop-color="#7137FF"/>
<stop offset="0.353" stop-color="#6243FF"/>
<stop offset="0.568" stop-color="#4957FF"/>
<stop offset="0.794" stop-color="#2672FF"/>
<stop offset="1" stop-color="#0090FF"/>
</linearGradient>
<linearGradient id="paint31_linear_190_14" x1="313.691" y1="464.353" x2="313.691" y2="411.261" gradientUnits="userSpaceOnUse">
<stop stop-color="#4F00B5"/>
<stop offset="0.5" stop-color="#3800A2"/>
<stop offset="1" stop-color="#4602D0"/>
</linearGradient>
<linearGradient id="paint32_linear_190_14" x1="317.931" y1="247.992" x2="295.151" y2="154.342" gradientUnits="userSpaceOnUse">
<stop stop-color="white"/>
<stop offset="0.122" stop-color="#FBFDFF"/>
<stop offset="0.248" stop-color="#EFF5FF"/>
<stop offset="0.374" stop-color="#DAE9FF"/>
<stop offset="0.501" stop-color="#BDD9FF"/>
<stop offset="0.629" stop-color="#98C3FF"/>
<stop offset="0.758" stop-color="#6BA9FF"/>
<stop offset="0.885" stop-color="#378AFF"/>
<stop offset="1" stop-color="#006AFF"/>
</linearGradient>
<linearGradient id="paint33_linear_190_14" x1="312.254" y1="199.381" x2="312.254" y2="103.951" gradientUnits="userSpaceOnUse">
<stop stop-color="white"/>
<stop offset="0.122" stop-color="#FBFDFF"/>
<stop offset="0.248" stop-color="#EFF5FF"/>
<stop offset="0.374" stop-color="#DAE9FF"/>
<stop offset="0.501" stop-color="#BDD9FF"/>
<stop offset="0.629" stop-color="#98C3FF"/>
<stop offset="0.758" stop-color="#6BA9FF"/>
<stop offset="0.885" stop-color="#378AFF"/>
<stop offset="1" stop-color="#006AFF"/>
</linearGradient>
<linearGradient id="paint34_linear_190_14" x1="259.019" y1="229.944" x2="248.895" y2="328.657" gradientUnits="userSpaceOnUse">
<stop stop-color="white"/>
<stop offset="0.122" stop-color="#FBFDFF"/>
<stop offset="0.248" stop-color="#EFF5FF"/>
<stop offset="0.374" stop-color="#DAE9FF"/>
<stop offset="0.501" stop-color="#BDD9FF"/>
<stop offset="0.629" stop-color="#98C3FF"/>
<stop offset="0.758" stop-color="#6BA9FF"/>
<stop offset="0.885" stop-color="#378AFF"/>
<stop offset="1" stop-color="#006AFF"/>
</linearGradient>
<linearGradient id="paint35_linear_190_14" x1="342.665" y1="235.045" x2="374.726" y2="325.32" gradientUnits="userSpaceOnUse">
<stop stop-color="white"/>
<stop offset="0.122" stop-color="#FBFDFF"/>
<stop offset="0.248" stop-color="#EFF5FF"/>
<stop offset="0.374" stop-color="#DAE9FF"/>
<stop offset="0.501" stop-color="#BDD9FF"/>
<stop offset="0.629" stop-color="#98C3FF"/>
<stop offset="0.758" stop-color="#6BA9FF"/>
<stop offset="0.885" stop-color="#378AFF"/>
<stop offset="1" stop-color="#006AFF"/>
</linearGradient>
<linearGradient id="paint36_linear_190_14" x1="311.739" y1="241.566" x2="311.739" y2="350.432" gradientUnits="userSpaceOnUse">
<stop stop-color="#1DACFF"/>
<stop offset="0.114" stop-color="#1B9FEF"/>
<stop offset="0.337" stop-color="#157DC6"/>
<stop offset="0.647" stop-color="#0C4682"/>
<stop offset="1" stop-color="#00002E"/>
</linearGradient>
<linearGradient id="paint37_linear_190_14" x1="312.891" y1="386.963" x2="312.891" y2="275.858" gradientUnits="userSpaceOnUse">
<stop/>
<stop offset="0.101" stop-color="#020305"/>
<stop offset="0.224" stop-color="#0A0B14"/>
<stop offset="0.36" stop-color="#151A2D"/>
<stop offset="0.505" stop-color="#252D50"/>
<stop offset="0.657" stop-color="#3A477D"/>
<stop offset="0.814" stop-color="#5466B4"/>
<stop offset="0.974" stop-color="#728AF4"/>
<stop offset="1" stop-color="#7790FF"/>
</linearGradient>
<linearGradient id="paint38_linear_190_14" x1="189.99" y1="381.086" x2="329.042" y2="381.086" gradientUnits="userSpaceOnUse">
<stop stop-color="#311842"/>
<stop offset="0.461" stop-color="#190C4B"/>
<stop offset="1" stop-color="#000054"/>
</linearGradient>
<linearGradient id="paint39_linear_190_14" x1="319.831" y1="424.776" x2="395.198" y2="424.776" gradientUnits="userSpaceOnUse">
<stop stop-color="white"/>
<stop offset="0.122" stop-color="#FBFDFF"/>
<stop offset="0.248" stop-color="#EFF5FF"/>
<stop offset="0.374" stop-color="#DAE9FF"/>
<stop offset="0.501" stop-color="#BDD9FF"/>
<stop offset="0.629" stop-color="#98C3FF"/>
<stop offset="0.758" stop-color="#6BA9FF"/>
<stop offset="0.885" stop-color="#378AFF"/>
<stop offset="1" stop-color="#006AFF"/>
</linearGradient>
<linearGradient id="paint40_linear_190_14" x1="300.217" y1="381.93" x2="439.269" y2="381.93" gradientUnits="userSpaceOnUse">
<stop stop-color="#311842"/>
<stop offset="0.461" stop-color="#190C4B"/>
<stop offset="1" stop-color="#000054"/>
</linearGradient>
<linearGradient id="paint41_linear_190_14" x1="307.849" y1="404.245" x2="198.57" y2="445.97" gradientUnits="userSpaceOnUse">
<stop stop-color="white"/>
<stop offset="0.122" stop-color="#FBFDFF"/>
<stop offset="0.248" stop-color="#EFF5FF"/>
<stop offset="0.374" stop-color="#DAE9FF"/>
<stop offset="0.501" stop-color="#BDD9FF"/>
<stop offset="0.629" stop-color="#98C3FF"/>
<stop offset="0.758" stop-color="#6BA9FF"/>
<stop offset="0.885" stop-color="#378AFF"/>
<stop offset="1" stop-color="#006AFF"/>
</linearGradient>
<linearGradient id="paint42_linear_190_14" x1="438.45" y1="358.743" x2="440.575" y2="358.743" gradientUnits="userSpaceOnUse">
<stop offset="0.041" stop-color="#100060"/>
<stop offset="1" stop-color="#090E96"/>
</linearGradient>
</defs>
</svg>
